<svg width="150" height="150" viewBox="0 0 150 150" fill="none" xmlns="http://www.w3.org/2000/svg">
<path d="M33.7099 6.4375V9.17471C33.7099 39.0438 44.889 64.7356 61.9354 74.241V76.0264C44.8887 85.5317 33.7096 111.224 33.7096 141.093V143.83H117.718V141.093C117.718 111.048 106.349 85.3486 89.1445 75.9988V74.2686C106.348 64.9179 117.718 39.2178 117.718 9.17441V6.4375H33.709H33.7099ZM39.2578 11.9116H112.17C111.445 40.167 99.6483 63.3344 85.2355 70.1849L83.6701 70.9267V79.3498L85.2357 80.091C99.6478 86.9415 111.444 110.102 112.17 138.355H39.2578C39.9773 110.26 51.5991 87.0631 65.8813 80.0729L67.4194 79.3223V70.9451L65.8813 70.1945C51.5997 63.2043 39.9771 40.0067 39.2578 11.9116ZM101.852 37.1436C84.9753 45.291 65.3701 45.2998 49.8322 38.3433C54.1254 53.2568 62.6689 63.8717 72.7207 65.626C72.2517 66.2453 71.9976 67.0007 71.9971 67.7775C71.9971 69.758 73.6049 71.3664 75.5859 71.3664C77.567 71.3664 79.1748 69.758 79.1748 67.7775C79.1748 66.9807 78.9091 66.2488 78.4699 65.6535C88.8486 63.9309 97.6559 52.7421 101.852 37.1436ZM75.5859 75.7703C73.6049 75.7703 71.9971 77.3781 71.9971 79.3592C71.9971 81.3402 73.6049 82.9481 75.5859 82.9481C77.567 82.9481 79.1748 81.3402 79.1748 79.3592C79.1748 77.3781 77.567 75.7703 75.5859 75.7703ZM75.5859 87.2781C73.6049 87.2781 71.9971 88.8865 71.9971 90.867C71.9971 92.8483 73.6049 94.4559 75.5859 94.4559C77.567 94.4559 79.1748 92.8483 79.1748 90.867C79.1748 88.8865 77.567 87.2781 75.5859 87.2781ZM75.5859 98.8601C73.6049 98.8601 71.9971 100.468 71.9971 102.449C71.9971 104.429 73.6049 106.038 75.5859 106.038C77.567 106.038 79.1748 104.429 79.1748 102.449C79.1748 100.468 77.567 98.8601 75.5859 98.8601ZM75.6226 110.551C68.8228 110.633 62.0903 118.101 53.4117 132.716H98.2359C89.2937 117.774 82.4224 110.469 75.6226 110.551Z" fill="#070D2D"/>
</svg>
