<svg width="150" height="150" viewBox="0 0 150 150" fill="none" xmlns="http://www.w3.org/2000/svg">
<path d="M50 81.25L76.425 102.387C77.7101 103.414 79.3481 103.893 80.9837 103.719C82.6194 103.546 84.1208 102.735 85.1625 101.462L137.5 37.5" stroke="#070D2D" stroke-width="7.5" stroke-linecap="round"/>
<path fill-rule="evenodd" clip-rule="evenodd" d="M66.0313 77.2994L96.6563 39.8744C97.2862 39.1036 97.5841 38.1141 97.4844 37.1237C97.3848 36.1333 96.8958 35.223 96.125 34.5931C95.3542 33.9632 94.3648 33.6653 93.3744 33.765C92.3839 33.8646 91.4737 34.3536 90.8438 35.1244L60.275 72.4994L66.0313 77.2994ZM50.2 96.6494L44.4375 91.8431L38.3938 99.2369C37.9857 99.7369 37.4 100.06 36.7593 100.138C36.1186 100.216 35.4725 100.043 34.9563 99.6556L14.75 84.4994C13.9544 83.9026 12.9543 83.6464 11.9697 83.7871C10.9851 83.9277 10.0968 84.4537 9.50002 85.2494C8.90328 86.045 8.64705 87.0451 8.7877 88.0297C8.92836 89.0143 9.45437 89.9026 10.25 90.4994L30.4563 105.656C32.5195 107.202 35.1005 107.892 37.6603 107.581C40.2201 107.27 42.5608 105.983 44.1938 103.987L50.2 96.6494Z" fill="#070D2D" fill-opacity="0.25"/>
</svg>
