<svg width="1342" height="1612" viewBox="0 0 1342 1612" fill="none" xmlns="http://www.w3.org/2000/svg">
<g filter="url(#filter0_f_629_5782)">
<ellipse cx="1069.15" cy="707.62" rx="334.482" ry="170.38" fill="#128C7E" fill-opacity="0.5"/>
</g>
<path d="M1040.63 513.025C1040.63 513.025 1053.65 503.227 1055.45 505.487C1056.09 506.289 1057.59 509.022 1058.98 512.005C1059.46 513.029 1059.65 514.202 1059.51 515.354C1059.37 516.507 1058.92 517.579 1058.22 518.417L1054.86 522.397C1051.66 526.192 1046.25 525.92 1043.44 521.752C1042.01 519.651 1040.88 516.815 1040.63 513.025Z" fill="url(#paint0_linear_629_5782)"/>
<path d="M1027.36 494.414C1027.36 494.414 1031.83 480.918 1037.05 482.155C1042.26 483.392 1047.97 487.992 1047.97 487.992L1056.35 501.001C1056.35 501.001 1032.83 511.641 1024.55 505.542C1024.55 505.542 1000.52 510.309 970.173 504.593C974.567 493.946 977.185 483.289 978.722 475.025C994.095 485.001 1010.65 492.463 1027.36 494.414Z" fill="url(#paint1_linear_629_5782)"/>
<path d="M900.078 396.518C900.078 396.518 934.482 446.264 978.726 475.011C977.189 483.285 974.571 493.942 970.177 504.579C947.226 500.257 920.663 489.939 898.145 467.012L900.078 396.518Z" fill="#FE5430"/>
<path d="M857.182 617.006C863.902 580.319 870.639 559.079 893.166 489.541C900.257 467.658 906.694 445.516 903.583 422.435L900.087 396.52C900.087 396.52 856.307 379.515 807.776 395.806C807.776 395.806 741.566 428.824 786.537 591.897C806.789 617.929 830.53 625.35 857.182 617.006Z" fill="#FE5430"/>
<path d="M892.627 363.443L881.274 394.752C880.921 395.723 880.359 396.577 879.641 397.232C878.923 397.888 878.073 398.324 877.168 398.5C870.624 399.786 854.791 401.802 844.397 393.955C844.103 393.731 843.851 393.443 843.656 393.106C843.461 392.769 843.326 392.39 843.26 391.993C843.194 391.596 843.198 391.187 843.272 390.791C843.345 390.396 843.487 390.021 843.689 389.689L864.664 355.123L892.627 363.443Z" fill="url(#paint2_linear_629_5782)"/>
<path d="M880.885 315.544C881.362 316.058 901.007 360.345 901.007 360.345L878.742 372.687L854.689 333.889C854.689 333.889 872.903 306.93 880.885 315.544Z" fill="url(#paint3_linear_629_5782)"/>
<path d="M864.797 338.559L875.902 359.81C876.068 360.131 876.273 360.424 876.511 360.679C877.833 362.093 882.357 366.201 885.853 360.607C888.832 355.84 891.629 351.505 894.626 349.718C895.043 349.473 895.499 349.325 895.966 349.283C896.433 349.241 896.903 349.305 897.348 349.472C897.793 349.64 898.206 349.906 898.561 350.258C898.916 350.609 899.207 351.037 899.417 351.518C901.247 355.68 904.792 364.168 907.016 372.215C907.282 373.189 907.218 374.243 906.837 375.165C906.456 376.087 905.786 376.81 904.96 377.19C900.452 379.288 891.54 383.081 883.634 384.333C882.997 384.434 882.348 384.334 881.756 384.045C881.165 383.756 880.653 383.289 880.274 382.693C876.874 377.345 867.284 362.381 864.011 358.65C860.972 355.174 855.359 356.483 852.833 357.318C852.36 357.475 851.864 357.518 851.375 357.444C850.887 357.371 850.417 357.183 849.995 356.891C847.428 355.117 842.953 350.7 847.048 343.221C847.528 342.314 847.683 341.228 847.477 340.193C847.272 339.158 846.723 338.256 845.948 337.677C843.083 335.515 839.977 331.455 842.938 324.881C845.935 318.227 851.287 317.628 854.934 318.14C856.546 318.366 858.184 317.394 858.804 315.669C858.958 315.234 859.207 314.852 859.529 314.562C859.85 314.271 860.232 314.082 860.636 314.013C862.547 313.568 863.801 311.563 863.427 309.364C862.784 305.6 863.268 300.707 868.504 297.401C878.113 291.338 886.527 301.216 888.662 309.557C890.796 317.898 880.059 323.793 873.302 324.776C868.338 325.498 865.617 331.718 864.522 334.967C864.326 335.551 864.249 336.177 864.296 336.8C864.344 337.423 864.516 338.025 864.797 338.559Z" fill="url(#paint4_linear_629_5782)"/>
<path d="M868.701 365.001C868.701 365.001 863.922 352.094 858.454 352.621C852.987 353.148 848.68 359.401 855.458 366.433C863.888 375.178 868.701 365.001 868.701 365.001Z" fill="url(#paint5_linear_629_5782)"/>
<path d="M861.483 940.324C850.909 941.376 832.557 943.078 818.09 943.811C809.393 944.25 804.385 943.271 801.503 941.947C801.503 942.319 801.516 942.672 801.53 943.001C801.57 943.849 801.883 944.65 802.408 945.25C802.933 945.849 803.633 946.204 804.372 946.246C831.71 947.996 853.451 946.85 861.191 946.31C861.557 946.289 861.911 946.16 862.22 945.936C862.53 945.712 862.784 945.401 862.958 945.032C863.132 944.663 863.221 944.249 863.216 943.829C863.21 943.41 863.111 942.999 862.927 942.636C862.494 941.827 862.011 941.054 861.483 940.324Z" fill="url(#paint6_linear_629_5782)"/>
<path d="M818.09 943.811C832.556 943.079 850.909 941.377 861.482 940.325C851.086 925.685 818.09 915.814 818.09 915.814H808.768C802.36 926.423 801.431 936.52 801.503 941.947C804.385 943.284 809.393 944.251 818.09 943.811Z" fill="#FFD98E"/>
<path d="M807.201 898.348L808.072 918.161C808.117 919.207 808.476 920.203 809.089 920.979C809.701 921.754 810.529 922.262 811.432 922.416C813.778 922.819 816.174 922.591 818.431 921.75C819.227 921.451 819.939 920.911 820.49 920.187C821.042 919.463 821.414 918.582 821.566 917.636L824.581 898.353L807.201 898.348Z" fill="url(#paint7_linear_629_5782)"/>
<path d="M686.152 943.659C681.567 942.924 679.491 940.191 678.622 937.268C678.622 937.293 678.611 937.319 678.604 937.345C677.932 940.43 679.5 943.626 682.62 945.145C686.401 946.984 690.533 947.295 693.74 947.143C697.183 946.981 700.341 945.343 702.077 942.729L702.104 942.69C698.65 944.652 693.799 944.883 686.152 943.659Z" fill="#070D2D"/>
<path d="M707.773 898.223H700.089C688.382 897.948 681.029 926.294 678.623 937.27C679.492 940.194 681.568 942.927 686.153 943.662C693.799 944.886 698.651 944.654 702.104 942.693C708.429 933.138 711.565 919.146 713.079 910.981C714.786 901.691 707.773 898.223 707.773 898.223Z" fill="#FFD98E"/>
<path d="M701.073 879.832L696.804 899.319C696.553 900.481 696.653 901.708 697.088 902.797C697.524 903.886 698.268 904.772 699.2 905.312C701.588 906.718 704.95 908.197 708.038 907.767C708.748 907.66 709.418 907.327 709.971 906.806C710.525 906.286 710.942 905.598 711.174 904.821L717.445 884.321L701.073 879.832Z" fill="url(#paint8_linear_629_5782)"/>
<path d="M695.985 885.469C701.293 890.868 718.564 891.588 718.564 891.588C780.776 720.182 806.712 672.997 806.712 672.997C797.729 737.691 804.775 903.757 804.775 903.757C815.042 908.958 828.276 903.757 828.276 903.757C829.112 797.842 842.102 684.029 858.855 611.208C816.807 610.123 793.957 599.599 786.656 592.971C751.606 657.837 695.985 885.469 695.985 885.469Z" fill="#070D2D"/>
<path d="M869.447 659.105L861.711 714.345C861.051 718.99 858.849 723.16 855.568 725.98C852.287 728.801 848.182 730.053 844.114 729.474L728.32 713.258C725.585 712.883 723.059 711.388 721.208 709.047C719.356 706.706 718.303 703.677 718.241 700.515C717.992 686.241 718.483 660.838 723.699 637.695L869.447 659.105Z" fill="url(#paint9_linear_629_5782)"/>
<path d="M841.685 725.839C841.751 725.838 841.815 725.809 841.863 725.756C841.911 725.704 841.94 725.632 841.944 725.556C841.948 725.48 841.927 725.405 841.884 725.347C841.842 725.288 841.782 725.25 841.716 725.24L839.642 724.949C839.575 724.944 839.509 724.969 839.458 725.018C839.406 725.067 839.372 725.137 839.364 725.213C839.356 725.29 839.374 725.367 839.414 725.429C839.454 725.491 839.514 725.533 839.58 725.546L841.654 725.836L841.685 725.839ZM846.534 725.662H846.583C847.278 725.506 847.963 725.296 848.633 725.032C848.665 725.019 848.695 724.999 848.721 724.973C848.746 724.947 848.767 724.915 848.782 724.88C848.797 724.844 848.806 724.806 848.808 724.767C848.81 724.728 848.805 724.688 848.794 724.651C848.783 724.614 848.765 724.58 848.743 724.55C848.72 724.521 848.692 724.497 848.662 724.48C848.631 724.463 848.597 724.452 848.563 724.45C848.529 724.448 848.495 724.453 848.462 724.466C847.816 724.721 847.156 724.924 846.485 725.073C846.421 725.087 846.363 725.128 846.324 725.187C846.284 725.247 846.266 725.322 846.272 725.397C846.278 725.472 846.309 725.541 846.357 725.591C846.406 725.642 846.469 725.67 846.534 725.669V725.662ZM834.776 724.87C834.844 724.874 834.912 724.848 834.964 724.795C835.016 724.742 835.047 724.669 835.051 724.589C835.055 724.51 835.032 724.433 834.986 724.373C834.94 724.314 834.876 724.278 834.807 724.273L832.733 723.983C832.699 723.977 832.664 723.979 832.631 723.989C832.598 723.999 832.567 724.016 832.54 724.04C832.513 724.064 832.49 724.094 832.473 724.129C832.456 724.163 832.446 724.201 832.442 724.24C832.433 724.318 832.452 724.396 832.494 724.458C832.536 724.521 832.598 724.561 832.666 724.571L834.737 724.862L834.776 724.87ZM827.864 723.903C827.93 723.902 827.994 723.873 828.042 723.82C828.09 723.768 828.119 723.696 828.123 723.62C828.127 723.544 828.105 723.469 828.063 723.411C828.021 723.352 827.961 723.314 827.895 723.304L825.823 723.016C825.789 723.011 825.755 723.014 825.722 723.025C825.689 723.035 825.658 723.053 825.631 723.077C825.604 723.102 825.582 723.132 825.565 723.166C825.548 723.2 825.537 723.238 825.533 723.277C825.529 723.316 825.532 723.355 825.541 723.393C825.55 723.431 825.566 723.466 825.587 723.497C825.608 723.528 825.634 723.554 825.664 723.573C825.694 723.593 825.727 723.605 825.761 723.61L827.832 723.9L827.864 723.903ZM820.954 722.934C821.023 722.938 821.091 722.912 821.143 722.859C821.194 722.806 821.226 722.732 821.23 722.653C821.234 722.574 821.21 722.496 821.165 722.437C821.119 722.378 821.054 722.342 820.986 722.337L818.914 722.047C818.846 722.04 818.779 722.064 818.727 722.113C818.674 722.162 818.64 722.232 818.632 722.309C818.623 722.386 818.641 722.464 818.682 722.526C818.722 722.588 818.782 722.63 818.849 722.643L820.923 722.934H820.954ZM852.823 722.419C852.88 722.42 852.936 722.4 852.982 722.36C853.544 721.865 854.076 721.328 854.575 720.751C854.618 720.693 854.64 720.619 854.637 720.543C854.634 720.467 854.606 720.395 854.559 720.342C854.512 720.289 854.449 720.258 854.383 720.255C854.317 720.253 854.253 720.279 854.203 720.329C853.721 720.883 853.207 721.398 852.664 721.872C852.62 721.909 852.588 721.962 852.571 722.022C852.555 722.083 852.556 722.147 852.573 722.207C852.591 722.267 852.625 722.318 852.67 722.355C852.715 722.391 852.768 722.41 852.823 722.409V722.419ZM814.045 721.977C814.114 721.982 814.181 721.955 814.233 721.903C814.285 721.85 814.316 721.776 814.32 721.697C814.324 721.618 814.301 721.54 814.255 721.481C814.209 721.421 814.145 721.385 814.076 721.381L812.002 721.09C811.933 721.081 811.864 721.103 811.81 721.152C811.756 721.201 811.72 721.272 811.712 721.351C811.704 721.43 811.723 721.509 811.766 721.572C811.808 721.634 811.871 721.675 811.939 721.684L814.013 721.975L814.045 721.977ZM807.135 721.01C807.201 721.01 807.265 720.98 807.313 720.928C807.361 720.875 807.39 720.804 807.394 720.728C807.398 720.652 807.377 720.577 807.334 720.518C807.292 720.459 807.232 720.421 807.166 720.411L805.092 720.123C805.059 720.118 805.024 720.12 804.991 720.13C804.958 720.14 804.927 720.158 804.9 720.182C804.873 720.206 804.85 720.236 804.833 720.27C804.816 720.304 804.805 720.342 804.801 720.381C804.793 720.459 804.812 720.538 804.854 720.6C804.896 720.663 804.957 720.704 805.025 720.715L807.097 721.005L807.135 721.01ZM800.223 720.041C800.292 720.046 800.36 720.019 800.412 719.966C800.463 719.914 800.495 719.84 800.499 719.761C800.503 719.682 800.48 719.604 800.434 719.545C800.388 719.485 800.324 719.449 800.255 719.445L798.183 719.154C798.115 719.148 798.048 719.171 797.996 719.22C797.943 719.269 797.909 719.339 797.901 719.417C797.893 719.494 797.911 719.571 797.951 719.634C797.991 719.696 798.051 719.738 798.118 719.751L800.192 720.039L800.223 720.041ZM793.314 719.074C793.383 719.079 793.45 719.052 793.502 719C793.554 718.947 793.585 718.873 793.589 718.794C793.593 718.715 793.57 718.637 793.524 718.578C793.478 718.519 793.414 718.483 793.345 718.478L791.271 718.187C791.202 718.178 791.133 718.2 791.079 718.249C791.025 718.298 790.989 718.37 790.981 718.448C790.973 718.527 790.992 718.606 791.035 718.669C791.077 718.731 791.14 718.772 791.208 718.781L793.282 719.072L793.314 719.074ZM786.404 718.108C786.47 718.107 786.534 718.077 786.582 718.025C786.63 717.972 786.659 717.901 786.663 717.825C786.667 717.749 786.646 717.674 786.604 717.615C786.561 717.557 786.501 717.518 786.436 717.509L784.362 717.221C784.328 717.216 784.293 717.219 784.26 717.229C784.227 717.24 784.196 717.258 784.169 717.282C784.142 717.306 784.12 717.336 784.103 717.371C784.086 717.405 784.076 717.443 784.071 717.482C784.067 717.521 784.07 717.56 784.079 717.598C784.088 717.636 784.104 717.671 784.125 717.702C784.146 717.733 784.172 717.759 784.202 717.778C784.232 717.797 784.265 717.81 784.299 717.815L786.373 718.105L786.404 718.108ZM779.495 717.138C779.557 717.138 779.618 717.112 779.665 717.065C779.713 717.018 779.744 716.953 779.752 716.881C779.76 716.803 779.742 716.724 779.7 716.661C779.658 716.599 779.596 716.558 779.528 716.547L777.448 716.254C777.412 716.247 777.377 716.248 777.342 716.258C777.307 716.267 777.275 716.284 777.246 716.309C777.218 716.333 777.194 716.364 777.176 716.399C777.158 716.435 777.147 716.474 777.142 716.514C777.138 716.555 777.141 716.596 777.151 716.635C777.161 716.674 777.178 716.711 777.201 716.742C777.223 716.773 777.251 716.799 777.283 716.818C777.315 716.837 777.349 716.848 777.385 716.85L779.457 717.138H779.495ZM857.2 716.3C857.249 716.3 857.296 716.285 857.338 716.255C857.38 716.226 857.413 716.183 857.435 716.133C857.746 715.402 858.012 714.646 858.232 713.873C858.25 713.799 858.242 713.719 858.21 713.651C858.178 713.583 858.125 713.532 858.061 713.508C857.997 713.484 857.928 713.489 857.867 713.522C857.807 713.555 857.759 713.613 857.735 713.685C857.523 714.433 857.267 715.162 856.967 715.868C856.948 715.913 856.939 715.963 856.941 716.012C856.942 716.062 856.955 716.111 856.977 716.153C856.999 716.196 857.031 716.232 857.068 716.258C857.105 716.283 857.147 716.298 857.191 716.3H857.2ZM772.583 716.172C772.652 716.176 772.719 716.15 772.771 716.097C772.823 716.044 772.854 715.97 772.858 715.891C772.862 715.812 772.839 715.734 772.793 715.675C772.748 715.616 772.683 715.58 772.614 715.575L770.542 715.285C770.474 715.275 770.405 715.296 770.35 715.345C770.295 715.394 770.26 715.465 770.251 715.544C770.243 715.623 770.262 715.702 770.304 715.765C770.346 715.828 770.409 715.869 770.477 715.878L772.551 716.169L772.583 716.172ZM765.673 715.205C765.736 715.204 765.797 715.178 765.844 715.131C765.892 715.084 765.924 715.019 765.933 714.948C765.941 714.87 765.922 714.791 765.881 714.729C765.839 714.667 765.777 714.626 765.709 714.616L763.635 714.326C763.601 714.32 763.567 714.323 763.534 714.333C763.501 714.343 763.47 714.36 763.443 714.384C763.417 714.408 763.394 714.438 763.377 714.472C763.361 714.506 763.35 714.544 763.346 714.583C763.337 714.661 763.356 714.74 763.398 714.803C763.44 714.866 763.502 714.907 763.57 714.917L765.644 715.207L765.673 715.205ZM758.764 714.236C758.798 714.238 758.832 714.233 758.864 714.22C758.897 714.207 758.926 714.187 758.952 714.161C758.978 714.135 758.998 714.103 759.013 714.068C759.028 714.033 759.037 713.994 759.039 713.955C759.041 713.916 759.037 713.877 759.025 713.84C759.014 713.803 758.997 713.768 758.974 713.739C758.952 713.71 758.924 713.686 758.893 713.669C758.863 713.651 758.829 713.641 758.795 713.639L756.721 713.348C756.686 713.341 756.65 713.343 756.616 713.352C756.581 713.362 756.548 713.379 756.52 713.403C756.491 713.428 756.467 713.459 756.45 713.494C756.432 713.529 756.42 713.568 756.416 713.609C756.412 713.649 756.415 713.69 756.425 713.73C756.435 713.769 756.452 713.805 756.474 713.837C756.497 713.868 756.525 713.894 756.557 713.913C756.588 713.931 756.623 713.942 756.658 713.945L758.73 714.233L758.764 714.236ZM751.852 713.269C751.886 713.271 751.92 713.266 751.953 713.253C751.985 713.24 752.015 713.22 752.04 713.194C752.066 713.168 752.087 713.137 752.102 713.101C752.117 713.066 752.125 713.028 752.127 712.989C752.129 712.949 752.125 712.91 752.114 712.873C752.102 712.836 752.085 712.802 752.062 712.772C752.04 712.743 752.012 712.719 751.982 712.702C751.951 712.685 751.917 712.675 751.883 712.672L749.812 712.382C749.743 712.372 749.674 712.394 749.619 712.443C749.565 712.492 749.53 712.564 749.521 712.643C749.513 712.721 749.532 712.801 749.575 712.863C749.618 712.926 749.68 712.966 749.749 712.976L751.821 713.266L751.852 713.269ZM744.942 712.302C745.009 712.301 745.072 712.272 745.12 712.219C745.168 712.167 745.197 712.095 745.201 712.019C745.205 711.943 745.184 711.868 745.142 711.81C745.1 711.751 745.039 711.713 744.974 711.703L742.9 711.412C742.833 711.407 742.767 711.432 742.715 711.481C742.663 711.53 742.63 711.6 742.622 711.677C742.614 711.753 742.632 711.83 742.672 711.892C742.712 711.954 742.771 711.996 742.837 712.009L744.911 712.299L744.942 712.302ZM738.033 711.333C738.102 711.338 738.169 711.311 738.221 711.258C738.273 711.206 738.304 711.132 738.308 711.052C738.312 710.973 738.289 710.896 738.243 710.836C738.198 710.777 738.133 710.741 738.064 710.736L735.99 710.446C735.956 710.441 735.922 710.444 735.889 710.455C735.856 710.465 735.825 710.483 735.798 710.507C735.771 710.531 735.749 710.562 735.732 710.596C735.715 710.63 735.704 710.668 735.7 710.707C735.696 710.746 735.699 710.785 735.708 710.823C735.717 710.861 735.733 710.896 735.754 710.927C735.775 710.958 735.801 710.984 735.831 711.003C735.861 711.023 735.894 711.035 735.928 711.04L738.001 711.33L738.033 711.333ZM731.123 710.356C731.188 710.354 731.25 710.325 731.297 710.274C731.345 710.223 731.374 710.154 731.379 710.08C731.384 710.005 731.365 709.931 731.326 709.872C731.287 709.813 731.23 709.773 731.166 709.759C730.494 709.633 729.835 709.433 729.197 709.163C729.134 709.143 729.066 709.151 729.008 709.186C728.95 709.221 728.905 709.279 728.882 709.35C728.86 709.421 728.861 709.499 728.886 709.568C728.911 709.638 728.958 709.694 729.018 709.726C729.688 710.006 730.381 710.211 731.085 710.34L731.123 710.356ZM858.935 708.6C858.998 708.599 859.058 708.573 859.106 708.526C859.153 708.479 859.184 708.414 859.193 708.343L859.524 705.977C859.535 705.899 859.519 705.818 859.478 705.754C859.438 705.69 859.377 705.646 859.308 705.634C859.24 705.621 859.17 705.64 859.114 705.687C859.058 705.733 859.02 705.804 859.009 705.882L858.678 708.247C858.672 708.287 858.674 708.328 858.682 708.367C858.69 708.406 858.705 708.442 858.726 708.474C858.747 708.507 858.773 708.534 858.803 708.554C858.834 708.574 858.867 708.587 858.902 708.592L858.935 708.6ZM725.058 706.718C725.126 706.718 725.191 706.687 725.24 706.633C725.288 706.576 725.315 706.5 725.315 706.421C725.315 706.341 725.288 706.265 725.24 706.209C724.766 705.648 724.34 705.036 723.967 704.383C723.927 704.323 723.868 704.283 723.803 704.271C723.738 704.258 723.672 704.275 723.617 704.316C723.562 704.358 723.522 704.421 723.506 704.495C723.49 704.568 723.499 704.646 723.531 704.712C723.921 705.397 724.367 706.037 724.863 706.625C724.889 706.653 724.92 706.675 724.953 706.689C724.987 706.703 725.022 706.71 725.058 706.707V706.718ZM860.04 700.711C860.102 700.712 860.163 700.686 860.21 700.638C860.258 700.591 860.289 700.526 860.297 700.454L860.629 698.086C860.634 698.048 860.633 698.008 860.625 697.97C860.617 697.931 860.603 697.895 860.583 697.863C860.562 697.831 860.537 697.804 860.508 697.784C860.479 697.763 860.446 697.749 860.413 697.743C860.379 697.737 860.344 697.738 860.311 697.747C860.277 697.757 860.246 697.773 860.218 697.796C860.191 697.819 860.167 697.848 860.149 697.882C860.131 697.915 860.119 697.952 860.114 697.991L859.782 700.357C859.777 700.396 859.778 700.437 859.787 700.475C859.795 700.514 859.81 700.551 859.831 700.583C859.852 700.615 859.878 700.642 859.908 700.662C859.938 700.683 859.971 700.696 860.006 700.701L860.04 700.711ZM722.073 699.647H722.106C722.175 699.636 722.237 699.595 722.279 699.532C722.32 699.468 722.339 699.389 722.33 699.31C722.282 698.876 722.253 698.439 722.245 698.002L722.229 696.953C722.228 696.874 722.2 696.798 722.151 696.743C722.102 696.688 722.036 696.657 721.967 696.657C721.933 696.657 721.899 696.665 721.867 696.681C721.836 696.696 721.807 696.719 721.783 696.747C721.759 696.775 721.741 696.808 721.728 696.845C721.715 696.882 721.709 696.921 721.71 696.96L721.725 698.012C721.734 698.472 721.764 698.931 721.815 699.387C721.825 699.459 721.858 699.524 721.907 699.57C721.956 699.616 722.018 699.64 722.082 699.637L722.073 699.647ZM861.137 692.821C861.199 692.82 861.26 692.794 861.306 692.747C861.353 692.699 861.384 692.634 861.392 692.564L861.726 690.196C861.732 690.157 861.73 690.117 861.722 690.079C861.714 690.041 861.7 690.004 861.68 689.973C861.66 689.941 861.635 689.914 861.605 689.893C861.576 689.872 861.544 689.859 861.51 689.852C861.476 689.846 861.442 689.848 861.408 689.857C861.375 689.866 861.344 689.882 861.316 689.905C861.288 689.928 861.264 689.957 861.246 689.991C861.228 690.024 861.216 690.062 861.211 690.1L860.877 692.468C860.872 692.508 860.874 692.548 860.883 692.587C860.891 692.626 860.906 692.662 860.927 692.694C860.948 692.726 860.974 692.753 861.004 692.774C861.034 692.794 861.067 692.807 861.101 692.813L861.137 692.821ZM721.94 691.659C722.009 691.659 722.075 691.627 722.124 691.571C722.173 691.515 722.2 691.439 722.2 691.36C722.2 690.58 722.206 689.782 722.218 688.964C722.218 688.884 722.191 688.808 722.142 688.751C722.094 688.695 722.028 688.662 721.958 688.661C721.89 688.662 721.824 688.694 721.775 688.749C721.726 688.805 721.698 688.88 721.696 688.959C721.696 689.777 721.683 690.576 721.678 691.358C721.678 691.397 721.685 691.436 721.697 691.473C721.71 691.509 721.729 691.542 721.754 691.57C721.778 691.598 721.807 691.62 721.838 691.636C721.87 691.651 721.904 691.659 721.938 691.659H721.94ZM862.241 684.93C862.304 684.93 862.364 684.903 862.412 684.856C862.459 684.809 862.49 684.744 862.499 684.673L862.83 682.305C862.841 682.226 862.825 682.146 862.784 682.082C862.744 682.017 862.683 681.974 862.614 681.962C862.546 681.949 862.476 681.968 862.42 682.015C862.364 682.061 862.326 682.131 862.315 682.21L861.984 684.578C861.978 684.617 861.98 684.658 861.988 684.697C861.997 684.735 862.012 684.772 862.033 684.804C862.053 684.836 862.08 684.863 862.11 684.883C862.14 684.904 862.173 684.917 862.208 684.922L862.241 684.93ZM722.064 683.668C722.132 683.668 722.197 683.637 722.246 683.583C722.295 683.529 722.323 683.455 722.326 683.377C722.347 682.59 722.371 681.792 722.4 680.983C722.397 680.908 722.37 680.836 722.323 680.783C722.277 680.729 722.215 680.698 722.149 680.694C722.083 680.691 722.019 680.717 721.969 680.765C721.918 680.814 721.886 680.883 721.878 680.958C721.849 681.77 721.825 682.571 721.804 683.359C721.803 683.398 721.808 683.437 721.82 683.474C721.832 683.511 721.85 683.544 721.874 683.573C721.897 683.602 721.925 683.625 721.956 683.641C721.987 683.657 722.02 683.666 722.055 683.668H722.064ZM863.348 677.042C863.41 677.041 863.47 677.015 863.517 676.968C863.564 676.921 863.594 676.856 863.603 676.785L863.935 674.419C863.946 674.341 863.929 674.261 863.888 674.196C863.848 674.132 863.787 674.089 863.718 674.076C863.65 674.063 863.58 674.082 863.524 674.129C863.468 674.175 863.43 674.246 863.419 674.324L863.088 676.69C863.083 676.729 863.084 676.769 863.092 676.808C863.101 676.847 863.116 676.884 863.137 676.916C863.158 676.948 863.184 676.975 863.214 676.995C863.244 677.016 863.277 677.029 863.312 677.034L863.348 677.042ZM722.386 675.682C722.452 675.681 722.516 675.652 722.564 675.6C722.612 675.548 722.641 675.477 722.646 675.401C722.688 674.612 722.733 673.815 722.785 673.01C722.789 672.97 722.787 672.928 722.777 672.889C722.767 672.85 722.751 672.813 722.728 672.781C722.705 672.749 722.678 672.723 722.646 672.704C722.614 672.686 722.58 672.674 722.544 672.671C722.508 672.668 722.473 672.674 722.439 672.687C722.405 672.701 722.374 672.722 722.348 672.749C722.322 672.777 722.301 672.811 722.286 672.848C722.271 672.885 722.264 672.926 722.263 672.967C722.214 673.774 722.167 674.573 722.126 675.363C722.124 675.402 722.128 675.442 722.139 675.479C722.15 675.517 722.168 675.551 722.19 675.581C722.213 675.61 722.241 675.635 722.272 675.652C722.303 675.669 722.336 675.679 722.37 675.682H722.386ZM864.452 669.151C864.514 669.15 864.575 669.124 864.622 669.077C864.669 669.03 864.7 668.965 864.709 668.894L865.041 666.526C865.047 666.486 865.047 666.446 865.039 666.407C865.031 666.368 865.017 666.331 864.997 666.298C864.977 666.265 864.951 666.238 864.922 666.217C864.892 666.195 864.859 666.181 864.825 666.175C864.79 666.169 864.755 666.17 864.721 666.18C864.687 666.189 864.655 666.206 864.627 666.23C864.599 666.254 864.576 666.284 864.558 666.318C864.54 666.353 864.528 666.391 864.524 666.431L864.192 668.796C864.187 668.836 864.188 668.876 864.197 668.915C864.205 668.954 864.22 668.99 864.241 669.023C864.262 669.055 864.288 669.082 864.318 669.102C864.348 669.122 864.381 669.135 864.416 669.141L864.452 669.151ZM722.921 667.711C722.986 667.711 723.049 667.683 723.097 667.632C723.145 667.582 723.175 667.513 723.181 667.439C723.244 666.649 723.313 665.855 723.385 665.058C723.393 664.98 723.374 664.902 723.332 664.84C723.29 664.778 723.229 664.737 723.161 664.726C723.094 664.719 723.026 664.741 722.973 664.789C722.92 664.837 722.884 664.906 722.874 664.983C722.803 665.785 722.733 666.582 722.671 667.374C722.664 667.453 722.686 667.532 722.73 667.593C722.774 667.654 722.837 667.693 722.906 667.701L722.921 667.711ZM865.556 661.26C865.619 661.26 865.679 661.234 865.726 661.186C865.774 661.139 865.805 661.074 865.814 661.003L866.145 658.635C866.151 658.596 866.149 658.557 866.141 658.518C866.133 658.48 866.119 658.444 866.099 658.412C866.079 658.38 866.054 658.353 866.024 658.333C865.995 658.312 865.963 658.298 865.929 658.292C865.895 658.286 865.861 658.287 865.827 658.296C865.794 658.305 865.762 658.322 865.735 658.345C865.707 658.368 865.683 658.397 865.665 658.43C865.647 658.464 865.635 658.501 865.63 658.54L865.299 660.908C865.293 660.948 865.295 660.988 865.304 661.027C865.312 661.065 865.327 661.102 865.348 661.134C865.369 661.166 865.395 661.193 865.425 661.213C865.455 661.233 865.488 661.247 865.522 661.253L865.556 661.26ZM723.687 659.769C723.75 659.769 723.811 659.743 723.859 659.696C723.907 659.649 723.938 659.583 723.947 659.512C724.037 658.723 724.129 657.931 724.227 657.139C724.232 657.063 724.211 656.988 724.169 656.929C724.128 656.87 724.068 656.832 724.003 656.821C723.937 656.81 723.871 656.828 723.816 656.871C723.762 656.915 723.724 656.98 723.71 657.054C723.611 657.851 723.519 658.643 723.43 659.435C723.425 659.474 723.427 659.514 723.436 659.552C723.445 659.59 723.46 659.625 723.481 659.657C723.501 659.688 723.527 659.714 723.557 659.734C723.587 659.754 723.62 659.767 723.654 659.772L723.687 659.769ZM862.47 658.391C862.534 658.387 862.595 658.357 862.641 658.305C862.687 658.253 862.714 658.184 862.718 658.11C862.722 658.036 862.703 657.963 862.663 657.905C862.624 657.847 862.567 657.808 862.503 657.794L860.432 657.488C860.364 657.48 860.295 657.503 860.242 657.552C860.188 657.6 860.153 657.671 860.144 657.749C860.136 657.827 860.154 657.906 860.195 657.968C860.236 658.031 860.297 658.073 860.364 658.085L862.436 658.388L862.47 658.391ZM855.565 657.378C855.631 657.378 855.695 657.349 855.744 657.296C855.792 657.244 855.821 657.173 855.826 657.096C855.83 657.02 855.809 656.945 855.767 656.886C855.724 656.827 855.664 656.789 855.598 656.779L853.527 656.475C853.458 656.465 853.389 656.487 853.334 656.535C853.279 656.584 853.243 656.655 853.234 656.734C853.225 656.813 853.244 656.892 853.286 656.955C853.328 657.018 853.391 657.059 853.459 657.069L855.531 657.375L855.565 657.378ZM848.66 656.349C848.724 656.346 848.785 656.315 848.831 656.263C848.876 656.211 848.904 656.142 848.908 656.068C848.912 655.995 848.893 655.922 848.853 655.864C848.813 655.805 848.756 655.766 848.693 655.753L846.621 655.447C846.553 655.439 846.485 655.461 846.43 655.509C846.376 655.556 846.339 655.626 846.328 655.704C846.32 655.783 846.338 655.862 846.38 655.925C846.422 655.988 846.484 656.029 846.552 656.041L848.624 656.344L848.66 656.349ZM841.755 655.336C841.821 655.336 841.885 655.307 841.933 655.255C841.982 655.203 842.011 655.131 842.015 655.055C842.02 654.979 841.999 654.904 841.956 654.845C841.914 654.786 841.854 654.747 841.788 654.737L839.716 654.434C839.648 654.424 839.578 654.445 839.524 654.494C839.469 654.542 839.433 654.614 839.424 654.692C839.415 654.771 839.434 654.851 839.476 654.914C839.518 654.977 839.581 655.018 839.649 655.028L841.721 655.334L841.755 655.336ZM834.849 654.321C834.914 654.317 834.975 654.287 835.02 654.235C835.066 654.183 835.094 654.113 835.098 654.04C835.102 653.966 835.083 653.893 835.043 653.835C835.003 653.777 834.946 653.737 834.883 653.724L832.811 653.421C832.777 653.416 832.743 653.419 832.71 653.429C832.677 653.439 832.646 653.457 832.619 653.481C832.591 653.505 832.569 653.535 832.552 653.569C832.534 653.603 832.523 653.64 832.519 653.679C832.515 653.718 832.517 653.758 832.526 653.796C832.535 653.834 832.55 653.869 832.571 653.901C832.592 653.932 832.618 653.958 832.648 653.977C832.677 653.997 832.71 654.01 832.744 654.015L834.816 654.318L834.849 654.321ZM827.944 653.292C828.007 653.293 828.069 653.267 828.116 653.22C828.164 653.173 828.195 653.107 828.204 653.035C828.213 652.957 828.194 652.877 828.152 652.815C828.11 652.752 828.048 652.71 827.98 652.698L825.908 652.395C825.84 652.385 825.77 652.406 825.716 652.455C825.661 652.503 825.625 652.575 825.616 652.653C825.607 652.732 825.626 652.812 825.668 652.875C825.71 652.938 825.773 652.979 825.841 652.989L827.913 653.295L827.944 653.292ZM821.039 652.279C821.104 652.276 821.164 652.245 821.21 652.193C821.256 652.141 821.284 652.072 821.288 651.998C821.292 651.925 821.272 651.852 821.233 651.794C821.193 651.735 821.136 651.696 821.073 651.683L819.001 651.377C818.933 651.368 818.864 651.39 818.809 651.438C818.755 651.486 818.718 651.556 818.708 651.634C818.699 651.713 818.717 651.792 818.759 651.855C818.801 651.918 818.863 651.96 818.932 651.971L821.003 652.274L821.039 652.279ZM724.715 651.84C724.778 651.839 724.838 651.812 724.885 651.765C724.932 651.718 724.963 651.653 724.973 651.583C725.089 650.796 725.21 650.011 725.336 649.227C725.346 649.187 725.348 649.145 725.343 649.104C725.338 649.062 725.326 649.022 725.307 648.987C725.288 648.951 725.262 648.921 725.232 648.897C725.202 648.873 725.168 648.857 725.132 648.849C725.096 648.842 725.06 648.842 725.024 648.852C724.989 648.862 724.955 648.879 724.926 648.905C724.897 648.93 724.873 648.962 724.855 648.998C724.837 649.035 724.826 649.075 724.823 649.117C724.698 649.906 724.574 650.693 724.458 651.482C724.452 651.522 724.454 651.562 724.462 651.601C724.47 651.64 724.485 651.677 724.506 651.709C724.527 651.741 724.553 651.768 724.583 651.789C724.614 651.809 724.647 651.822 724.682 651.827L724.715 651.84ZM814.134 651.266C814.201 651.266 814.265 651.237 814.313 651.185C814.362 651.132 814.391 651.061 814.395 650.985C814.399 650.909 814.378 650.833 814.336 650.775C814.294 650.716 814.234 650.677 814.168 650.667L812.096 650.364C812.028 650.354 811.959 650.376 811.904 650.424C811.849 650.472 811.813 650.543 811.803 650.621C811.794 650.699 811.812 650.779 811.854 650.841C811.896 650.904 811.958 650.945 812.027 650.955L814.098 651.261L814.134 651.266ZM807.229 650.238C807.298 650.243 807.366 650.216 807.417 650.163C807.469 650.111 807.5 650.037 807.505 649.958C807.509 649.879 807.485 649.801 807.44 649.741C807.394 649.682 807.329 649.646 807.261 649.641L805.191 649.335C805.123 649.327 805.055 649.35 805.001 649.399C804.948 649.447 804.913 649.518 804.904 649.596C804.895 649.674 804.913 649.753 804.954 649.815C804.995 649.878 805.056 649.92 805.124 649.932L807.196 650.235L807.229 650.238ZM800.324 649.225C800.391 649.225 800.455 649.196 800.503 649.143C800.551 649.091 800.581 649.02 800.585 648.943C800.589 648.867 800.568 648.792 800.526 648.733C800.484 648.674 800.424 648.636 800.358 648.626L798.286 648.322C798.217 648.312 798.148 648.333 798.093 648.382C798.038 648.43 798.002 648.501 797.993 648.58C797.984 648.658 798.002 648.737 798.044 648.8C798.086 648.863 798.148 648.904 798.216 648.914L800.288 649.22L800.324 649.225ZM793.419 648.196C793.488 648.201 793.556 648.174 793.607 648.122C793.659 648.069 793.69 647.995 793.694 647.916C793.699 647.837 793.675 647.759 793.629 647.7C793.584 647.641 793.519 647.605 793.45 647.6L791.381 647.294C791.313 647.286 791.245 647.308 791.191 647.357C791.137 647.406 791.102 647.477 791.094 647.555C791.085 647.632 791.103 647.711 791.144 647.774C791.185 647.837 791.246 647.879 791.314 647.89L793.385 648.194L793.419 648.196ZM786.514 647.183C786.58 647.183 786.644 647.154 786.693 647.102C786.741 647.05 786.771 646.978 786.775 646.902C786.779 646.826 786.758 646.751 786.716 646.692C786.674 646.633 786.613 646.594 786.547 646.584L784.476 646.281C784.407 646.271 784.338 646.293 784.283 646.341C784.229 646.389 784.192 646.46 784.182 646.538C784.173 646.616 784.192 646.696 784.234 646.758C784.276 646.821 784.338 646.862 784.406 646.872L786.478 647.178L786.514 647.183ZM779.609 646.155C779.678 646.16 779.745 646.133 779.797 646.08C779.849 646.028 779.88 645.954 779.884 645.875C779.888 645.796 779.865 645.718 779.819 645.659C779.774 645.599 779.709 645.563 779.64 645.558L777.571 645.252C777.503 645.244 777.435 645.267 777.381 645.316C777.327 645.364 777.292 645.435 777.284 645.513C777.275 645.591 777.293 645.67 777.334 645.732C777.375 645.795 777.436 645.837 777.504 645.849L779.575 646.152L779.609 646.155ZM772.704 645.142C772.767 645.142 772.827 645.116 772.875 645.069C772.922 645.021 772.953 644.956 772.961 644.885C772.97 644.806 772.952 644.727 772.91 644.663C772.868 644.6 772.806 644.559 772.737 644.548L770.666 644.245C770.597 644.236 770.529 644.258 770.474 644.305C770.419 644.353 770.383 644.424 770.372 644.502C770.363 644.58 770.382 644.659 770.424 644.722C770.466 644.785 770.528 644.826 770.596 644.836L772.668 645.142H772.704ZM765.799 644.114C765.833 644.116 765.867 644.11 765.899 644.098C765.932 644.085 765.961 644.065 765.987 644.039C766.013 644.013 766.033 643.981 766.048 643.946C766.063 643.911 766.072 643.872 766.074 643.833C766.076 643.794 766.072 643.755 766.06 643.718C766.049 643.681 766.032 643.646 766.009 643.617C765.986 643.588 765.959 643.564 765.928 643.547C765.898 643.529 765.864 643.519 765.83 643.517L763.761 643.211C763.692 643.201 763.623 643.223 763.568 643.271C763.513 643.319 763.477 643.39 763.467 643.468C763.458 643.547 763.477 643.626 763.519 643.69C763.561 643.753 763.623 643.794 763.691 643.805L765.763 644.108L765.799 644.114ZM726.039 643.944C726.099 643.944 726.157 643.92 726.203 643.877C726.249 643.834 726.282 643.774 726.294 643.707C726.444 642.927 726.598 642.149 726.756 641.373C726.764 641.334 726.765 641.295 726.76 641.256C726.754 641.217 726.742 641.18 726.724 641.146C726.706 641.113 726.682 641.084 726.654 641.061C726.626 641.038 726.594 641.021 726.561 641.013C726.494 640.995 726.423 641.008 726.365 641.049C726.306 641.091 726.264 641.157 726.247 641.234C726.088 642.015 725.933 642.797 725.784 643.579C725.769 643.656 725.782 643.738 725.819 643.805C725.857 643.872 725.915 643.919 725.983 643.936L726.039 643.944ZM758.894 643.1C758.96 643.1 759.024 643.071 759.073 643.019C759.121 642.967 759.15 642.895 759.155 642.819C759.159 642.743 759.138 642.668 759.095 642.609C759.053 642.55 758.993 642.511 758.927 642.501L756.855 642.198C756.787 642.188 756.718 642.21 756.663 642.258C756.608 642.306 756.572 642.377 756.562 642.455C756.553 642.534 756.572 642.613 756.614 642.675C756.656 642.738 756.718 642.779 756.786 642.789L758.858 643.095L758.894 643.1ZM751.989 642.072C752.052 642.072 752.113 642.046 752.16 641.999C752.208 641.952 752.239 641.886 752.248 641.815C752.257 641.736 752.239 641.657 752.197 641.595C752.155 641.532 752.093 641.491 752.024 641.481L749.953 641.175C749.885 641.167 749.817 641.189 749.763 641.238C749.709 641.287 749.674 641.357 749.665 641.435C749.657 641.513 749.675 641.592 749.716 641.655C749.757 641.717 749.818 641.759 749.885 641.771L751.957 642.075L751.989 642.072ZM745.083 641.059C745.15 641.059 745.214 641.03 745.262 640.977C745.311 640.925 745.34 640.854 745.344 640.778C745.349 640.701 745.328 640.626 745.285 640.567C745.243 640.508 745.183 640.47 745.117 640.46L743.045 640.157C742.977 640.146 742.907 640.168 742.853 640.216C742.798 640.265 742.762 640.336 742.753 640.415C742.744 640.494 742.763 640.573 742.805 640.636C742.847 640.699 742.91 640.74 742.978 640.75L745.05 641.056L745.083 641.059ZM738.178 640.043C738.243 640.04 738.304 640.009 738.349 639.957C738.395 639.905 738.423 639.836 738.427 639.762C738.431 639.689 738.412 639.616 738.372 639.558C738.332 639.499 738.275 639.46 738.212 639.447L736.14 639.141C736.072 639.133 736.004 639.155 735.949 639.203C735.894 639.25 735.858 639.32 735.847 639.398C735.839 639.477 735.857 639.556 735.899 639.619C735.941 639.682 736.003 639.723 736.071 639.735L738.143 640.038L738.178 640.043ZM731.273 639.03C731.336 639.03 731.397 639.004 731.444 638.957C731.491 638.91 731.522 638.845 731.531 638.773C731.54 638.695 731.521 638.615 731.479 638.552C731.437 638.489 731.375 638.447 731.307 638.436L729.237 638.133C729.169 638.124 729.1 638.145 729.045 638.193C728.99 638.241 728.954 638.312 728.944 638.39C728.935 638.469 728.954 638.548 728.996 638.611C729.038 638.673 729.1 638.714 729.168 638.724L731.24 639.03H731.273Z" fill="white"/>
<path d="M840.024 613.85L840.154 609.52C840.016 608.989 839.765 608.505 839.423 608.114C839.08 607.723 838.658 607.436 838.195 607.28C834.662 606.093 825.851 603.622 821.137 606.681L819.939 611.567L840.024 613.85Z" fill="url(#paint10_linear_629_5782)"/>
<path d="M829.222 608.085C830.016 608.438 830.872 608.563 831.717 608.448C832.222 608.383 832.693 608.126 833.055 607.717C833.418 607.309 833.651 606.773 833.717 606.195L835.209 592.8L829.271 591.926L827.778 605.314C827.714 605.894 827.822 606.483 828.084 606.985C828.345 607.488 828.746 607.875 829.222 608.085Z" fill="url(#paint11_linear_629_5782)"/>
<path d="M782.505 605.404L782.635 601.075C782.497 600.543 782.245 600.06 781.903 599.669C781.561 599.278 781.139 598.991 780.675 598.835C777.143 597.647 768.332 595.176 763.615 598.236L762.419 603.121L782.505 605.404Z" fill="url(#paint12_linear_629_5782)"/>
<path d="M771.703 599.637C772.496 599.991 773.353 600.115 774.198 600C774.703 599.935 775.173 599.678 775.535 599.269C775.898 598.861 776.13 598.325 776.196 597.748L777.847 582.941L771.909 582.066L770.258 596.863C770.194 597.444 770.302 598.034 770.564 598.536C770.826 599.039 771.227 599.427 771.703 599.637Z" fill="url(#paint13_linear_629_5782)"/>
<path d="M835.446 596.186L771.849 584.359C771.144 584.231 770.5 583.83 770.023 583.221C769.546 582.612 769.267 581.834 769.231 581.017C769.136 578.672 769.213 575.19 770.068 571.696C770.554 569.768 771.616 568.098 773.068 566.981C774.521 565.863 776.27 565.37 778.008 565.587C789.957 567.012 820.285 571.478 836.156 581.528C836.981 582.05 837.686 582.791 838.209 583.691C838.733 584.59 839.06 585.621 839.164 586.696C839.368 588.774 839.352 591.507 838.492 594.152C838.269 594.845 837.843 595.426 837.287 595.798C836.731 596.169 836.08 596.306 835.446 596.186Z" fill="url(#paint14_linear_629_5782)"/>
<path d="M837.014 592.997C837.171 592.996 837.322 592.934 837.444 592.821C837.566 592.709 837.651 592.552 837.686 592.377C838.037 590.488 838.118 588.545 837.926 586.626C837.788 585.507 837.404 584.448 836.809 583.548C836.214 582.648 835.429 581.937 834.528 581.484C831.086 579.751 824.478 576.699 818.895 575.696C818.805 575.679 818.712 575.683 818.623 575.707C818.534 575.731 818.45 575.775 818.376 575.836C818.302 575.898 818.239 575.975 818.19 576.064C818.142 576.154 818.11 576.253 818.095 576.357C818.081 576.46 818.084 576.566 818.105 576.669C818.126 576.771 818.164 576.867 818.217 576.953C818.271 577.038 818.338 577.11 818.416 577.165C818.494 577.221 818.581 577.258 818.671 577.275C824.302 578.288 831.24 581.579 833.961 582.947C834.643 583.29 835.238 583.827 835.689 584.507C836.14 585.188 836.432 585.988 836.539 586.834C836.703 588.561 836.628 590.307 836.315 592.007C836.274 592.214 836.306 592.43 836.404 592.61C836.502 592.79 836.658 592.918 836.837 592.966C836.895 592.984 836.954 592.995 837.014 592.997Z" fill="white"/>
<path d="M869.841 616.536C849.236 613.194 760.108 599.014 733.78 598.795C732.677 598.781 731.597 599.16 730.691 599.882C729.784 600.603 729.096 601.631 728.721 602.822C726.302 610.535 721.161 628.564 719.484 646.924C719.381 648.142 719.645 649.363 720.231 650.385C720.817 651.406 721.69 652.167 722.705 652.539L780.454 674.083L801.476 677.168L866.141 672.052C867.246 671.967 868.295 671.462 869.121 670.615C869.947 669.769 870.503 668.63 870.701 667.38C872.139 658.229 875.181 636.712 874.569 622.483C874.507 621.015 874 619.618 873.137 618.533C872.274 617.447 871.109 616.741 869.841 616.536Z" fill="url(#paint15_linear_629_5782)"/>
<path d="M801.637 671.554L803.719 671.386C803.754 671.384 803.787 671.373 803.818 671.356C803.848 671.339 803.876 671.314 803.898 671.285C803.921 671.255 803.938 671.221 803.949 671.183C803.959 671.146 803.964 671.107 803.961 671.068C803.955 670.989 803.923 670.917 803.871 670.865C803.819 670.813 803.752 670.786 803.684 670.79L801.601 670.954C801.581 670.947 801.561 670.941 801.54 670.939L799.471 670.633C799.403 670.625 799.335 670.648 799.281 670.696C799.227 670.745 799.192 670.816 799.183 670.894C799.175 670.972 799.193 671.05 799.234 671.113C799.275 671.176 799.336 671.218 799.404 671.23L801.475 671.533H801.536C801.568 671.548 801.602 671.555 801.637 671.554ZM808.58 671.003L810.663 670.839C810.697 670.836 810.73 670.826 810.761 670.808C810.791 670.791 810.819 670.767 810.841 670.737C810.864 670.707 810.881 670.673 810.892 670.636C810.903 670.598 810.907 670.559 810.904 670.52C810.899 670.441 810.867 670.368 810.815 670.316C810.763 670.264 810.696 670.237 810.627 670.242L808.542 670.407C808.476 670.416 808.417 670.453 808.374 670.51C808.331 670.567 808.309 670.641 808.311 670.716C808.313 670.791 808.34 670.863 808.386 670.916C808.432 670.97 808.494 671.002 808.559 671.006L808.58 671.003ZM794.613 670.523C794.675 670.523 794.736 670.497 794.783 670.449C794.831 670.402 794.862 670.337 794.87 670.265C794.879 670.187 794.86 670.108 794.818 670.045C794.776 669.982 794.715 669.94 794.646 669.929L792.575 669.625C792.541 669.62 792.506 669.623 792.473 669.634C792.44 669.644 792.409 669.662 792.382 669.686C792.355 669.71 792.332 669.74 792.316 669.774C792.299 669.808 792.288 669.846 792.283 669.885C792.279 669.924 792.282 669.963 792.291 670.001C792.3 670.039 792.315 670.075 792.336 670.106C792.357 670.137 792.383 670.163 792.413 670.182C792.443 670.202 792.476 670.214 792.51 670.219L794.581 670.525L794.613 670.523ZM815.525 670.451H815.523L817.606 670.286C817.675 670.281 817.739 670.244 817.785 670.184C817.831 670.125 817.854 670.047 817.85 669.967C817.843 669.889 817.81 669.816 817.758 669.764C817.706 669.712 817.639 669.685 817.57 669.687L815.487 669.854C815.418 669.857 815.353 669.891 815.306 669.949C815.259 670.007 815.234 670.083 815.236 670.163C815.238 670.242 815.268 670.316 815.319 670.37C815.369 670.424 815.436 670.453 815.505 670.451H815.525ZM822.468 669.9H822.486L824.569 669.736C824.638 669.73 824.703 669.694 824.748 669.634C824.794 669.574 824.817 669.496 824.813 669.417C824.806 669.338 824.774 669.265 824.722 669.213C824.67 669.161 824.602 669.134 824.533 669.137L822.45 669.301C822.381 669.307 822.317 669.344 822.271 669.405C822.226 669.465 822.203 669.543 822.208 669.623C822.213 669.698 822.242 669.768 822.29 669.819C822.337 669.871 822.4 669.9 822.466 669.9H822.468ZM787.705 669.507C787.74 669.509 787.774 669.504 787.806 669.491C787.838 669.478 787.868 669.458 787.894 669.432C787.919 669.406 787.94 669.375 787.955 669.339C787.97 669.304 787.979 669.266 787.981 669.227C787.983 669.187 787.978 669.148 787.967 669.111C787.956 669.074 787.939 669.04 787.916 669.011C787.893 668.981 787.866 668.957 787.835 668.94C787.804 668.923 787.771 668.913 787.737 668.91L785.667 668.604C785.599 668.596 785.531 668.619 785.477 668.668C785.424 668.716 785.389 668.787 785.38 668.865C785.371 668.943 785.389 669.022 785.43 669.084C785.472 669.147 785.532 669.189 785.6 669.201L787.672 669.504L787.705 669.507ZM829.414 669.35H829.432L831.514 669.186C831.581 669.176 831.641 669.137 831.683 669.078C831.725 669.019 831.746 668.943 831.742 668.867C831.737 668.79 831.707 668.719 831.659 668.667C831.61 668.615 831.545 668.586 831.479 668.586L829.396 668.751C829.331 668.76 829.271 668.797 829.228 668.854C829.185 668.911 829.163 668.985 829.165 669.06C829.167 669.135 829.194 669.207 829.24 669.261C829.286 669.314 829.348 669.346 829.414 669.35ZM836.357 668.8H836.375L838.46 668.635C838.529 668.629 838.593 668.592 838.639 668.532C838.684 668.472 838.707 668.393 838.702 668.314C838.695 668.236 838.662 668.164 838.611 668.112C838.559 668.06 838.492 668.033 838.424 668.036L836.341 668.201C836.276 668.21 836.216 668.246 836.173 668.303C836.131 668.36 836.108 668.433 836.11 668.509C836.112 668.584 836.138 668.655 836.184 668.709C836.23 668.763 836.291 668.796 836.357 668.8ZM780.832 668.327C780.894 668.326 780.954 668.3 781.001 668.254C781.048 668.207 781.079 668.143 781.088 668.073C781.098 668.003 781.086 667.931 781.053 667.87C781.021 667.809 780.971 667.763 780.912 667.741L778.928 667C778.864 666.982 778.796 666.992 778.738 667.029C778.68 667.066 778.637 667.127 778.616 667.199C778.596 667.272 778.6 667.35 778.628 667.419C778.656 667.488 778.705 667.542 778.767 667.571L780.751 668.311C780.775 668.321 780.8 668.326 780.825 668.327H780.832ZM843.302 668.25H843.32L845.405 668.083C845.439 668.08 845.473 668.07 845.503 668.052C845.534 668.035 845.561 668.01 845.584 667.981C845.606 667.951 845.624 667.917 845.634 667.879C845.645 667.842 845.65 667.803 845.647 667.764C845.641 667.685 845.608 667.612 845.556 667.56C845.504 667.508 845.436 667.482 845.367 667.486L843.284 667.651C843.219 667.66 843.159 667.696 843.117 667.754C843.074 667.811 843.051 667.884 843.054 667.96C843.056 668.035 843.083 668.106 843.129 668.16C843.175 668.214 843.237 668.246 843.302 668.25ZM850.245 667.699H850.263L852.346 667.532C852.415 667.527 852.48 667.49 852.526 667.431C852.571 667.371 852.595 667.293 852.59 667.213C852.583 667.135 852.551 667.062 852.499 667.011C852.446 666.959 852.379 666.932 852.31 666.936L850.227 667.1C850.162 667.109 850.102 667.146 850.06 667.203C850.017 667.261 849.995 667.334 849.997 667.409C849.999 667.485 850.026 667.556 850.072 667.61C850.118 667.664 850.18 667.696 850.245 667.699ZM857.188 667.149H857.206L859.289 666.985C859.323 666.982 859.357 666.972 859.387 666.954C859.418 666.937 859.445 666.913 859.468 666.883C859.49 666.853 859.508 666.819 859.518 666.782C859.529 666.744 859.534 666.705 859.531 666.666C859.525 666.587 859.493 666.515 859.441 666.463C859.389 666.411 859.322 666.385 859.253 666.388L857.17 666.553C857.105 666.562 857.046 666.598 857.003 666.656C856.96 666.713 856.938 666.786 856.94 666.862C856.942 666.937 856.969 667.009 857.015 667.062C857.061 667.116 857.123 667.148 857.188 667.152V667.149ZM864.132 666.596H864.152L865.89 666.46L866.024 665.609C866.03 665.569 866.029 665.529 866.02 665.49C866.012 665.45 865.997 665.414 865.976 665.381C865.955 665.349 865.929 665.322 865.899 665.301C865.868 665.281 865.835 665.267 865.8 665.262C865.732 665.249 865.663 665.267 865.606 665.312C865.55 665.358 865.511 665.426 865.498 665.504L865.437 665.895L864.093 666C864.025 666.002 863.959 666.036 863.912 666.094C863.865 666.151 863.839 666.228 863.842 666.307C863.844 666.386 863.873 666.461 863.923 666.515C863.973 666.57 864.04 666.599 864.109 666.596H864.132ZM774.207 665.856C774.269 665.855 774.328 665.83 774.375 665.783C774.422 665.737 774.454 665.672 774.463 665.602C774.473 665.532 774.461 665.46 774.428 665.399C774.396 665.338 774.346 665.292 774.287 665.27L772.303 664.529C772.237 664.505 772.165 664.512 772.104 664.548C772.042 664.584 771.995 664.646 771.974 664.722C771.963 664.76 771.959 664.799 771.961 664.838C771.964 664.878 771.973 664.916 771.989 664.951C772.004 664.986 772.026 665.018 772.052 665.043C772.078 665.069 772.109 665.088 772.142 665.1L774.126 665.841C774.151 665.851 774.178 665.857 774.204 665.859L774.207 665.856ZM767.586 663.385C767.649 663.387 767.71 663.363 767.759 663.317C767.808 663.271 767.84 663.206 767.85 663.135C767.86 663.064 767.847 662.99 767.814 662.929C767.781 662.868 767.729 662.822 767.669 662.801L765.682 662.058C765.617 662.038 765.548 662.047 765.489 662.084C765.43 662.12 765.385 662.181 765.364 662.255C765.343 662.328 765.348 662.408 765.376 662.477C765.405 662.547 765.456 662.601 765.519 662.629L767.505 663.37C767.533 663.381 767.563 663.386 767.593 663.385H767.586ZM760.968 660.914C761.03 660.916 761.091 660.891 761.14 660.845C761.188 660.799 761.22 660.734 761.23 660.663C761.239 660.592 761.226 660.519 761.193 660.458C761.16 660.397 761.108 660.351 761.048 660.331L759.062 659.59C759.029 659.578 758.995 659.573 758.961 659.576C758.927 659.579 758.893 659.59 758.863 659.608C758.832 659.626 758.805 659.65 758.783 659.68C758.761 659.71 758.744 659.744 758.733 659.782C758.723 659.819 758.719 659.858 758.721 659.897C758.724 659.937 758.733 659.975 758.749 660.01C758.764 660.045 758.786 660.076 758.812 660.101C758.838 660.127 758.868 660.146 758.9 660.158L760.885 660.901C760.911 660.909 760.938 660.913 760.965 660.914H760.968ZM866.589 660.336C866.651 660.335 866.712 660.309 866.759 660.262C866.806 660.215 866.837 660.15 866.846 660.079C866.954 659.307 867.07 658.536 867.175 657.708C867.183 657.631 867.164 657.554 867.123 657.492C867.082 657.43 867.022 657.389 866.955 657.377C866.889 657.365 866.82 657.383 866.765 657.428C866.71 657.472 866.671 657.539 866.658 657.615C866.549 658.433 866.44 659.222 866.331 659.984C866.326 660.023 866.327 660.063 866.336 660.102C866.344 660.141 866.359 660.177 866.38 660.209C866.401 660.241 866.427 660.267 866.457 660.287C866.487 660.308 866.52 660.32 866.555 660.325C866.566 660.33 866.577 660.334 866.589 660.336ZM754.351 658.446C754.413 658.445 754.473 658.419 754.519 658.372C754.566 658.325 754.597 658.261 754.606 658.191C754.615 658.121 754.603 658.049 754.571 657.988C754.538 657.928 754.489 657.882 754.43 657.86L752.445 657.119C752.412 657.104 752.376 657.096 752.34 657.097C752.304 657.098 752.269 657.108 752.236 657.125C752.204 657.143 752.174 657.168 752.15 657.199C752.127 657.23 752.109 657.266 752.097 657.305C752.086 657.344 752.082 657.386 752.086 657.427C752.089 657.468 752.1 657.508 752.118 657.544C752.135 657.58 752.159 657.612 752.188 657.637C752.216 657.662 752.249 657.68 752.284 657.69L754.271 658.431C754.295 658.44 754.32 658.445 754.345 658.446H754.351ZM747.731 655.975C747.793 655.975 747.853 655.949 747.9 655.902C747.947 655.856 747.978 655.792 747.987 655.721C747.997 655.651 747.985 655.579 747.953 655.518C747.92 655.457 747.87 655.411 747.811 655.389L745.825 654.648C745.791 654.633 745.756 654.625 745.72 654.626C745.684 654.627 745.648 654.637 745.616 654.654C745.583 654.672 745.554 654.697 745.53 654.728C745.506 654.759 745.488 654.795 745.477 654.834C745.466 654.874 745.462 654.915 745.465 654.956C745.469 654.997 745.48 655.037 745.497 655.073C745.515 655.11 745.538 655.141 745.567 655.166C745.596 655.191 745.629 655.209 745.664 655.219L747.65 655.96C747.674 655.969 747.699 655.974 747.724 655.975H747.731ZM741.11 653.504C741.173 653.506 741.234 653.481 741.282 653.435C741.33 653.389 741.362 653.324 741.372 653.253C741.382 653.182 741.369 653.109 741.336 653.048C741.302 652.987 741.251 652.942 741.191 652.921L739.204 652.18C739.139 652.156 739.067 652.162 739.006 652.198C738.944 652.234 738.897 652.296 738.876 652.372C738.855 652.447 738.86 652.529 738.891 652.6C738.923 652.67 738.977 652.724 739.043 652.748L741.03 653.489C741.053 653.503 741.078 653.512 741.103 653.517L741.11 653.504ZM867.63 652.43C867.693 652.429 867.754 652.403 867.801 652.356C867.849 652.309 867.88 652.244 867.89 652.172C867.984 651.391 868.077 650.597 868.17 649.792C868.179 649.713 868.16 649.633 868.118 649.57C868.076 649.507 868.013 649.466 867.945 649.456C867.876 649.446 867.807 649.467 867.752 649.516C867.697 649.564 867.661 649.636 867.652 649.714C867.561 650.517 867.467 651.311 867.372 652.09C867.367 652.129 867.369 652.169 867.378 652.207C867.386 652.246 867.402 652.281 867.423 652.313C867.443 652.344 867.47 652.371 867.499 652.39C867.529 652.41 867.562 652.422 867.596 652.427L867.63 652.43ZM734.49 651.033C734.552 651.035 734.613 651.01 734.662 650.964C734.71 650.918 734.742 650.853 734.751 650.782C734.761 650.711 734.748 650.638 734.715 650.577C734.682 650.516 734.63 650.471 734.57 650.45L732.584 649.709C732.551 649.697 732.517 649.692 732.483 649.696C732.449 649.699 732.415 649.709 732.385 649.727C732.354 649.745 732.327 649.769 732.305 649.799C732.283 649.829 732.266 649.864 732.255 649.901C732.245 649.938 732.241 649.978 732.243 650.017C732.246 650.056 732.255 650.094 732.271 650.129C732.286 650.164 732.308 650.195 732.334 650.22C732.36 650.246 732.39 650.265 732.422 650.278L734.409 651.021C734.433 651.028 734.458 651.032 734.483 651.033H734.49ZM727.869 648.565C727.931 648.565 727.991 648.539 728.038 648.492C728.085 648.446 728.116 648.382 728.126 648.311C728.135 648.241 728.123 648.169 728.091 648.108C728.058 648.047 728.008 648.001 727.95 647.979L725.963 647.238C725.899 647.22 725.831 647.231 725.773 647.268C725.715 647.305 725.672 647.366 725.651 647.438C725.631 647.51 725.635 647.589 725.663 647.658C725.691 647.726 725.74 647.781 725.802 647.809L727.788 648.55C727.812 648.559 727.837 648.564 727.862 648.565H727.869ZM868.506 644.495C868.569 644.495 868.63 644.469 868.677 644.422C868.725 644.375 868.756 644.31 868.766 644.238C868.842 643.446 868.918 642.649 868.99 641.852C868.996 641.811 868.995 641.769 868.987 641.729C868.979 641.688 868.963 641.65 868.942 641.617C868.92 641.584 868.893 641.556 868.861 641.535C868.83 641.515 868.795 641.502 868.759 641.498C868.723 641.493 868.686 641.498 868.652 641.511C868.618 641.523 868.586 641.544 868.559 641.571C868.531 641.599 868.51 641.632 868.494 641.67C868.479 641.708 868.471 641.749 868.47 641.79C868.398 642.587 868.324 643.381 868.246 644.171C868.238 644.249 868.257 644.327 868.299 644.389C868.341 644.451 868.402 644.492 868.47 644.503L868.506 644.495ZM725.094 643.289C725.156 643.289 725.217 643.263 725.264 643.215C725.311 643.168 725.342 643.103 725.351 643.032C725.448 642.242 725.552 641.453 725.661 640.667C725.668 640.59 725.649 640.512 725.608 640.451C725.567 640.389 725.507 640.348 725.441 640.336C725.374 640.324 725.306 640.342 725.25 640.386C725.195 640.431 725.156 640.498 725.143 640.574C725.036 641.364 724.933 642.156 724.834 642.95C724.829 642.989 724.831 643.029 724.84 643.067C724.849 643.105 724.864 643.141 724.885 643.172C724.906 643.203 724.932 643.229 724.961 643.249C724.991 643.269 725.024 643.282 725.058 643.287L725.094 643.289ZM869.158 636.548C869.223 636.547 869.286 636.519 869.335 636.467C869.383 636.416 869.412 636.345 869.417 636.27C869.471 635.466 869.519 634.667 869.561 633.874C869.565 633.833 869.563 633.791 869.553 633.752C869.543 633.712 869.526 633.675 869.503 633.643C869.48 633.611 869.452 633.585 869.42 633.567C869.388 633.548 869.352 633.537 869.317 633.534C869.281 633.532 869.245 633.538 869.211 633.552C869.177 633.566 869.146 633.588 869.12 633.617C869.094 633.645 869.073 633.68 869.059 633.718C869.045 633.756 869.038 633.797 869.039 633.838C868.995 634.626 868.948 635.422 868.898 636.226C868.895 636.266 868.899 636.305 868.91 636.342C868.92 636.38 868.937 636.414 868.959 636.444C868.982 636.474 869.009 636.499 869.039 636.516C869.07 636.534 869.103 636.545 869.137 636.548H869.158ZM726.241 635.422C726.301 635.422 726.36 635.398 726.407 635.354C726.454 635.31 726.486 635.248 726.498 635.18C726.631 634.39 726.768 633.607 726.91 632.833C726.923 632.755 726.91 632.675 726.871 632.609C726.833 632.543 726.774 632.497 726.707 632.481C726.639 632.464 726.569 632.479 726.511 632.522C726.453 632.565 726.412 632.632 726.397 632.709C726.256 633.48 726.117 634.275 725.985 635.067C725.979 635.105 725.979 635.145 725.986 635.183C725.993 635.222 726.006 635.258 726.025 635.291C726.044 635.323 726.069 635.351 726.097 635.373C726.126 635.394 726.158 635.409 726.191 635.416C726.208 635.416 726.225 635.414 726.241 635.409V635.422ZM869.5 628.549C869.569 628.548 869.634 628.517 869.682 628.462C869.731 628.407 869.759 628.332 869.76 628.253C869.769 627.676 869.773 627.104 869.773 626.538V625.849C869.773 625.685 869.655 625.52 869.511 625.551C869.477 625.551 869.443 625.56 869.411 625.575C869.38 625.59 869.351 625.613 869.327 625.641C869.303 625.669 869.284 625.703 869.271 625.739C869.258 625.776 869.251 625.815 869.252 625.855V626.538C869.252 627.099 869.247 627.667 869.238 628.243C869.238 628.283 869.244 628.322 869.256 628.359C869.269 628.395 869.288 628.429 869.312 628.457C869.336 628.486 869.364 628.508 869.396 628.524C869.427 628.54 869.461 628.548 869.496 628.549H869.5ZM727.726 627.598C727.784 627.598 727.841 627.575 727.887 627.533C727.933 627.491 727.965 627.432 727.979 627.366C728.142 626.595 728.31 625.806 728.478 625.052C728.487 625.014 728.488 624.974 728.483 624.935C728.478 624.896 728.467 624.858 728.449 624.824C728.431 624.791 728.408 624.761 728.38 624.737C728.353 624.714 728.321 624.697 728.288 624.687C728.254 624.678 728.22 624.676 728.186 624.681C728.152 624.687 728.12 624.701 728.09 624.721C728.061 624.741 728.035 624.768 728.015 624.8C727.995 624.832 727.98 624.868 727.972 624.906C727.802 625.677 727.636 626.448 727.472 627.238C727.464 627.276 727.463 627.316 727.468 627.355C727.473 627.394 727.485 627.432 727.503 627.465C727.521 627.499 727.544 627.528 727.572 627.551C727.6 627.575 727.632 627.591 727.665 627.6L727.726 627.598ZM867.449 622.407C867.513 622.403 867.574 622.373 867.62 622.322C867.667 622.27 867.694 622.201 867.699 622.127C867.703 622.053 867.684 621.98 867.644 621.921C867.605 621.863 867.548 621.823 867.484 621.81L865.413 621.478C865.344 621.468 865.275 621.488 865.22 621.536C865.165 621.584 865.129 621.655 865.119 621.733C865.11 621.811 865.128 621.891 865.169 621.954C865.211 622.017 865.273 622.059 865.341 622.07L867.411 622.404L867.449 622.407ZM860.548 621.304C860.615 621.304 860.679 621.275 860.728 621.223C860.777 621.171 860.807 621.1 860.811 621.023C860.816 620.947 860.795 620.872 860.752 620.812C860.71 620.753 860.65 620.715 860.584 620.705L858.514 620.378C858.446 620.368 858.377 620.39 858.322 620.438C858.267 620.486 858.231 620.557 858.221 620.635C858.216 620.674 858.218 620.714 858.226 620.753C858.235 620.791 858.25 620.827 858.271 620.859C858.292 620.89 858.318 620.917 858.348 620.937C858.378 620.957 858.411 620.969 858.445 620.975L860.514 621.301L860.548 621.304ZM853.65 620.211C853.714 620.208 853.775 620.177 853.821 620.126C853.868 620.074 853.896 620.005 853.9 619.931C853.904 619.857 853.885 619.784 853.845 619.726C853.806 619.667 853.749 619.628 853.685 619.614L851.614 619.29C851.545 619.28 851.476 619.301 851.421 619.35C851.366 619.398 851.33 619.469 851.32 619.548C851.316 619.587 851.318 619.626 851.326 619.664C851.335 619.703 851.35 619.738 851.371 619.77C851.392 619.801 851.418 619.827 851.448 619.847C851.477 619.867 851.51 619.879 851.544 619.884L853.614 620.211H853.65ZM729.475 619.856C729.532 619.856 729.587 619.835 729.632 619.795C729.678 619.756 729.71 619.7 729.726 619.638C729.918 618.851 730.109 618.079 730.299 617.324C730.311 617.285 730.317 617.244 730.314 617.203C730.312 617.162 730.303 617.122 730.287 617.085C730.271 617.048 730.248 617.016 730.221 616.989C730.193 616.963 730.161 616.943 730.127 616.932C730.093 616.92 730.057 616.917 730.021 616.922C729.985 616.927 729.951 616.94 729.92 616.961C729.889 616.982 729.862 617.009 729.841 617.043C729.82 617.076 729.805 617.114 729.797 617.154C729.607 617.905 729.414 618.676 729.224 619.468C729.214 619.505 729.211 619.545 729.215 619.584C729.219 619.623 729.23 619.661 729.247 619.695C729.263 619.729 729.286 619.759 729.312 619.783C729.339 619.807 729.37 619.825 729.403 619.836C729.426 619.848 729.45 619.856 729.475 619.861V619.856ZM846.749 619.131C846.813 619.128 846.875 619.098 846.921 619.046C846.967 618.994 846.995 618.925 846.999 618.851C847.004 618.777 846.984 618.704 846.945 618.646C846.905 618.587 846.848 618.548 846.785 618.535L844.713 618.213C844.678 618.204 844.641 618.203 844.605 618.211C844.569 618.219 844.536 618.236 844.506 618.26C844.476 618.283 844.451 618.314 844.432 618.35C844.413 618.385 844.4 618.425 844.396 618.467C844.391 618.508 844.393 618.55 844.404 618.59C844.414 618.63 844.431 618.668 844.454 618.7C844.478 618.732 844.507 618.758 844.539 618.776C844.572 618.795 844.607 618.805 844.644 618.807L846.713 619.128L846.749 619.131ZM839.848 618.064C839.913 618.06 839.974 618.03 840.019 617.978C840.065 617.926 840.093 617.857 840.097 617.783C840.101 617.709 840.082 617.636 840.042 617.578C840.002 617.52 839.945 617.481 839.882 617.468L837.813 617.149C837.744 617.138 837.675 617.16 837.62 617.208C837.565 617.256 837.529 617.327 837.519 617.406C837.514 617.445 837.516 617.485 837.525 617.523C837.534 617.561 837.549 617.597 837.57 617.628C837.591 617.659 837.617 617.685 837.647 617.705C837.676 617.725 837.709 617.738 837.743 617.743L839.813 618.061L839.848 618.064ZM832.946 617.01C833.01 617.006 833.071 616.976 833.117 616.924C833.162 616.872 833.19 616.803 833.194 616.729C833.198 616.655 833.179 616.582 833.139 616.524C833.099 616.466 833.043 616.426 832.979 616.413L830.907 616.1C830.873 616.094 830.839 616.096 830.805 616.106C830.772 616.116 830.741 616.133 830.714 616.157C830.686 616.181 830.663 616.211 830.646 616.245C830.629 616.28 830.618 616.318 830.614 616.357C830.606 616.435 830.625 616.515 830.666 616.578C830.708 616.64 830.77 616.682 830.838 616.694L832.91 617.007L832.946 617.01ZM826.041 615.981C826.105 615.978 826.166 615.947 826.212 615.895C826.257 615.843 826.285 615.774 826.289 615.7C826.293 615.627 826.274 615.554 826.234 615.496C826.194 615.437 826.138 615.398 826.074 615.385L824.002 615.074C823.934 615.066 823.866 615.088 823.813 615.137C823.759 615.186 823.724 615.257 823.715 615.334C823.706 615.412 823.725 615.491 823.766 615.554C823.807 615.617 823.868 615.658 823.935 615.67L826.007 615.979L826.041 615.981ZM819.135 614.953C819.202 614.953 819.266 614.924 819.314 614.871C819.363 614.819 819.392 614.748 819.396 614.671C819.401 614.595 819.38 614.52 819.337 614.461C819.295 614.402 819.235 614.364 819.169 614.354L817.102 614.051C817.031 614.05 816.962 614.08 816.91 614.136C816.858 614.191 816.826 614.267 816.822 614.349C816.82 614.387 816.825 614.425 816.836 614.461C816.847 614.496 816.865 614.529 816.888 614.557C816.91 614.585 816.937 614.607 816.968 614.623C816.998 614.638 817.031 614.646 817.064 614.647L819.106 614.95L819.135 614.953ZM812.23 613.943C812.297 613.942 812.36 613.912 812.408 613.86C812.456 613.807 812.485 613.736 812.489 613.66C812.493 613.584 812.472 613.509 812.43 613.45C812.388 613.391 812.327 613.353 812.262 613.343L810.19 613.045C810.121 613.035 810.052 613.057 809.998 613.106C809.943 613.155 809.907 613.226 809.899 613.305C809.89 613.384 809.909 613.463 809.952 613.526C809.994 613.588 810.056 613.629 810.125 613.639L812.197 613.94L812.23 613.943ZM805.323 612.947C805.357 612.95 805.391 612.944 805.424 612.932C805.456 612.919 805.486 612.899 805.511 612.873C805.537 612.847 805.558 612.815 805.573 612.78C805.588 612.745 805.597 612.706 805.599 612.667C805.601 612.628 805.596 612.589 805.585 612.552C805.574 612.515 805.556 612.48 805.534 612.451C805.511 612.422 805.483 612.398 805.453 612.381C805.422 612.363 805.389 612.353 805.354 612.351L803.283 612.055C803.215 612.046 803.146 612.068 803.092 612.116C803.038 612.164 803.002 612.235 802.992 612.312C802.983 612.391 803.001 612.47 803.043 612.533C803.085 612.595 803.147 612.636 803.216 612.647L805.29 612.942L805.323 612.947ZM731.473 612.207C731.528 612.207 731.582 612.186 731.627 612.148C731.672 612.11 731.705 612.057 731.721 611.996C731.942 611.197 732.157 610.438 732.366 609.718C732.388 609.643 732.383 609.561 732.352 609.49C732.321 609.419 732.266 609.365 732.201 609.34C732.135 609.315 732.063 609.321 732.002 609.357C731.94 609.393 731.893 609.455 731.871 609.53C731.663 610.25 731.446 611.014 731.224 611.816C731.214 611.854 731.21 611.893 731.213 611.932C731.216 611.972 731.225 612.01 731.241 612.045C731.257 612.079 731.279 612.11 731.305 612.136C731.331 612.161 731.361 612.18 731.394 612.192C731.42 612.2 731.446 612.203 731.473 612.202V612.207ZM798.414 611.97C798.448 611.973 798.482 611.967 798.514 611.955C798.546 611.942 798.576 611.922 798.602 611.896C798.627 611.87 798.648 611.838 798.663 611.803C798.678 611.768 798.687 611.729 798.689 611.69C798.691 611.651 798.686 611.612 798.675 611.575C798.664 611.538 798.647 611.503 798.624 611.474C798.601 611.445 798.574 611.421 798.543 611.404C798.512 611.386 798.479 611.376 798.445 611.374L796.371 611.086C796.337 611.081 796.302 611.084 796.27 611.095C796.237 611.105 796.206 611.123 796.179 611.148C796.152 611.172 796.129 611.202 796.113 611.236C796.096 611.27 796.085 611.308 796.081 611.347C796.077 611.386 796.079 611.426 796.089 611.463C796.098 611.501 796.113 611.537 796.134 611.568C796.156 611.598 796.182 611.624 796.212 611.644C796.241 611.663 796.274 611.675 796.308 611.68L798.382 611.968L798.414 611.97ZM791.502 611.019C791.568 611.018 791.632 610.989 791.68 610.936C791.728 610.884 791.757 610.812 791.761 610.736C791.765 610.66 791.743 610.586 791.701 610.527C791.659 610.468 791.599 610.43 791.533 610.42L789.457 610.14C789.423 610.135 789.389 610.137 789.356 610.148C789.323 610.158 789.293 610.175 789.266 610.199C789.239 610.223 789.216 610.253 789.2 610.287C789.183 610.321 789.172 610.358 789.168 610.397C789.16 610.475 789.178 610.554 789.22 610.617C789.262 610.679 789.324 610.72 789.392 610.731L791.466 611.011L791.502 611.019ZM784.588 610.088C784.657 610.093 784.724 610.066 784.776 610.013C784.827 609.96 784.858 609.886 784.862 609.807C784.866 609.728 784.842 609.65 784.796 609.591C784.75 609.532 784.686 609.496 784.617 609.492L782.541 609.217C782.473 609.209 782.405 609.232 782.352 609.28C782.298 609.327 782.262 609.397 782.252 609.474C782.244 609.552 782.263 609.63 782.305 609.692C782.347 609.754 782.408 609.795 782.476 609.806L784.55 610.078L784.588 610.088ZM777.669 609.189C777.732 609.188 777.793 609.162 777.84 609.115C777.888 609.068 777.919 609.003 777.929 608.931C777.937 608.854 777.917 608.776 777.876 608.714C777.834 608.653 777.772 608.613 777.705 608.602L775.629 608.345C775.593 608.338 775.557 608.339 775.522 608.348C775.487 608.358 775.454 608.375 775.425 608.4C775.397 608.424 775.373 608.456 775.355 608.491C775.337 608.527 775.325 608.567 775.321 608.608C775.317 608.649 775.321 608.69 775.331 608.73C775.342 608.769 775.359 608.805 775.383 608.837C775.406 608.868 775.435 608.894 775.467 608.912C775.5 608.93 775.535 608.94 775.571 608.942L777.647 609.199L777.669 609.189ZM770.748 608.322C770.817 608.326 770.885 608.299 770.936 608.246C770.987 608.193 771.018 608.118 771.022 608.039C771.025 607.96 771.001 607.883 770.955 607.824C770.909 607.765 770.844 607.73 770.775 607.726L768.699 607.468C768.631 607.461 768.564 607.483 768.51 607.531C768.456 607.579 768.421 607.649 768.41 607.726C768.403 607.803 768.423 607.881 768.464 607.942C768.506 608.003 768.567 608.044 768.634 608.055L770.71 608.312L770.748 608.322ZM763.823 607.499C763.889 607.497 763.952 607.467 763.999 607.414C764.047 607.361 764.075 607.29 764.078 607.214C764.082 607.138 764.06 607.064 764.018 607.006C763.975 606.948 763.916 606.91 763.85 606.9L761.769 606.664C761.702 606.657 761.636 606.68 761.583 606.728C761.53 606.775 761.495 606.844 761.485 606.921C761.479 607 761.5 607.079 761.544 607.14C761.588 607.201 761.651 607.24 761.72 607.247L763.796 607.484L763.823 607.499ZM756.894 606.728C756.959 606.726 757.022 606.695 757.069 606.642C757.116 606.588 757.144 606.517 757.147 606.441C757.15 606.366 757.128 606.292 757.086 606.234C757.043 606.176 756.984 606.138 756.918 606.129L754.837 605.91C754.769 605.905 754.702 605.931 754.65 605.982C754.597 606.033 754.565 606.105 754.559 606.183C754.552 606.262 754.573 606.34 754.617 606.401C754.66 606.462 754.722 606.501 754.79 606.509L756.869 606.725L756.894 606.728ZM749.95 606.031C750.016 606.031 750.079 606.003 750.127 605.952C750.175 605.901 750.205 605.831 750.21 605.756C750.215 605.677 750.193 605.598 750.148 605.538C750.103 605.477 750.039 605.439 749.971 605.432L747.888 605.244C747.853 605.241 747.819 605.246 747.787 605.258C747.754 605.27 747.724 605.29 747.698 605.315C747.672 605.341 747.651 605.372 747.635 605.407C747.62 605.442 747.61 605.48 747.608 605.52C747.605 605.559 747.609 605.598 747.62 605.635C747.63 605.673 747.647 605.707 747.669 605.737C747.692 605.767 747.719 605.792 747.749 605.809C747.78 605.827 747.813 605.838 747.847 605.841C748.519 605.9 749.218 605.964 749.928 606.031H749.95ZM743.007 605.445C743.076 605.447 743.143 605.418 743.193 605.364C743.243 605.31 743.273 605.235 743.275 605.156C743.277 605.077 743.252 605 743.204 604.942C743.157 604.885 743.092 604.851 743.023 604.848C742.303 604.794 741.607 604.746 740.935 604.705C740.901 604.702 740.867 604.708 740.835 604.721C740.803 604.734 740.773 604.754 740.747 604.78C740.722 604.806 740.701 604.838 740.686 604.873C740.672 604.909 740.663 604.947 740.661 604.986C740.659 605.025 740.664 605.064 740.675 605.101C740.687 605.138 740.704 605.173 740.727 605.202C740.75 605.231 740.777 605.255 740.808 605.272C740.839 605.289 740.872 605.299 740.906 605.301C741.578 605.346 742.273 605.394 742.989 605.445H743.007ZM736.053 605.054C736.118 605.047 736.178 605.013 736.222 604.957C736.266 604.902 736.291 604.83 736.291 604.755C736.291 604.68 736.266 604.607 736.222 604.552C736.178 604.497 736.118 604.462 736.053 604.455C735.311 604.429 734.613 604.414 733.961 604.406C733.896 604.413 733.836 604.448 733.792 604.503C733.748 604.559 733.723 604.631 733.723 604.706C733.723 604.781 733.748 604.853 733.792 604.908C733.836 604.964 733.896 604.998 733.961 605.005C734.612 605.005 735.306 605.022 736.044 605.054H736.053Z" fill="white"/>
<path d="M781.305 684.514L799.722 687.222C800.886 687.394 802.065 687.07 803.036 686.312C804.006 685.554 804.701 684.414 804.99 683.108L809.384 663.076C809.548 662.322 809.571 661.536 809.451 660.771C809.33 660.006 809.07 659.278 808.688 658.637C808.305 657.995 807.808 657.454 807.229 657.05C806.651 656.645 806.004 656.386 805.332 656.289L783.206 653.039C782.546 652.94 781.876 652.999 781.238 653.214C780.599 653.428 780.007 653.793 779.498 654.285C778.989 654.777 778.575 655.386 778.282 656.071C777.989 656.757 777.824 657.505 777.797 658.268L777.11 678.837C777.063 680.215 777.468 681.562 778.244 682.613C779.021 683.664 780.113 684.343 781.305 684.514Z" fill="url(#paint16_linear_629_5782)"/>
<path opacity="0.32" d="M783.986 681.107L798.004 683.164C798.89 683.296 799.787 683.051 800.525 682.476C801.264 681.9 801.794 681.033 802.013 680.04L805.36 664.793C805.484 664.219 805.501 663.621 805.41 663.038C805.318 662.456 805.12 661.902 804.828 661.414C804.537 660.926 804.158 660.514 803.718 660.206C803.277 659.898 802.785 659.701 802.273 659.628L785.435 657.155C784.933 657.079 784.423 657.125 783.937 657.288C783.451 657.451 783 657.729 782.613 658.103C782.226 658.478 781.91 658.941 781.688 659.463C781.465 659.984 781.339 660.554 781.318 661.135L780.794 676.795C780.76 677.842 781.069 678.865 781.66 679.663C782.251 680.462 783.081 680.977 783.986 681.107Z" fill="url(#paint17_linear_629_5782)"/>
<path d="M794.941 518.976C790.598 539.581 790.481 559.741 791.133 567.081C791.253 568.421 791.78 569.669 792.622 570.606C793.465 571.543 794.568 572.108 795.738 572.203C798.484 572.424 802.233 572.717 805.564 572.936C809.235 573.177 813.309 570.514 816.034 568.287C817.425 567.151 819.226 568.92 818.449 570.665C817.105 573.674 814.785 576.042 812.475 578.055C811.087 579.266 806.473 581.415 806.795 583.801C806.896 584.552 807.293 585.208 807.716 585.794C810.28 589.324 814.16 591.211 817.99 592.561C818.471 592.731 818.977 592.911 819.316 593.332C819.412 596.161 811.795 599.333 809.828 600.082C806.884 601.232 803.761 601.649 800.665 601.305C793.001 600.377 785.923 594.304 781.796 586.984C770.758 567.408 765.054 543.772 762.969 525.691C773.244 513.916 788.743 516.903 794.941 518.976Z" fill="url(#paint18_linear_629_5782)"/>
<path d="M762.978 527.569C754.791 456.572 802.45 401.982 802.45 401.982L830.808 439.932C809.279 470.737 799.046 498.965 794.37 521.136C788.17 519.053 773.244 515.788 762.978 527.569Z" fill="#FE5430"/>
<path d="M795.046 520.785C795.44 520.784 795.822 520.632 796.131 520.352C796.441 520.073 796.66 519.682 796.752 519.242C802.515 491.911 814.67 464.855 832.852 438.825C833.001 438.619 833.112 438.382 833.179 438.126C833.247 437.87 833.269 437.602 833.246 437.336C833.222 437.07 833.153 436.812 833.041 436.578C832.93 436.343 832.779 436.136 832.598 435.969C832.416 435.802 832.207 435.677 831.984 435.604C831.76 435.53 831.526 435.508 831.294 435.539C831.063 435.57 830.84 435.654 830.637 435.785C830.434 435.916 830.256 436.092 830.113 436.303C811.597 462.799 799.223 490.384 793.339 518.294C793.276 518.59 793.273 518.899 793.33 519.197C793.386 519.496 793.501 519.775 793.665 520.015C793.83 520.255 794.039 520.449 794.278 520.582C794.518 520.716 794.78 520.785 795.046 520.785Z" fill="url(#paint19_linear_629_5782)"/>
<path d="M1179.09 941.664C1179.08 941.311 1179.11 940.959 1179.18 940.615C1183.74 919.859 1206.38 906.934 1206.38 906.934L1215.35 907.741C1220.5 926.034 1219.84 937.255 1219.01 942.253C1218.99 942.392 1218.95 942.526 1218.92 942.662C1211.52 943.418 1196.29 943.914 1179.09 941.664Z" fill="#401F00"/>
<path d="M1218.92 942.655C1218.52 944.324 1217.45 945.622 1216.07 945.954C1205.55 948.494 1188.82 946.45 1181.81 945.396C1180.26 945.165 1179.12 943.519 1179.1 941.66C1196.29 943.91 1211.52 943.414 1218.92 942.655Z" fill="url(#paint20_linear_629_5782)"/>
<path d="M1218.95 892.4L1215.14 913.394C1214.87 914.936 1213.84 916.085 1212.59 916.222C1210.63 916.449 1208.66 916.413 1206.7 916.114C1204.74 915.785 1203.38 913.496 1203.73 911.044L1206.37 892.403L1218.95 892.4Z" fill="url(#paint21_linear_629_5782)"/>
<path d="M1140.24 942.392C1150.15 942.076 1155.27 940.737 1157.92 939.492C1157.92 940.623 1157.92 941.775 1157.89 942.966C1157.85 944.251 1157.03 945.257 1156.02 945.249L1101.63 944.848C1099.9 944.848 1098.88 942.534 1099.64 940.695C1106.77 941.372 1124.93 942.886 1140.24 942.392Z" fill="url(#paint22_linear_629_5782)"/>
<path d="M1099.63 940.693C1099.7 940.528 1099.77 940.371 1099.86 940.223C1104.66 932.509 1116.9 917.175 1141.07 910.521L1152.67 910.1C1152.67 910.1 1157.82 920.405 1157.93 939.49C1155.28 940.734 1150.15 942.074 1140.25 942.39C1124.93 942.884 1106.77 941.37 1099.63 940.693Z" fill="#401F00"/>
<path d="M1155.33 890.544C1155.14 891.523 1152.73 906.461 1151.8 912.254C1151.57 913.63 1150.64 914.64 1149.53 914.712C1147.54 914.841 1144.34 914.853 1141.58 913.997C1140.1 913.532 1139.1 911.794 1139.21 909.863L1140.5 886.234L1155.33 890.544Z" fill="url(#paint23_linear_629_5782)"/>
<path d="M1164.11 614.726C1164.11 614.726 1148.16 740.571 1136.65 890.316C1136.42 893.105 1138.37 895.533 1140.76 896.108C1144.27 896.959 1149.44 897.97 1153.72 897.831C1154.83 897.789 1155.89 897.307 1156.73 896.468C1157.56 895.628 1158.12 894.483 1158.3 893.226C1162.23 866.834 1190.21 725.127 1197.56 693.936C1197.56 693.936 1205.99 826.418 1203.3 895.149C1203.26 895.974 1203.5 896.783 1203.97 897.413C1204.43 898.043 1205.09 898.447 1205.8 898.543C1209.26 898.969 1212.75 898.958 1216.21 898.51C1217.05 898.413 1217.84 897.996 1218.46 897.325C1219.07 896.655 1219.47 895.769 1219.59 894.807C1222.39 872.462 1238.47 739.448 1237.78 643.63C1237.75 638.231 1232.26 593.83 1232.26 593.83L1164.11 614.726Z" fill="#747487"/>
<path d="M1234.66 621.988C1235.46 621.656 1236.17 621.069 1236.69 620.295C1237.22 619.521 1237.54 618.593 1237.62 617.617C1239.74 593.989 1250.01 447.487 1185.17 387.222C1185.17 387.222 1181.45 376.053 1150.88 403.51C1120.31 430.967 1136.68 459.748 1143.99 499.444C1152.85 547.477 1168.39 586.741 1161.51 616.301C1161.28 617.285 1161.37 618.334 1161.78 619.243C1162.18 620.151 1162.87 620.854 1163.7 621.214C1187.45 631.265 1211.1 631.599 1234.66 621.988Z" fill="#070D2D"/>
<path d="M1159.87 343.328C1159.89 345.413 1185.78 387.636 1185.78 387.636C1185.78 387.636 1181.14 398.144 1158.95 406.675L1139.79 361.467L1159.87 343.328Z" fill="url(#paint24_linear_629_5782)"/>
<path d="M1139.48 319.129C1139.48 319.129 1130.27 343.429 1129.65 356.181C1129.03 368.934 1126.63 377.21 1139.48 379.779C1152.32 382.348 1163.15 374.999 1169.01 362.295C1169.01 362.295 1178.19 342.721 1176.13 334.705C1174.08 326.688 1139.48 319.129 1139.48 319.129Z" fill="url(#paint25_linear_629_5782)"/>
<path d="M1164.62 353.164L1163.89 352.794C1163.67 352.683 1163.47 352.521 1163.31 352.319C1163.14 352.117 1163.01 351.878 1162.93 351.618C1162.85 351.357 1162.82 351.081 1162.84 350.805C1162.85 350.529 1162.92 350.26 1163.03 350.014C1164.84 345.996 1168.37 336.789 1163.81 334.642C1157.93 331.873 1134.64 326.414 1129.62 316.937C1124.79 307.82 1129.07 296.052 1135.5 292.704C1135.7 292.596 1135.94 292.58 1136.15 292.66C1136.36 292.74 1136.55 292.91 1136.66 293.136L1137.19 294.301C1137.27 294.477 1137.4 294.622 1137.55 294.716C1137.7 294.809 1137.88 294.849 1138.05 294.828C1138.22 294.808 1138.39 294.729 1138.52 294.601C1138.66 294.473 1138.75 294.302 1138.8 294.111C1138.85 293.926 1138.94 293.761 1139.07 293.636C1139.19 293.51 1139.35 293.428 1139.51 293.401C1139.68 293.374 1139.85 293.402 1140 293.483C1140.15 293.563 1140.28 293.692 1140.37 293.854C1141.91 296.682 1146.08 301.292 1157.23 303.655C1173.08 307.013 1183.56 314.386 1183.82 326.944C1183.82 327.122 1183.87 327.296 1183.95 327.448C1184.03 327.599 1184.15 327.724 1184.28 327.808C1184.42 327.892 1184.57 327.933 1184.73 327.927C1184.88 327.92 1185.03 327.867 1185.17 327.772C1186.33 326.952 1188.21 326.568 1190.71 328.985C1195.06 333.184 1193.28 344.083 1183.74 353.046C1183.63 353.142 1183.55 353.266 1183.49 353.407C1183.43 353.548 1183.4 353.703 1183.41 353.86C1183.41 354.016 1183.45 354.169 1183.51 354.306C1183.58 354.444 1183.67 354.561 1183.78 354.65C1185.51 355.936 1188.09 359.021 1181.41 363.119C1174.5 367.359 1169.34 367.012 1167.35 366.634C1167.23 366.612 1167.12 366.563 1167.02 366.489C1166.92 366.416 1166.84 366.32 1166.77 366.207C1166.71 366.094 1166.66 365.967 1166.64 365.834C1166.62 365.7 1166.62 365.563 1166.65 365.431L1168.77 354.375C1168.79 354.229 1168.79 354.077 1168.76 353.931C1168.74 353.785 1168.68 353.648 1168.6 353.531C1168.51 353.414 1168.41 353.319 1168.29 353.255C1168.17 353.19 1168.05 353.156 1167.92 353.156L1164.62 353.164Z" fill="url(#paint26_linear_629_5782)"/>
<path d="M1164.22 355.496C1164.22 355.496 1167.74 339.974 1173.8 344.327C1179.86 348.68 1170.66 361.718 1165.78 362.296L1164.22 355.496Z" fill="url(#paint27_linear_629_5782)"/>
<path d="M1141.3 413.551L1139.05 471.045C1134.42 473.039 1129.69 474.703 1124.9 476.027C1122.09 464.817 1122.9 459.318 1117.84 449.088C1129.82 438.771 1141.3 413.551 1141.3 413.551Z" fill="#070D2D"/>
<path d="M1138.13 567.615C1126.21 525.64 1135.06 503.506 1148.71 489.694C1143.85 479.773 1137.01 467.072 1130.32 459.015C1082.91 520.391 1130.94 572.735 1130.94 572.735L1138.13 567.615Z" fill="url(#paint28_linear_629_5782)"/>
<path d="M1138.54 569.456C1138.54 569.456 1142.86 568.385 1146.85 572.997C1150.84 577.608 1153.8 582.68 1158.34 582.18C1162.88 581.681 1161.61 586.206 1161.61 586.206L1148.57 586.833L1138.54 569.456Z" fill="url(#paint29_linear_629_5782)"/>
<path d="M1130.28 570.59C1130.28 570.59 1136.9 563.816 1141.33 569.013C1145.77 574.209 1152.96 590.688 1156.75 591.742C1160.54 592.796 1166.29 592.657 1167.57 595.35L1161.12 597.505C1161.12 597.505 1173.55 598.72 1172.89 603.546L1152.36 601.288C1152.36 601.288 1132.28 581.562 1130.28 570.59Z" fill="url(#paint30_linear_629_5782)"/>
<path d="M1170.05 488.3C1170.05 488.3 1120.92 535.534 1067.87 514.924C1066.25 514.283 1064.53 514.028 1062.81 514.177C1061.1 514.325 1059.43 514.872 1057.91 515.785L1042.66 525.041C1039.58 526.911 1035.99 527.351 1032.63 526.273C1029.27 525.194 1026.4 522.678 1024.61 519.243C1022.49 515.173 1020.69 510.524 1020.33 506.074L1050.17 492.19L1047.97 487.991C1047.97 487.991 1062.54 486.572 1066.35 498.561C1066.35 498.561 1094.11 511.813 1140.91 452.713C1140.91 452.718 1162.15 473.449 1170.05 488.3Z" fill="url(#paint31_linear_629_5782)"/>
<path d="M1172.7 487.805C1172.86 487.805 1173.03 487.746 1173.17 487.637C1193.85 471.594 1203.59 445.695 1203.68 445.435C1203.76 445.201 1203.75 444.942 1203.67 444.712C1203.58 444.482 1203.42 444.299 1203.22 444.202C1203.02 444.104 1202.8 444.1 1202.59 444.189C1202.39 444.279 1202.22 444.455 1202.13 444.682C1202.04 444.939 1192.49 470.321 1172.23 486.038C1172.08 486.154 1171.97 486.322 1171.91 486.517C1171.85 486.711 1171.84 486.923 1171.89 487.12C1171.95 487.318 1172.05 487.491 1172.2 487.614C1172.34 487.737 1172.52 487.804 1172.7 487.805Z" fill="#070D2D"/>
<path d="M1141.88 451.914C1142.02 451.915 1142.16 451.874 1142.29 451.796C1142.41 451.719 1142.52 451.606 1142.59 451.469C1142.65 451.359 1148.97 440.066 1161.01 415.322C1164.71 407.714 1169.58 402.896 1175.47 401.004C1185.23 397.874 1194.63 403.878 1194.73 403.94C1194.92 404.051 1195.15 404.073 1195.35 404.001C1195.56 403.929 1195.74 403.769 1195.84 403.554C1195.95 403.338 1195.98 403.084 1195.93 402.843C1195.88 402.602 1195.74 402.394 1195.56 402.261C1195.15 402.004 1185.48 395.784 1175.04 399.139C1168.69 401.173 1163.48 406.3 1159.55 414.381C1147.54 439.064 1141.24 450.315 1141.18 450.426C1141.06 450.641 1141.02 450.902 1141.07 451.152C1141.11 451.402 1141.25 451.621 1141.43 451.76C1141.57 451.86 1141.72 451.913 1141.88 451.914Z" fill="#070D2D"/>
<g opacity="0.2">
<path fill-rule="evenodd" clip-rule="evenodd" d="M1028.69 804.642C1028.85 816.19 1037.16 825.371 1047.26 825.147L1153.54 822.796C1262.38 820.388 1348.92 716.501 1347.22 591.192C1345.52 465.883 1256.22 365.886 1147.39 368.294L1041.11 370.645C1031.01 370.868 948.597 401.182 948.753 412.73C948.91 424.279 995.974 535.344 1041.68 412.465L1041.39 391.555L968.721 563.213C1067.26 561.033 873.893 366.126 875.436 480.105C876.98 594.084 1018.34 821.283 919.798 823.463L1028.68 814.626L1046.7 783.327C1036.6 783.55 1028.54 793.093 1028.69 804.642ZM1046.24 749.816L1036.22 750.038C1026.12 750.262 1017.8 741.081 1017.65 729.533C1017.49 717.984 1025.55 708.441 1035.65 708.218L999.799 783.461L1045.96 728.906L1046.24 749.816ZM930.417 501.889L1042.13 445.976L1032.1 446.197C1022 446.421 1013.94 455.964 1014.1 467.512C1014.25 479.06 1022.57 488.241 1032.67 488.018L1005.06 477.384L930.417 501.889Z" fill="#FE5430" stroke="#FE5430" stroke-width="15.9776" stroke-miterlimit="10" stroke-linecap="round" stroke-linejoin="round"/>
<path fill-rule="evenodd" clip-rule="evenodd" d="M1042.09 411.518L1041.81 390.592C1038.6 387.056 1035.12 383.526 1031.63 380.325C986.3 335.097 1019.04 604.632 953.696 606.078C812.984 609.193 805.291 565.777 736.095 639.166C836.009 562.762 812.984 609.193 953.696 606.078C1019.04 604.632 993.426 861.509 1037.51 814.303C1040.9 810.949 1044.29 807.267 1047.4 803.592L1047.11 782.666C1051.8 782.562 1056.51 784.502 1060.13 788.509C1067.39 796.523 1067.57 809.772 1060.53 818.103C1057.15 822.114 1053.46 826.132 1049.72 829.84C1002.46 880.319 939.026 911.843 869.141 913.389C718.324 916.727 594.179 779.608 591.844 607.112C589.509 434.616 709.868 292.085 860.685 288.748C930.57 287.201 994.816 315.899 1043.42 364.256C1047.25 367.797 1051.05 371.649 1054.54 375.508C1061.8 383.522 1061.98 396.772 1054.94 405.102C1051.43 409.268 1046.77 411.414 1042.09 411.518Z" fill="#FE5430"/>
<path d="M953.696 606.078C1019.04 604.632 986.3 335.097 1031.63 380.325C1035.12 383.526 1038.6 387.056 1041.81 390.592L1042.09 411.518C1046.77 411.414 1051.43 409.268 1054.94 405.102C1061.98 396.772 1061.8 383.522 1054.54 375.508C1051.05 371.649 1047.25 367.797 1043.42 364.256C994.816 315.899 930.57 287.201 860.685 288.748C709.868 292.085 589.509 434.616 591.844 607.112C594.179 779.608 718.324 916.727 869.141 913.389C939.026 911.843 1002.46 880.319 1049.72 829.84C1053.46 826.132 1057.15 822.114 1060.53 818.103C1067.57 809.772 1067.39 796.523 1060.13 788.509C1056.51 784.502 1051.8 782.562 1047.11 782.666L1047.4 803.592C1044.29 807.267 1040.9 810.949 1037.51 814.303C993.426 861.509 1019.04 604.632 953.696 606.078ZM953.696 606.078C812.984 609.193 805.291 565.777 736.095 639.166C836.009 562.762 812.984 609.193 953.696 606.078Z" stroke="#FE5430" stroke-width="15.9776" stroke-miterlimit="10" stroke-linecap="round" stroke-linejoin="round"/>
</g>
<defs>
<filter id="filter0_f_629_5782" x="0.699463" y="-196.732" width="2136.91" height="1808.7" filterUnits="userSpaceOnUse" color-interpolation-filters="sRGB">
<feFlood flood-opacity="0" result="BackgroundImageFix"/>
<feBlend mode="normal" in="SourceGraphic" in2="BackgroundImageFix" result="shape"/>
<feGaussianBlur stdDeviation="366.986" result="effect1_foregroundBlur_629_5782"/>
</filter>
<linearGradient id="paint0_linear_629_5782" x1="1040.88" y1="512.666" x2="1059.62" y2="515.869" gradientUnits="userSpaceOnUse">
<stop stop-color="#F9B776"/>
<stop offset="1" stop-color="#F47960"/>
</linearGradient>
<linearGradient id="paint1_linear_629_5782" x1="1056.35" y1="491.223" x2="970.179" y2="491.223" gradientUnits="userSpaceOnUse">
<stop stop-color="#F9B776"/>
<stop offset="1" stop-color="#F47960"/>
</linearGradient>
<linearGradient id="paint2_linear_629_5782" x1="863.54" y1="392.273" x2="881.19" y2="346.15" gradientUnits="userSpaceOnUse">
<stop stop-color="#F9B776"/>
<stop offset="1" stop-color="#F47960"/>
</linearGradient>
<linearGradient id="paint3_linear_629_5782" x1="895.817" y1="333.876" x2="844.171" y2="353.436" gradientUnits="userSpaceOnUse">
<stop stop-color="#F9B776"/>
<stop offset="1" stop-color="#F47960"/>
</linearGradient>
<linearGradient id="paint4_linear_629_5782" x1="866.809" y1="371.226" x2="913.721" y2="327.992" gradientUnits="userSpaceOnUse">
<stop stop-color="#2B3582"/>
<stop offset="1" stop-color="#150E42"/>
</linearGradient>
<linearGradient id="paint5_linear_629_5782" x1="898.911" y1="342.044" x2="847.265" y2="361.604" gradientUnits="userSpaceOnUse">
<stop stop-color="#F9B776"/>
<stop offset="1" stop-color="#F47960"/>
</linearGradient>
<linearGradient id="paint6_linear_629_5782" x1="801.503" y1="943.752" x2="863.227" y2="943.752" gradientUnits="userSpaceOnUse">
<stop stop-color="#CE1567"/>
<stop offset="1" stop-color="#7A1DBC"/>
</linearGradient>
<linearGradient id="paint7_linear_629_5782" x1="807.201" y1="910.478" x2="824.588" y2="910.478" gradientUnits="userSpaceOnUse">
<stop stop-color="#F9B776"/>
<stop offset="1" stop-color="#F47960"/>
</linearGradient>
<linearGradient id="paint8_linear_629_5782" x1="696.67" y1="893.837" x2="717.448" y2="893.837" gradientUnits="userSpaceOnUse">
<stop stop-color="#F9B776"/>
<stop offset="1" stop-color="#F47960"/>
</linearGradient>
<linearGradient id="paint9_linear_629_5782" x1="772.988" y1="838.693" x2="805.127" y2="637.467" gradientUnits="userSpaceOnUse">
<stop stop-color="#CB236D"/>
<stop offset="1" stop-color="#4C246D"/>
</linearGradient>
<linearGradient id="paint10_linear_629_5782" x1="828.362" y1="623.42" x2="832.922" y2="600.092" gradientUnits="userSpaceOnUse">
<stop stop-color="#CB236D"/>
<stop offset="1" stop-color="#4C246D"/>
</linearGradient>
<linearGradient id="paint11_linear_629_5782" x1="833.401" y1="588.057" x2="818.02" y2="654.416" gradientUnits="userSpaceOnUse">
<stop stop-color="#CB236D"/>
<stop offset="1" stop-color="#4C246D"/>
</linearGradient>
<linearGradient id="paint12_linear_629_5782" x1="771.242" y1="612.265" x2="775.802" y2="588.938" gradientUnits="userSpaceOnUse">
<stop stop-color="#CB236D"/>
<stop offset="1" stop-color="#4C246D"/>
</linearGradient>
<linearGradient id="paint13_linear_629_5782" x1="776.662" y1="574.914" x2="761.281" y2="641.272" gradientUnits="userSpaceOnUse">
<stop stop-color="#CB236D"/>
<stop offset="1" stop-color="#4C246D"/>
</linearGradient>
<linearGradient id="paint14_linear_629_5782" x1="803.933" y1="545.366" x2="804.391" y2="594.498" gradientUnits="userSpaceOnUse">
<stop stop-color="#CB236D"/>
<stop offset="1" stop-color="#4C246D"/>
</linearGradient>
<linearGradient id="paint15_linear_629_5782" x1="797.412" y1="615.858" x2="791.991" y2="844.278" gradientUnits="userSpaceOnUse">
<stop stop-color="#CB236D"/>
<stop offset="1" stop-color="#4C246D"/>
</linearGradient>
<linearGradient id="paint16_linear_629_5782" x1="793.38" y1="610.307" x2="793.217" y2="686.891" gradientUnits="userSpaceOnUse">
<stop stop-color="#A737D5"/>
<stop offset="1" stop-color="#EF497A"/>
</linearGradient>
<linearGradient id="paint17_linear_629_5782" x1="804.541" y1="672.052" x2="780.351" y2="669.352" gradientUnits="userSpaceOnUse">
<stop stop-color="white"/>
<stop offset="1" stop-color="white"/>
</linearGradient>
<linearGradient id="paint18_linear_629_5782" x1="778.367" y1="530.494" x2="836.444" y2="627.786" gradientUnits="userSpaceOnUse">
<stop stop-color="#F9B776"/>
<stop offset="1" stop-color="#F47960"/>
</linearGradient>
<linearGradient id="paint19_linear_629_5782" x1="666.799" y1="288.004" x2="1011.48" y2="627.593" gradientUnits="userSpaceOnUse">
<stop stop-color="#FDF53F"/>
<stop offset="0.29" stop-color="#F2BF4A"/>
<stop offset="1" stop-color="#D93C65"/>
</linearGradient>
<linearGradient id="paint20_linear_629_5782" x1="1118.21" y1="870.273" x2="1280.44" y2="981.24" gradientUnits="userSpaceOnUse">
<stop stop-color="#53D8FF"/>
<stop offset="1" stop-color="#3840F7"/>
</linearGradient>
<linearGradient id="paint21_linear_629_5782" x1="1208.32" y1="872.194" x2="1218.47" y2="949.367" gradientUnits="userSpaceOnUse">
<stop stop-color="#C4421B"/>
<stop offset="1" stop-color="#5C0E16"/>
</linearGradient>
<linearGradient id="paint22_linear_629_5782" x1="1092.04" y1="908.482" x2="1254.27" y2="1019.45" gradientUnits="userSpaceOnUse">
<stop stop-color="#53D8FF"/>
<stop offset="1" stop-color="#3840F7"/>
</linearGradient>
<linearGradient id="paint23_linear_629_5782" x1="1146.34" y1="880.395" x2="1150.9" y2="958.227" gradientUnits="userSpaceOnUse">
<stop stop-color="#C4421B"/>
<stop offset="1" stop-color="#5C0E16"/>
</linearGradient>
<linearGradient id="paint24_linear_629_5782" x1="1184.86" y1="431.556" x2="1132.71" y2="329.346" gradientUnits="userSpaceOnUse">
<stop stop-color="#C4421B"/>
<stop offset="1" stop-color="#5C0E16"/>
</linearGradient>
<linearGradient id="paint25_linear_629_5782" x1="1152.49" y1="367.839" x2="1155.92" y2="212.482" gradientUnits="userSpaceOnUse">
<stop stop-color="#C4421B"/>
<stop offset="1" stop-color="#5C0E16"/>
</linearGradient>
<linearGradient id="paint26_linear_629_5782" x1="1193.11" y1="281.253" x2="1141.49" y2="333.913" gradientUnits="userSpaceOnUse">
<stop stop-color="#2B3582"/>
<stop offset="1" stop-color="#150E42"/>
</linearGradient>
<linearGradient id="paint27_linear_629_5782" x1="1169.74" y1="368.223" x2="1173.17" y2="212.866" gradientUnits="userSpaceOnUse">
<stop stop-color="#C4421B"/>
<stop offset="1" stop-color="#5C0E16"/>
</linearGradient>
<linearGradient id="paint28_linear_629_5782" x1="1124.86" y1="604.461" x2="1132.65" y2="459.835" gradientUnits="userSpaceOnUse">
<stop stop-color="#C4421B"/>
<stop offset="1" stop-color="#5C0E16"/>
</linearGradient>
<linearGradient id="paint29_linear_629_5782" x1="1169.79" y1="573.267" x2="1114.48" y2="582.986" gradientUnits="userSpaceOnUse">
<stop stop-color="#C4421B"/>
<stop offset="1" stop-color="#5C0E16"/>
</linearGradient>
<linearGradient id="paint30_linear_629_5782" x1="1163.92" y1="587.363" x2="1038.41" y2="571.23" gradientUnits="userSpaceOnUse">
<stop stop-color="#C4421B"/>
<stop offset="1" stop-color="#5C0E16"/>
</linearGradient>
<linearGradient id="paint31_linear_629_5782" x1="963.672" y1="519.418" x2="1294.14" y2="467.363" gradientUnits="userSpaceOnUse">
<stop stop-color="#C4421B"/>
<stop offset="1" stop-color="#5C0E16"/>
</linearGradient>
</defs>
</svg>
