<svg width="67" height="67" viewBox="0 0 67 67" fill="none" xmlns="http://www.w3.org/2000/svg">
<g clip-path="url(#clip0_702_11959)">
<path d="M49.1216 60.601V62.8551C49.1216 64.7224 47.6078 66.2362 45.7405 66.2362H9.67508C7.80773 66.2362 6.29395 64.7224 6.29395 62.8551V21.1544C6.29395 19.9822 8.43533 18.9115 11.9292 18.1113L49.1216 60.601Z" fill="#070D2D"/>
<path d="M54.7554 54.9662V57.2203C54.7554 59.0876 53.2416 60.6014 51.3743 60.6014H15.3089C13.4415 60.6014 11.9277 59.0876 11.9277 57.2203V15.5196C11.9277 14.3475 14.0691 13.2768 17.563 12.4766L54.7554 54.9662Z" fill="#B1D5F1"/>
<path d="M49.6965 5.98597L49.2344 1.87225C49.2255 1.77431 49.1987 1.67883 49.1555 1.59049C48.9911 1.15467 48.5731 0.867004 48.1074 0.86918H29.8492C29.4175 0.865584 29.0224 1.11141 28.8349 1.50033C28.7739 1.61595 28.7356 1.74221 28.7222 1.87225L28.2601 5.98597C21.8698 6.76363 17.5645 8.21752 17.5645 9.88555V51.5863C17.5645 53.4536 19.0782 54.9674 20.9456 54.9674H57.011C58.8784 54.9674 60.3921 53.4536 60.3921 51.5863V9.88555C60.3921 8.21752 56.0868 6.76363 49.6965 5.98597Z" fill="#070D2D"/>
<path d="M60.3917 9.88591V51.5866C60.3917 53.454 58.878 54.9678 57.0106 54.9678H34.4697V18.35C35.939 17.9529 37.4559 17.7595 38.9779 17.7752C44.7033 17.7752 47.1602 20.142 49.7863 20.9197C50.1488 21.0185 50.5367 20.932 50.8229 20.6886C51.1092 20.4452 51.2569 20.0762 51.2176 19.7025L49.6961 5.98633C56.0864 6.76399 60.3917 8.21788 60.3917 9.88591Z" fill="#070D2D"/>
<path d="M51.2192 19.7015C51.2584 20.0752 51.1108 20.4442 50.8245 20.6876C50.5383 20.931 50.1504 21.0175 49.7878 20.9187C47.1618 20.141 44.7049 17.7742 38.9795 17.7742C46.959 17.7742 48.8299 4.82447 49.1567 1.58984C49.1999 1.67818 49.2267 1.77367 49.2356 1.87161L49.6977 5.98533L51.2192 19.7015Z" fill="#B1D5F1"/>
<path d="M49.1585 1.59049C48.8316 4.82511 46.9608 17.7749 38.9813 17.7749C33.1319 17.7749 30.5735 10.821 29.4916 5.83945C29.1978 4.55346 28.9795 3.25137 28.8379 1.93987V1.50033C29.0254 1.11141 29.4205 0.865584 29.8522 0.86918H48.1103C48.5761 0.867004 48.9941 1.15467 49.1585 1.59049Z" fill="#070D2D"/>
<path d="M38.9784 17.7726C37.4564 17.7569 35.9395 17.9503 34.4702 18.3474C31.7089 19.0912 29.9733 20.3873 28.17 20.9171C27.8075 21.0158 27.4196 20.9294 27.1333 20.6859C26.8471 20.4425 26.6994 20.0735 26.7387 19.6998L28.2602 5.98369L28.7223 1.86997C28.7357 1.73993 28.774 1.61367 28.835 1.49805V1.93759C28.9766 3.24909 29.1949 4.55118 29.4887 5.83718C30.5706 10.8187 33.129 17.7726 38.9784 17.7726Z" fill="#B1D5F1"/>
<path d="M41.2326 29.0394C42.4775 29.0394 43.4867 28.0302 43.4867 26.7853C43.4867 25.5404 42.4775 24.5312 41.2326 24.5312C39.9877 24.5312 38.9785 25.5404 38.9785 26.7853C38.9785 28.0302 39.9877 29.0394 41.2326 29.0394Z" fill="#B1D5F1"/>
<path d="M41.2326 39.184C42.4775 39.184 43.4867 38.1748 43.4867 36.9299C43.4867 35.685 42.4775 34.6758 41.2326 34.6758C39.9877 34.6758 38.9785 35.685 38.9785 36.9299C38.9785 38.1748 39.9877 39.184 41.2326 39.184Z" fill="#B1D5F1"/>
<path d="M41.2326 49.3266C42.4775 49.3266 43.4867 48.3174 43.4867 47.0725C43.4867 45.8276 42.4775 44.8184 41.2326 44.8184C39.9877 44.8184 38.9785 45.8276 38.9785 47.0725C38.9785 48.3174 39.9877 49.3266 41.2326 49.3266Z" fill="#B1D5F1"/>
</g>
<defs>
<clipPath id="clip0_702_11959">
<rect width="65.3686" height="65.3687" fill="white" transform="translate(0.661133 0.873047)"/>
</clipPath>
</defs>
</svg>
