<svg width="62" height="63" viewBox="0 0 62 63" fill="none" xmlns="http://www.w3.org/2000/svg">
<g clip-path="url(#clip0_629_6054)">
<path d="M61.4517 31.7614C61.4517 14.5918 47.7182 0.673828 30.7795 0.673828C13.8331 0.67769 0.0996094 14.5918 0.0996094 31.7653C0.0996094 47.2782 11.318 60.138 25.9793 62.4705V40.7479H18.1962V31.7653H25.9869V24.9106C25.9869 17.1213 30.5686 12.8192 37.5734 12.8192C40.932 12.8192 44.4401 13.4255 44.4401 13.4255V21.0719H40.5716C36.7644 21.0719 35.5758 23.4701 35.5758 25.9301V31.7614H44.0797L42.7225 40.744H35.572V62.4667C50.2333 60.1341 61.4517 47.2743 61.4517 31.7614Z" fill="#070D2D"/>
</g>
<defs>
<clipPath id="clip0_629_6054">
<rect width="61.3444" height="61.789" fill="white" transform="translate(0.107422 0.677734)"/>
</clipPath>
</defs>
</svg>
