<svg width="67" height="66" viewBox="0 0 67 66" fill="none" xmlns="http://www.w3.org/2000/svg">
<g clip-path="url(#clip0_702_11849)">
<path d="M14.1006 3.29604V4.97774C14.1006 5.76672 14.7404 6.40608 15.5294 6.40608H17.5577C18.2639 6.40608 18.837 6.97912 18.837 7.68531V14.0121H23.3823V4.25559C23.3823 2.95392 22.33 1.89762 21.0283 1.89314L15.5359 1.8672C14.7444 1.86371 14.1006 2.50457 14.1006 3.29604Z" fill="#B1D5F1"/>
<path d="M23.3811 4.25798V14.013H21.3154V4.25798C21.3154 2.95532 20.2636 1.89952 18.9629 1.89453H21.0281C22.3293 1.89952 23.3811 2.95532 23.3811 4.25798Z" fill="#B1D5F1"/>
<path d="M33.6542 13.1699H7.71366C6.88129 13.1699 6.11226 13.6442 5.69733 14.4127L3.15234 19.1307H38.2155L35.6706 14.4127C35.2556 13.6442 34.4866 13.1699 33.6542 13.1699Z" fill="#070D2D"/>
<path d="M38.2155 19.1302H3.15234L4.14779 17.2849H32.9999C33.4946 17.2849 33.8103 16.7567 33.5749 16.3209L31.8753 13.1699H33.6547C34.4866 13.1699 35.2566 13.6432 35.6716 14.4127L38.2155 19.1302Z" fill="#0D174C"/>
<path d="M29.6967 63.9657H11.3143C10.7243 63.9657 10.1792 63.6734 9.88541 63.1991L8.08203 60.2891H32.9294L31.126 63.1991C30.8318 63.6729 30.2867 63.9657 29.6967 63.9657Z" fill="#070D2D"/>
<path d="M38.128 24.6816L37.718 32.6832L36.7251 57.173C36.6463 59.0407 35.1227 60.5184 33.2584 60.5488C33.2385 60.5503 33.219 60.5503 33.1991 60.5503H7.8151C5.92494 60.5503 4.36942 59.0606 4.28913 57.173L2.88672 24.6816H38.128Z" fill="#070D2D"/>
<path d="M38.128 24.6816L37.8312 31.1202L37.5589 32.1725L36.7256 57.173C36.6478 59.0173 35.1621 60.4805 33.3312 60.5463C33.3916 60.3104 33.43 60.0641 33.4405 59.8097L34.81 28.0884C34.8279 27.6685 34.4923 27.3179 34.0718 27.3179H2.99993L2.88672 24.6816H38.128Z" fill="#0D174C"/>
<path d="M3.46484 38.0938C3.46484 38.0938 19.9352 40.2967 37.8488 31.1172L37.1536 47.229C37.1536 47.229 22.154 53.6316 4.00047 50.5165L3.46484 38.0938Z" fill="#B1D5F1"/>
<path d="M39.0807 25.3575H2.28597C1.38827 25.3575 0.661133 24.6304 0.661133 23.7332V20.0286C0.661133 19.1314 1.38827 18.4043 2.28597 18.4043H39.0807C39.9779 18.4043 40.7056 19.1314 40.7056 20.0286V23.7332C40.7056 24.6304 39.9779 25.3575 39.0807 25.3575Z" fill="#070D2D"/>
<path d="M62.9456 56.0136H32.8092C31.1051 56.0136 29.7236 54.6321 29.7236 52.928V49.8219C29.7236 48.1178 31.1051 46.7363 32.8092 46.7363H62.946C64.6497 46.7363 66.0312 48.1178 66.0312 49.8219V52.928C66.0312 54.6321 64.6497 56.0136 62.9456 56.0136Z" fill="#945B44"/>
<path d="M62.9456 56.0136H32.8092C31.1051 56.0136 29.7236 54.6321 29.7236 52.928V49.8219C29.7236 48.1178 31.1051 46.7363 32.8092 46.7363H62.946C64.6497 46.7363 66.0312 48.1178 66.0312 49.8219V52.928C66.0312 54.6321 64.6497 56.0136 62.9456 56.0136Z" fill="#B1D5F1"/>
<path d="M60.7845 63.9624H34.9711C32.113 63.9624 29.7959 61.6454 29.7959 58.7872V57.0043C29.7959 56.0677 30.555 55.3086 31.4916 55.3086H64.2646C65.2007 55.3086 65.9598 56.0677 65.9598 57.0043V58.7872C65.9598 61.6454 63.6427 63.9624 60.7845 63.9624Z" fill="#070D2D"/>
<path d="M65.9588 57.0053V58.7872C65.9588 61.6459 63.6412 63.9634 60.7826 63.9634H34.9697C32.8147 63.9634 30.9679 62.6453 30.1904 60.7721C30.931 61.1806 31.7814 61.414 32.687 61.414H58.4994C61.3586 61.414 63.6747 59.0969 63.6747 56.2392V55.3086H64.2637C65.1993 55.3086 65.9588 56.0681 65.9588 57.0053Z" fill="#0D174C"/>
<path d="M34.2441 46.7363L41.5759 51.6912C42.5499 52.3495 43.8331 52.321 44.7767 51.6203L51.3563 46.7363H34.2441Z" fill="#2F4099"/>
<path d="M65.217 42.6156C63.6027 38.2851 60.1869 35.7207 56.8101 34.2036C51.1401 31.6561 44.6113 31.6561 38.9408 34.2036C35.5645 35.7207 32.1487 38.2851 30.5344 42.6156C30.1115 43.7506 29.918 44.9586 29.9189 46.1705C29.9194 46.8871 30.5069 47.4656 31.2236 47.4656H64.5278C65.2445 47.4656 65.832 46.8871 65.8325 46.1705C65.8335 44.9586 65.64 43.7506 65.217 42.6156Z" fill="#070D2D"/>
<path d="M65.8325 46.1698C65.831 46.886 65.2445 47.4645 64.5273 47.4645H31.2226C30.5069 47.4645 29.9189 46.886 29.9189 46.1698C29.9189 45.7549 29.9414 45.3409 29.9873 44.9295C30.1045 44.9694 30.2287 44.9888 30.3578 44.9888H61.0422C61.7025 44.9888 62.2432 44.4567 62.2442 43.7964C62.2442 42.6798 62.0666 41.5671 61.6761 40.5208C60.5216 37.4242 58.3676 35.3076 56.0071 33.8613C56.2759 33.9696 56.5433 34.0828 56.8096 34.203C60.1869 35.7201 63.6017 38.285 65.2165 42.6149C65.64 43.75 65.8335 44.9584 65.8325 46.1698Z" fill="#070D2D"/>
</g>
<defs>
<clipPath id="clip0_702_11849">
<rect width="65.3686" height="65.3687" fill="white" transform="translate(0.661133 0.208984)"/>
</clipPath>
</defs>
</svg>
