<svg width="436" height="210" viewBox="0 0 436 210" fill="none" xmlns="http://www.w3.org/2000/svg">
<path d="M92.2008 110.206L100.861 85.3262H113.337L97.4116 126.645C95.3077 132.076 92.8124 136.088 89.9257 138.681C87.039 141.323 83.4918 142.644 79.284 142.644C76.0059 142.644 73.2905 141.935 71.1377 140.516L73.266 130.975C74.9784 131.905 76.7154 132.37 78.4767 132.37C81.7059 132.37 84.2991 130.315 86.2562 126.205L86.7699 125.031L69.2295 85.3262H82.5132L92.2008 110.206Z" fill="#070D2D"/>
<path d="M92.2008 110.206L100.861 85.3262H113.337L97.4116 126.645C95.3077 132.076 92.8124 136.088 89.9257 138.681C87.039 141.323 83.4918 142.644 79.284 142.644C76.0059 142.644 73.2905 141.935 71.1377 140.516L73.266 130.975C74.9784 131.905 76.7154 132.37 78.4767 132.37C81.7059 132.37 84.2991 130.315 86.2562 126.205L86.7699 125.031L69.2295 85.3262H82.5132L92.2008 110.206Z" fill="#070D2D"/>
<path d="M92.2008 110.206L100.861 85.3262H113.337L97.4116 126.645C95.3077 132.076 92.8124 136.088 89.9257 138.681C87.039 141.323 83.4918 142.644 79.284 142.644C76.0059 142.644 73.2905 141.935 71.1377 140.516L73.266 130.975C74.9784 131.905 76.7154 132.37 78.4767 132.37C81.7059 132.37 84.2991 130.315 86.2562 126.205L86.7699 125.031L69.2295 85.3262H82.5132L92.2008 110.206Z" fill="#070D2D"/>
<path d="M92.2008 110.206L100.861 85.3262H113.337L97.4116 126.645C95.3077 132.076 92.8124 136.088 89.9257 138.681C87.039 141.323 83.4918 142.644 79.284 142.644C76.0059 142.644 73.2905 141.935 71.1377 140.516L73.266 130.975C74.9784 131.905 76.7154 132.37 78.4767 132.37C81.7059 132.37 84.2991 130.315 86.2562 126.205L86.7699 125.031L69.2295 85.3262H82.5132L92.2008 110.206Z" fill="#070D2D"/>
<path d="M49.3921 84.2177C54.138 84.2177 58.0767 85.6855 61.208 88.6211C64.3393 91.5568 65.905 95.7156 65.905 101.098V125.537H54.3826V103.299C54.3826 100.559 53.6977 98.4555 52.3277 96.9877C51.0067 95.5199 49.2208 94.786 46.9702 94.786C44.5238 94.786 42.5423 95.5933 41.0255 97.2079C39.5088 98.8225 38.7504 100.975 38.7504 103.666V125.537H27.228V103.373C27.228 100.731 26.5186 98.6512 25.0997 97.1345C23.7297 95.5688 21.9194 94.786 19.6688 94.786C17.2713 94.786 15.3142 95.5933 13.7975 97.2079C12.2807 98.8225 11.5224 101 11.5224 103.74V125.537H0V85.3185H11.2288V91.043C12.3541 88.8902 14.0421 87.2022 16.2928 85.979C18.5434 84.7559 20.9898 84.1687 23.6319 84.2177C26.1761 84.2177 28.4757 84.8048 30.5306 85.979C32.5856 87.1044 34.1268 88.7924 35.1542 91.043C36.6221 88.8902 38.6281 87.2267 41.1723 86.0524C43.7165 84.8293 46.4564 84.2177 49.3921 84.2177Z" fill="#070D2D"/>
<path d="M49.3921 84.2177C54.138 84.2177 58.0767 85.6855 61.208 88.6211C64.3393 91.5568 65.905 95.7156 65.905 101.098V125.537H54.3826V103.299C54.3826 100.559 53.6977 98.4555 52.3277 96.9877C51.0067 95.5199 49.2208 94.786 46.9702 94.786C44.5238 94.786 42.5423 95.5933 41.0255 97.2079C39.5088 98.8225 38.7504 100.975 38.7504 103.666V125.537H27.228V103.373C27.228 100.731 26.5186 98.6512 25.0997 97.1345C23.7297 95.5688 21.9194 94.786 19.6688 94.786C17.2713 94.786 15.3142 95.5933 13.7975 97.2079C12.2807 98.8225 11.5224 101 11.5224 103.74V125.537H0V85.3185H11.2288V91.043C12.3541 88.8902 14.0421 87.2022 16.2928 85.979C18.5434 84.7559 20.9898 84.1687 23.6319 84.2177C26.1761 84.2177 28.4757 84.8048 30.5306 85.979C32.5856 87.1044 34.1268 88.7924 35.1542 91.043C36.6221 88.8902 38.6281 87.2267 41.1723 86.0524C43.7165 84.8293 46.4564 84.2177 49.3921 84.2177Z" fill="#070D2D"/>
<path d="M49.3921 84.2177C54.138 84.2177 58.0767 85.6855 61.208 88.6211C64.3393 91.5568 65.905 95.7156 65.905 101.098V125.537H54.3826V103.299C54.3826 100.559 53.6977 98.4555 52.3277 96.9877C51.0067 95.5199 49.2208 94.786 46.9702 94.786C44.5238 94.786 42.5423 95.5933 41.0255 97.2079C39.5088 98.8225 38.7504 100.975 38.7504 103.666V125.537H27.228V103.373C27.228 100.731 26.5186 98.6512 25.0997 97.1345C23.7297 95.5688 21.9194 94.786 19.6688 94.786C17.2713 94.786 15.3142 95.5933 13.7975 97.2079C12.2807 98.8225 11.5224 101 11.5224 103.74V125.537H0V85.3185H11.2288V91.043C12.3541 88.8902 14.0421 87.2022 16.2928 85.979C18.5434 84.7559 20.9898 84.1687 23.6319 84.2177C26.1761 84.2177 28.4757 84.8048 30.5306 85.979C32.5856 87.1044 34.1268 88.7924 35.1542 91.043C36.6221 88.8902 38.6281 87.2267 41.1723 86.0524C43.7165 84.8293 46.4564 84.2177 49.3921 84.2177Z" fill="#070D2D"/>
<path d="M49.3921 84.2177C54.138 84.2177 58.0767 85.6855 61.208 88.6211C64.3393 91.5568 65.905 95.7156 65.905 101.098V125.537H54.3826V103.299C54.3826 100.559 53.6977 98.4555 52.3277 96.9877C51.0067 95.5199 49.2208 94.786 46.9702 94.786C44.5238 94.786 42.5423 95.5933 41.0255 97.2079C39.5088 98.8225 38.7504 100.975 38.7504 103.666V125.537H27.228V103.373C27.228 100.731 26.5186 98.6512 25.0997 97.1345C23.7297 95.5688 21.9194 94.786 19.6688 94.786C17.2713 94.786 15.3142 95.5933 13.7975 97.2079C12.2807 98.8225 11.5224 101 11.5224 103.74V125.537H0V85.3185H11.2288V91.043C12.3541 88.8902 14.0421 87.2022 16.2928 85.979C18.5434 84.7559 20.9898 84.1687 23.6319 84.2177C26.1761 84.2177 28.4757 84.8048 30.5306 85.979C32.5856 87.1044 34.1268 88.7924 35.1542 91.043C36.6221 88.8902 38.6281 87.2267 41.1723 86.0524C43.7165 84.8293 46.4564 84.2177 49.3921 84.2177Z" fill="#070D2D"/>
<path d="M119.879 85.7318L137.335 72.2168H146.211V126.497H134.302V88.1557L126.018 94.399L119.879 85.7318Z" fill="#070D2D"/>
<path d="M119.879 85.7318L137.335 72.2168H146.211V126.497H134.302V88.1557L126.018 94.399L119.879 85.7318Z" fill="#070D2D"/>
<path d="M119.879 85.7318L137.335 72.2168H146.211V126.497H134.302V88.1557L126.018 94.399L119.879 85.7318Z" fill="#070D2D"/>
<path d="M119.879 85.7318L137.335 72.2168H146.211V126.497H134.302V88.1557L126.018 94.399L119.879 85.7318Z" fill="#070D2D"/>
<path d="M354.954 89.1567V69.6348H366.477V125.485H355.321V121.155C352.19 124.727 348.202 126.513 343.359 126.513C337.732 126.513 333.01 124.507 329.194 120.495C325.427 116.434 323.543 111.394 323.543 105.376C323.543 99.407 325.427 94.392 329.194 90.331C333.01 86.27 337.732 84.2396 343.359 84.2396C347.958 84.2396 351.823 85.8786 354.954 89.1567ZM355.541 105.303C355.541 102.318 354.563 99.8229 352.606 97.8169C350.698 95.7619 348.251 94.7344 345.267 94.7344C342.282 94.7344 339.811 95.7619 337.854 97.8169C335.946 99.8718 334.992 102.367 334.992 105.303C334.992 108.336 335.946 110.88 337.854 112.935C339.811 114.99 342.282 116.018 345.267 116.018C348.251 116.018 350.698 114.99 352.606 112.935C354.563 110.929 355.541 108.385 355.541 105.303Z" fill="#070D2D"/>
<path d="M354.954 89.1567V69.6348H366.477V125.485H355.321V121.155C352.19 124.727 348.202 126.513 343.359 126.513C337.732 126.513 333.01 124.507 329.194 120.495C325.427 116.434 323.543 111.394 323.543 105.376C323.543 99.407 325.427 94.392 329.194 90.331C333.01 86.27 337.732 84.2396 343.359 84.2396C347.958 84.2396 351.823 85.8786 354.954 89.1567ZM355.541 105.303C355.541 102.318 354.563 99.8229 352.606 97.8169C350.698 95.7619 348.251 94.7344 345.267 94.7344C342.282 94.7344 339.811 95.7619 337.854 97.8169C335.946 99.8718 334.992 102.367 334.992 105.303C334.992 108.336 335.946 110.88 337.854 112.935C339.811 114.99 342.282 116.018 345.267 116.018C348.251 116.018 350.698 114.99 352.606 112.935C354.563 110.929 355.541 108.385 355.541 105.303Z" fill="#070D2D"/>
<path d="M354.954 89.1567V69.6348H366.477V125.485H355.321V121.155C352.19 124.727 348.202 126.513 343.359 126.513C337.732 126.513 333.01 124.507 329.194 120.495C325.427 116.434 323.543 111.394 323.543 105.376C323.543 99.407 325.427 94.392 329.194 90.331C333.01 86.27 337.732 84.2396 343.359 84.2396C347.958 84.2396 351.823 85.8786 354.954 89.1567ZM355.541 105.303C355.541 102.318 354.563 99.8229 352.606 97.8169C350.698 95.7619 348.251 94.7344 345.267 94.7344C342.282 94.7344 339.811 95.7619 337.854 97.8169C335.946 99.8718 334.992 102.367 334.992 105.303C334.992 108.336 335.946 110.88 337.854 112.935C339.811 114.99 342.282 116.018 345.267 116.018C348.251 116.018 350.698 114.99 352.606 112.935C354.563 110.929 355.541 108.385 355.541 105.303Z" fill="#070D2D"/>
<path d="M354.954 89.1567V69.6348H366.477V125.485H355.321V121.155C352.19 124.727 348.202 126.513 343.359 126.513C337.732 126.513 333.01 124.507 329.194 120.495C325.427 116.434 323.543 111.394 323.543 105.376C323.543 99.407 325.427 94.392 329.194 90.331C333.01 86.27 337.732 84.2396 343.359 84.2396C347.958 84.2396 351.823 85.8786 354.954 89.1567ZM355.541 105.303C355.541 102.318 354.563 99.8229 352.606 97.8169C350.698 95.7619 348.251 94.7344 345.267 94.7344C342.282 94.7344 339.811 95.7619 337.854 97.8169C335.946 99.8718 334.992 102.367 334.992 105.303C334.992 108.336 335.946 110.88 337.854 112.935C339.811 114.99 342.282 116.018 345.267 116.018C348.251 116.018 350.698 114.99 352.606 112.935C354.563 110.929 355.541 108.385 355.541 105.303Z" fill="#070D2D"/>
<path d="M318.052 104.425C318.052 105.599 317.93 107.214 317.685 109.268H288.108C289.478 114.308 293.124 116.828 299.044 116.828C303.545 116.828 307.728 115.531 311.594 112.938L316.144 120.791C311.251 124.509 305.38 126.369 298.53 126.369C291.436 126.369 285.98 124.338 282.164 120.277C278.396 116.216 276.513 111.226 276.513 105.305C276.513 99.2873 278.47 94.2723 282.384 90.2602C286.249 86.2482 291.362 84.2422 297.723 84.2422C303.594 84.2422 308.462 86.0525 312.327 89.6731C316.144 93.2937 318.052 98.2109 318.052 104.425ZM303.667 95.5444C302.053 94.2233 300.071 93.5628 297.723 93.5628C295.374 93.5628 293.319 94.2233 291.558 95.5444C289.845 96.8654 288.671 98.7002 288.035 101.049H306.97C306.432 98.7002 305.331 96.8654 303.667 95.5444Z" fill="#070D2D"/>
<path d="M318.052 104.425C318.052 105.599 317.93 107.214 317.685 109.268H288.108C289.478 114.308 293.124 116.828 299.044 116.828C303.545 116.828 307.728 115.531 311.594 112.938L316.144 120.791C311.251 124.509 305.38 126.369 298.53 126.369C291.436 126.369 285.98 124.338 282.164 120.277C278.396 116.216 276.513 111.226 276.513 105.305C276.513 99.2873 278.47 94.2723 282.384 90.2602C286.249 86.2482 291.362 84.2422 297.723 84.2422C303.594 84.2422 308.462 86.0525 312.327 89.6731C316.144 93.2937 318.052 98.2109 318.052 104.425ZM303.667 95.5444C302.053 94.2233 300.071 93.5628 297.723 93.5628C295.374 93.5628 293.319 94.2233 291.558 95.5444C289.845 96.8654 288.671 98.7002 288.035 101.049H306.97C306.432 98.7002 305.331 96.8654 303.667 95.5444Z" fill="#070D2D"/>
<path d="M318.052 104.425C318.052 105.599 317.93 107.214 317.685 109.268H288.108C289.478 114.308 293.124 116.828 299.044 116.828C303.545 116.828 307.728 115.531 311.594 112.938L316.144 120.791C311.251 124.509 305.38 126.369 298.53 126.369C291.436 126.369 285.98 124.338 282.164 120.277C278.396 116.216 276.513 111.226 276.513 105.305C276.513 99.2873 278.47 94.2723 282.384 90.2602C286.249 86.2482 291.362 84.2422 297.723 84.2422C303.594 84.2422 308.462 86.0525 312.327 89.6731C316.144 93.2937 318.052 98.2109 318.052 104.425ZM303.667 95.5444C302.053 94.2233 300.071 93.5628 297.723 93.5628C295.374 93.5628 293.319 94.2233 291.558 95.5444C289.845 96.8654 288.671 98.7002 288.035 101.049H306.97C306.432 98.7002 305.331 96.8654 303.667 95.5444Z" fill="#070D2D"/>
<path d="M318.052 104.425C318.052 105.599 317.93 107.214 317.685 109.268H288.108C289.478 114.308 293.124 116.828 299.044 116.828C303.545 116.828 307.728 115.531 311.594 112.938L316.144 120.791C311.251 124.509 305.38 126.369 298.53 126.369C291.436 126.369 285.98 124.338 282.164 120.277C278.396 116.216 276.513 111.226 276.513 105.305C276.513 99.2873 278.47 94.2723 282.384 90.2602C286.249 86.2482 291.362 84.2422 297.723 84.2422C303.594 84.2422 308.462 86.0525 312.327 89.6731C316.144 93.2937 318.052 98.2109 318.052 104.425ZM303.667 95.5444C302.053 94.2233 300.071 93.5628 297.723 93.5628C295.374 93.5628 293.319 94.2233 291.558 95.5444C289.845 96.8654 288.671 98.7002 288.035 101.049H306.97C306.432 98.7002 305.331 96.8654 303.667 95.5444Z" fill="#070D2D"/>
<path d="M270.946 104.425C270.946 105.599 270.824 107.214 270.58 109.268H241.003C242.373 114.308 246.018 116.828 251.938 116.828C256.44 116.828 260.623 115.531 264.488 112.938L269.038 120.791C264.146 124.509 258.274 126.369 251.424 126.369C244.33 126.369 238.875 124.338 235.058 120.277C231.291 116.216 229.407 111.226 229.407 105.305C229.407 99.2873 231.364 94.2723 235.278 90.2602C239.144 86.2482 244.257 84.2422 250.617 84.2422C256.488 84.2422 261.357 86.0525 265.222 89.6731C269.038 93.2937 270.946 98.2109 270.946 104.425ZM256.562 95.5444C254.947 94.2233 252.966 93.5628 250.617 93.5628C248.269 93.5628 246.214 94.2233 244.452 95.5444C242.74 96.8654 241.566 98.7002 240.93 101.049H259.864C259.326 98.7002 258.225 96.8654 256.562 95.5444Z" fill="#070D2D"/>
<path d="M270.946 104.425C270.946 105.599 270.824 107.214 270.58 109.268H241.003C242.373 114.308 246.018 116.828 251.938 116.828C256.44 116.828 260.623 115.531 264.488 112.938L269.038 120.791C264.146 124.509 258.274 126.369 251.424 126.369C244.33 126.369 238.875 124.338 235.058 120.277C231.291 116.216 229.407 111.226 229.407 105.305C229.407 99.2873 231.364 94.2723 235.278 90.2602C239.144 86.2482 244.257 84.2422 250.617 84.2422C256.488 84.2422 261.357 86.0525 265.222 89.6731C269.038 93.2937 270.946 98.2109 270.946 104.425ZM256.562 95.5444C254.947 94.2233 252.966 93.5628 250.617 93.5628C248.269 93.5628 246.214 94.2233 244.452 95.5444C242.74 96.8654 241.566 98.7002 240.93 101.049H259.864C259.326 98.7002 258.225 96.8654 256.562 95.5444Z" fill="#070D2D"/>
<path d="M270.946 104.425C270.946 105.599 270.824 107.214 270.58 109.268H241.003C242.373 114.308 246.018 116.828 251.938 116.828C256.44 116.828 260.623 115.531 264.488 112.938L269.038 120.791C264.146 124.509 258.274 126.369 251.424 126.369C244.33 126.369 238.875 124.338 235.058 120.277C231.291 116.216 229.407 111.226 229.407 105.305C229.407 99.2873 231.364 94.2723 235.278 90.2602C239.144 86.2482 244.257 84.2422 250.617 84.2422C256.488 84.2422 261.357 86.0525 265.222 89.6731C269.038 93.2937 270.946 98.2109 270.946 104.425ZM256.562 95.5444C254.947 94.2233 252.966 93.5628 250.617 93.5628C248.269 93.5628 246.214 94.2233 244.452 95.5444C242.74 96.8654 241.566 98.7002 240.93 101.049H259.864C259.326 98.7002 258.225 96.8654 256.562 95.5444Z" fill="#070D2D"/>
<path d="M270.946 104.425C270.946 105.599 270.824 107.214 270.58 109.268H241.003C242.373 114.308 246.018 116.828 251.938 116.828C256.44 116.828 260.623 115.531 264.488 112.938L269.038 120.791C264.146 124.509 258.274 126.369 251.424 126.369C244.33 126.369 238.875 124.338 235.058 120.277C231.291 116.216 229.407 111.226 229.407 105.305C229.407 99.2873 231.364 94.2723 235.278 90.2602C239.144 86.2482 244.257 84.2422 250.617 84.2422C256.488 84.2422 261.357 86.0525 265.222 89.6731C269.038 93.2937 270.946 98.2109 270.946 104.425ZM256.562 95.5444C254.947 94.2233 252.966 93.5628 250.617 93.5628C248.269 93.5628 246.214 94.2233 244.452 95.5444C242.74 96.8654 241.566 98.7002 240.93 101.049H259.864C259.326 98.7002 258.225 96.8654 256.562 95.5444Z" fill="#070D2D"/>
<path d="M194.228 125.483H182.706V85.2649H193.935V90.8426C195.011 88.8855 196.675 87.2954 198.925 86.0722C201.225 84.8001 203.794 84.1641 206.631 84.1641C210.986 84.1641 214.68 85.6074 217.714 88.4941C220.747 91.3808 222.264 95.5152 222.264 100.897V125.483H210.741V103.906C210.741 101.02 210.032 98.7689 208.613 97.1543C207.194 95.5397 205.286 94.7324 202.889 94.7324C200.295 94.7324 198.192 95.613 196.577 97.3744C195.011 99.0869 194.228 101.362 194.228 104.2V125.483Z" fill="#070D2D"/>
<path d="M194.228 125.483H182.706V85.2649H193.935V90.8426C195.011 88.8855 196.675 87.2954 198.925 86.0722C201.225 84.8001 203.794 84.1641 206.631 84.1641C210.986 84.1641 214.68 85.6074 217.714 88.4941C220.747 91.3808 222.264 95.5152 222.264 100.897V125.483H210.741V103.906C210.741 101.02 210.032 98.7689 208.613 97.1543C207.194 95.5397 205.286 94.7324 202.889 94.7324C200.295 94.7324 198.192 95.613 196.577 97.3744C195.011 99.0869 194.228 101.362 194.228 104.2V125.483Z" fill="#070D2D"/>
<path d="M194.228 125.483H182.706V85.2649H193.935V90.8426C195.011 88.8855 196.675 87.2954 198.925 86.0722C201.225 84.8001 203.794 84.1641 206.631 84.1641C210.986 84.1641 214.68 85.6074 217.714 88.4941C220.747 91.3808 222.264 95.5152 222.264 100.897V125.483H210.741V103.906C210.741 101.02 210.032 98.7689 208.613 97.1543C207.194 95.5397 205.286 94.7324 202.889 94.7324C200.295 94.7324 198.192 95.613 196.577 97.3744C195.011 99.0869 194.228 101.362 194.228 104.2V125.483Z" fill="#070D2D"/>
<path d="M194.228 125.483H182.706V85.2649H193.935V90.8426C195.011 88.8855 196.675 87.2954 198.925 86.0722C201.225 84.8001 203.794 84.1641 206.631 84.1641C210.986 84.1641 214.68 85.6074 217.714 88.4941C220.747 91.3808 222.264 95.5152 222.264 100.897V125.483H210.741V103.906C210.741 101.02 210.032 98.7689 208.613 97.1543C207.194 95.5397 205.286 94.7324 202.889 94.7324C200.295 94.7324 198.192 95.613 196.577 97.3744C195.011 99.0869 194.228 101.362 194.228 104.2V125.483Z" fill="#070D2D"/>
<path d="M264.647 45.0615C264.62 46.6577 265.892 47.9734 267.488 48.0003C272.732 48.0887 277.054 43.9096 277.142 38.666C277.231 33.4224 273.052 29.1 267.808 29.0117L229.43 28.3649C188.502 27.6752 154.924 60.641 154.231 101.784C153.537 142.927 185.985 177.005 226.913 177.695L265.291 178.342C270.535 178.43 274.857 174.251 274.946 169.007C275.034 163.764 270.855 159.441 265.611 159.353C264.015 159.326 262.7 160.598 262.673 162.194L262.61 165.909L227.122 165.31C193.163 164.738 166.035 136.426 166.615 101.993C167.195 67.5595 195.262 40.177 229.221 40.7493L264.709 41.3474L264.647 45.0615ZM262.851 151.61C262.824 153.207 264.096 154.522 265.692 154.549L269.313 154.61C274.557 154.699 278.879 150.519 278.967 145.276C279.056 140.032 274.877 135.71 269.633 135.622C268.037 135.595 266.721 136.867 266.694 138.463L266.632 142.177L265.901 142.165C264.305 142.138 262.989 143.41 262.962 145.006L262.851 151.61ZM264.357 62.2497C264.33 63.8459 265.602 65.1616 267.198 65.1885L267.929 65.2008L267.866 68.915C267.839 70.5111 269.112 71.8269 270.708 71.8538C275.951 71.9421 280.274 67.763 280.362 62.5195C280.45 57.2759 276.271 52.9535 271.028 52.8651L267.407 52.8041C265.811 52.7772 264.495 54.0494 264.468 55.6455L264.357 62.2497Z" fill="#FE5430" stroke="#FE5430" stroke-width="5.78097" stroke-miterlimit="10" stroke-linecap="round" stroke-linejoin="round"/>
<path d="M267.489 48.0024C269.085 48.0293 270.401 46.7572 270.428 45.1611L270.518 39.7733C271.367 38.9899 272.254 38.2218 273.138 37.5102C273.168 37.4859 273.198 37.461 273.227 37.4356C289.088 23.5779 310.065 15.3138 332.912 15.6989C382.107 16.5279 421.313 57.0773 420.484 106.273C419.655 155.468 379.105 194.674 329.91 193.845C307.063 193.46 286.376 184.493 270.991 170.109C270.963 170.083 270.934 170.057 270.905 170.032C270.045 169.291 269.184 168.493 268.363 167.682L268.454 162.294C268.48 160.698 267.208 159.382 265.612 159.355C263.187 159.314 260.736 160.201 258.852 162.023C255.082 165.668 254.98 171.68 258.626 175.45C259.891 176.759 261.27 178.07 262.669 179.285C280.21 195.623 303.757 205.792 329.701 206.229C385.736 207.173 431.924 162.517 432.868 106.482C433.813 50.4463 389.156 4.25877 333.121 3.31445C307.176 2.87723 283.301 12.2465 265.219 27.9848C263.779 29.1517 262.358 30.4155 261.048 31.6815L261.048 31.6815C257.278 35.3268 257.177 41.3382 260.822 45.1085L260.822 45.1085C262.644 46.993 265.063 47.9616 267.489 48.0024Z" fill="#FE5430" stroke="#FE5430" stroke-width="5.78097" stroke-miterlimit="10" stroke-linecap="round" stroke-linejoin="round"/>
</svg>
