<svg width="66" height="66" viewBox="0 0 66 66" fill="none" xmlns="http://www.w3.org/2000/svg">
<g clip-path="url(#clip0_702_11951)">
<path d="M62.5312 33.0246C62.5184 33.0374 62.5726 33.0246 62.369 33.0246C60.2227 33.0246 58.7392 35.0149 59.4872 36.8696C59.127 37.2492 60.6814 35.6954 34.3931 61.8462C33.6444 62.5898 32.4402 62.5912 31.6901 61.8462C5.40979 35.702 6.95989 37.253 6.59609 36.8696C7.37376 34.9414 5.74804 32.9216 3.55465 33.0286C3.55337 33.0272 3.55337 33.0259 3.55209 33.0248C1.37658 29.6255 0.284552 25.9377 0.361195 22.1528C0.658186 7.29751 18.7859 -3.65593 33.0417 8.81312C47.2895 -3.64903 65.4251 7.28971 65.7222 22.1528C65.7989 25.9377 64.7067 29.6255 62.5312 33.0246Z" fill="#070D2D"/>
<path d="M62.5326 33.0253C62.5198 33.038 62.574 33.0253 62.3704 33.0253C60.2241 33.0253 58.7406 35.0156 59.4886 36.8702C59.1284 37.2498 60.6828 35.696 34.3944 61.8469C34.0202 62.2186 33.5322 62.4051 33.043 62.4051V8.81375C41.9174 1.0516 52.99 2.04298 60.043 9.09349C66.3145 15.3651 67.76 24.8573 62.5326 33.0253Z" fill="#070D2D"/>
<path d="M62.5328 33.0255C61.6859 34.3502 60.6742 35.6314 59.5016 36.8577H45.3062C44.6011 36.8577 43.9535 36.4706 43.6188 35.8498L38.2627 25.9016L30.6878 41.8931C30.0465 43.247 28.1506 43.3794 27.3398 42.1013L21.8509 33.4764L20.3794 35.9276C20.0332 36.5051 19.4098 36.8576 18.7367 36.8576H6.58494C5.4123 35.6313 4.40061 34.35 3.55371 33.0254H17.6522L20.1597 28.8458C20.8847 27.6346 22.6479 27.5913 23.4183 28.8036L28.7092 37.1169L36.4207 20.8366C37.0958 19.417 39.0951 19.3688 39.8403 20.7485L46.4507 33.0254H62.5328V33.0255Z" fill="#E1F3FF"/>
<path d="M39.8399 20.7483C39.0961 19.3714 37.0966 19.4144 36.4204 20.8364L33.043 27.9665V36.9201L38.2623 25.9012L43.6184 35.8495C43.9531 36.4702 44.6007 36.8573 45.3058 36.8573H59.5014C60.674 35.631 61.6857 34.3498 62.5326 33.0252H46.4504L39.8399 20.7483Z" fill="#B1D5F1"/>
</g>
<defs>
<clipPath id="clip0_702_11951">
<rect width="65.3686" height="65.3687" fill="white" transform="translate(0.355469 0.212891)"/>
</clipPath>
</defs>
</svg>
