<svg width="67" height="66" viewBox="0 0 67 66" fill="none" xmlns="http://www.w3.org/2000/svg">
<path d="M47.0044 20.6251V26.9937M46.9998 12.8977C46.9233 12.8977 46.8477 12.8826 46.7771 12.8532C46.7066 12.8238 46.6425 12.7808 46.5887 12.7265C46.5349 12.6723 46.4924 12.6079 46.4635 12.5371C46.4347 12.4663 46.4202 12.3905 46.4208 12.3141C46.4208 11.9873 46.6823 11.7305 46.9998 11.7305M47.0091 12.8977C47.1631 12.8965 47.3103 12.8345 47.4188 12.7252C47.5272 12.6158 47.5881 12.4681 47.5881 12.3141C47.5887 12.2377 47.5742 12.1619 47.5454 12.0911C47.5165 12.0203 47.474 11.9559 47.4202 11.9017C47.3663 11.8474 47.3023 11.8044 47.2318 11.775C47.1612 11.7456 47.0855 11.7305 47.0091 11.7305M4.77734 60.5317H60.8389M10.0627 32.3538C10.0627 33.5427 10.2969 34.72 10.7519 35.8184C11.2069 36.9168 11.8737 37.9148 12.7144 38.7555C13.5551 39.5962 14.5531 40.263 15.6515 40.718C16.7499 41.173 17.9272 41.4071 19.1161 41.4071C20.305 41.4071 21.4822 41.173 22.5806 40.718C23.679 40.263 24.6771 39.5962 25.5177 38.7555C26.3584 37.9148 27.0253 36.9168 27.4803 35.8184C27.9352 34.72 28.1694 33.5427 28.1694 32.3538C28.1694 31.1649 27.9352 29.9876 27.4803 28.8892C27.0253 27.7908 26.3584 26.7928 25.5177 25.9521C24.6771 25.1114 23.679 24.4446 22.5806 23.9896C21.4822 23.5346 20.305 23.3005 19.1161 23.3005C17.9272 23.3005 16.7499 23.5346 15.6515 23.9896C14.5531 24.4446 13.5551 25.1114 12.7144 25.9521C11.8737 26.7928 11.2069 27.7908 10.7519 28.8892C10.2969 29.9876 10.0627 31.1649 10.0627 32.3538Z" stroke="#0C0932" stroke-width="4.66908" stroke-linecap="round" stroke-linejoin="round"/>
<path d="M4.76855 60.5374V55.7563C4.76855 51.9516 6.27998 48.3027 8.97032 45.6123C11.6607 42.922 15.3096 41.4105 19.1143 41.4105C22.919 41.4105 26.5679 42.922 29.2582 45.6123C31.9486 48.3027 33.46 51.9516 33.46 55.7563V60.5374M35.2996 31.8273C38.0129 34.4822 41.5544 36.1267 45.3334 36.4863C49.1125 36.8459 52.9006 35.8989 56.0658 33.8033C59.2311 31.7076 61.5821 28.5901 62.7268 24.9707C63.8715 21.3512 63.7406 17.4488 62.3559 13.9142C60.9712 10.3796 58.4165 7.42664 55.1179 5.54787C51.8193 3.6691 47.9762 2.97812 44.2298 3.59019C40.4833 4.20225 37.06 6.08036 34.5308 8.91123C32.0016 11.7421 30.5195 15.3546 30.3317 19.146" stroke="#0C0932" stroke-width="4.66908" stroke-linecap="round" stroke-linejoin="round"/>
<ellipse cx="18.7961" cy="32.2219" rx="6.86448" ry="6.86449" fill="#B1D5F1"/>
<path d="M31.666 54.1008C31.666 51.2561 30.3551 48.528 28.0218 46.5165C25.6885 44.505 22.5239 43.375 19.2241 43.375C15.9243 43.375 12.7597 44.505 10.4264 46.5165C8.09306 48.528 6.78223 51.2561 6.78223 54.1008L19.2241 54.1008H31.666Z" fill="#B1D5F1"/>
<rect x="6.78223" y="54.0977" width="24.8837" height="5.36288" fill="#B1D5F1"/>
<ellipse cx="47.1119" cy="12.4869" rx="3.43224" ry="3.43225" fill="#B1D5F1"/>
<rect x="44.5371" y="17.6328" width="6.00642" height="12.0129" rx="3.00321" fill="#B1D5F1"/>
</svg>
