<svg width="62" height="63" viewBox="0 0 62 63" fill="none" xmlns="http://www.w3.org/2000/svg">
<path d="M19.9333 5.82812H41.4038C49.5831 5.82812 56.2287 12.5219 56.2287 20.7605V42.3866C56.2287 46.3469 54.6668 50.145 51.8866 52.9454C49.1064 55.7457 45.3357 57.319 41.4038 57.319H19.9333C11.754 57.319 5.1084 50.6251 5.1084 42.3866V20.7605C5.1084 16.8002 6.6703 13.0021 9.45051 10.2017C12.2307 7.40135 16.0015 5.82813 19.9333 5.82812ZM19.4221 10.9772C16.9817 10.9772 14.6412 11.9537 12.9155 13.6918C11.1899 15.43 10.2204 17.7874 10.2204 20.2456V42.9015C10.2204 48.0249 14.3356 52.1699 19.4221 52.1699H41.915C44.3555 52.1699 46.696 51.1934 48.4216 49.4552C50.1473 47.7171 51.1167 45.3596 51.1167 42.9015V20.2456C51.1167 15.1222 47.0015 10.9772 41.915 10.9772H19.4221ZM44.0877 14.839C44.935 14.839 45.7477 15.1781 46.3469 15.7816C46.9461 16.3851 47.2827 17.2037 47.2827 18.0572C47.2827 18.9107 46.9461 19.7293 46.3469 20.3328C45.7477 20.9363 44.935 21.2754 44.0877 21.2754C43.2403 21.2754 42.4276 20.9363 41.8284 20.3328C41.2293 19.7293 40.8926 18.9107 40.8926 18.0572C40.8926 17.2037 41.2293 16.3851 41.8284 15.7816C42.4276 15.1781 43.2403 14.839 44.0877 14.839ZM30.6686 18.7008C34.0581 18.7008 37.3087 20.0571 39.7055 22.4712C42.1022 24.8853 43.4487 28.1595 43.4487 31.5735C43.4487 34.9876 42.1022 38.2618 39.7055 40.6759C37.3087 43.09 34.0581 44.4462 30.6686 44.4462C27.2791 44.4462 24.0284 43.09 21.6317 40.6759C19.235 38.2618 17.8885 34.9876 17.8885 31.5735C17.8885 28.1595 19.235 24.8853 21.6317 22.4712C24.0284 20.0571 27.2791 18.7008 30.6686 18.7008ZM30.6686 23.8499C28.6349 23.8499 26.6845 24.6637 25.2464 26.1121C23.8084 27.5606 23.0005 29.5251 23.0005 31.5735C23.0005 33.622 23.8084 35.5865 25.2464 37.035C26.6845 38.4834 28.6349 39.2972 30.6686 39.2972C32.7023 39.2972 34.6527 38.4834 36.0907 37.035C37.5287 35.5865 38.3366 33.622 38.3366 31.5735C38.3366 29.5251 37.5287 27.5606 36.0907 26.1121C34.6527 24.6637 32.7023 23.8499 30.6686 23.8499Z" fill="#070D2D"/>
</svg>
