<svg width="62" height="63" viewBox="0 0 62 63" fill="none" xmlns="http://www.w3.org/2000/svg">
<path d="M49.2283 8.40039C50.5841 8.40039 51.8844 8.94288 52.8431 9.90852C53.8017 10.8742 54.3403 12.1839 54.3403 13.5495V49.5931C54.3403 50.9587 53.8017 52.2684 52.8431 53.234C51.8844 54.1996 50.5841 54.7421 49.2283 54.7421H13.4441C12.0883 54.7421 10.788 54.1996 9.82931 53.234C8.87062 52.2684 8.33203 50.9587 8.33203 49.5931V13.5495C8.33203 12.1839 8.87062 10.8742 9.82931 9.90852C10.788 8.94288 12.0883 8.40039 13.4441 8.40039H49.2283ZM47.9503 48.3058V34.6607C47.9503 32.4348 47.0724 30.3 45.5097 28.726C43.9471 27.152 41.8276 26.2677 39.6177 26.2677C37.4451 26.2677 34.9146 27.6065 33.6877 29.6146V26.7569H26.5564V48.3058H33.6877V35.6133C33.6877 33.6309 35.2725 32.0089 37.2406 32.0089C38.1896 32.0089 39.0998 32.3887 39.7709 33.0646C40.442 33.7406 40.819 34.6574 40.819 35.6133V48.3058H47.9503ZM18.2494 22.7148C19.3882 22.7148 20.4805 22.2592 21.2858 21.448C22.0911 20.6369 22.5435 19.5367 22.5435 18.3896C22.5435 15.9953 20.6265 14.0386 18.2494 14.0386C17.1037 14.0386 16.005 14.497 15.1949 15.313C14.3848 16.129 13.9297 17.2357 13.9297 18.3896C13.9297 20.7839 15.8723 22.7148 18.2494 22.7148ZM21.8022 48.3058V26.7569H14.7221V48.3058H21.8022Z" fill="#070D2D"/>
</svg>
