<svg width="67" height="67" viewBox="0 0 67 67" fill="none" xmlns="http://www.w3.org/2000/svg">
<g clip-path="url(#clip0_702_11897)">
<path d="M65.1807 49.0336H22.6094V15.5201C22.6094 12.124 25.3623 9.37109 28.7583 9.37109H59.0318C62.4278 9.37109 65.1808 12.124 65.1808 15.5201V49.0336H65.1807Z" fill="#B1D5F1"/>
<path d="M11.9032 26.1406H19.7275C21.3193 26.1406 22.6098 27.569 22.6098 29.331V48.9872H1.64062V39.3098C1.64062 38.1781 1.98074 37.0785 2.60747 36.1843L8.26351 28.1142C9.136 26.8691 10.4796 26.1406 11.9032 26.1406Z" fill="#070D2D"/>
<path d="M2.74582 54.43H64.3836C65.3225 54.43 66.0835 53.669 66.0835 52.7301V49.8472C66.0835 49.6199 65.9932 49.4019 65.8325 49.2412C65.6718 49.0805 65.4539 48.9902 65.2266 48.9902H1.6531C1.49208 48.9902 1.33766 49.0542 1.22379 49.168C1.10992 49.2819 1.04593 49.4363 1.0459 49.5973V52.7299C1.0459 53.6688 1.80707 54.43 2.74582 54.43Z" fill="#070D2D"/>
<path d="M5.58876 36.9115L10.5484 29.8393C10.6639 29.6745 10.8416 29.5781 11.0298 29.5781H16.8927C17.2296 29.5781 17.5027 29.8813 17.5027 30.2553V37.3274C17.5027 37.7014 17.2296 38.0046 16.8927 38.0046H6.0702C5.56246 38.0046 5.27686 37.3562 5.58876 36.9115Z" fill="#B1D5F1"/>
<path d="M3.32932 45.8182H1.64062V41.3418H3.32932C4.12112 41.3418 4.76292 41.9836 4.76292 42.7754V44.3844C4.76292 45.1764 4.12112 45.8182 3.32932 45.8182Z" fill="#B1D5F1"/>
<path d="M17.201 55.9779C17.201 58.8157 14.9006 61.116 12.0629 61.116C9.22516 61.116 6.9248 58.8157 6.9248 55.9779C6.9248 53.1402 9.22516 50.8398 12.0629 50.8398C14.9006 50.8398 17.201 53.1403 17.201 55.9779ZM36.7237 50.84C33.886 50.84 31.5857 53.1403 31.5857 55.9781C31.5857 58.8158 33.886 61.1161 36.7237 61.1161C39.5615 61.1161 41.8618 58.8158 41.8618 55.9781C41.8618 53.1403 39.5613 50.84 36.7237 50.84ZM51.0675 50.84C48.2297 50.84 45.9294 53.1403 45.9294 55.9781C45.9294 58.8158 48.2297 61.1161 51.0675 61.1161C53.9052 61.1161 56.2055 58.8158 56.2055 55.9781C56.2055 53.1403 53.9052 50.84 51.0675 50.84Z" fill="#070D2D"/>
<path d="M15.4297 55.981C15.4297 57.8409 13.9219 59.3487 12.062 59.3487C10.2021 59.3487 8.69434 57.8409 8.69434 55.981C8.69434 54.1211 10.2021 52.6133 12.062 52.6133C13.9219 52.6133 15.4297 54.1211 15.4297 55.981ZM36.7229 52.6134C34.863 52.6134 33.3552 54.1212 33.3552 55.9811C33.3552 57.841 34.863 59.3488 36.7229 59.3488C38.5828 59.3488 40.0906 57.841 40.0906 55.9811C40.0906 54.1212 38.5828 52.6134 36.7229 52.6134ZM51.0666 52.6134C49.2067 52.6134 47.6989 54.1212 47.6989 55.9811C47.6989 57.841 49.2067 59.3488 51.0666 59.3488C52.9265 59.3488 54.4343 57.841 54.4343 55.9811C54.4343 54.1212 52.9265 52.6134 51.0666 52.6134Z" fill="#B1D5F1"/>
</g>
<defs>
<clipPath id="clip0_702_11897">
<rect width="65.367" height="65.3671" fill="white" transform="translate(0.770508 0.794922)"/>
</clipPath>
</defs>
</svg>
