<svg width="66" height="66" viewBox="0 0 66 66" fill="none" xmlns="http://www.w3.org/2000/svg">
<g clip-path="url(#clip0_702_11887)">
<path d="M39.1214 17.3093C38.8647 17.043 38.5108 16.8926 38.1409 16.8926H27.2462C26.8763 16.8926 26.5224 17.043 26.2656 17.3093C24.2746 19.3711 6.81836 37.6853 6.81836 45.4914C6.81836 56.7566 18.4268 65.9191 32.6935 65.9191C46.9602 65.9191 58.5686 56.7566 58.5686 45.4914C58.5686 37.6853 41.1124 19.3711 39.1214 17.3093Z" fill="#070D2D"/>
<path d="M50.056 2.36903C47.7871 -0.196694 41.8849 3.16979 38.4966 5.44953C36.9441 3.24333 34.6454 0.546875 32.6925 0.546875C30.7396 0.546875 28.4408 3.24333 26.8883 5.44953C23.5082 3.16711 17.595 -0.199375 15.3289 2.36903C14.7008 3.09332 14.4045 4.04742 14.5118 5.00012C14.9504 10.0444 25.2186 18.3817 26.3871 19.3132C26.6303 19.5084 26.9331 19.6141 27.245 19.6128H38.1398C38.4485 19.6131 38.7481 19.5084 38.9896 19.316C40.158 18.3818 50.4291 10.0555 50.8648 5.00293C50.9764 4.05036 50.6829 3.09472 50.056 2.36903Z" fill="#070D2D"/>
<path d="M43.5849 19.6143H21.7955C21.0434 19.6143 20.4336 19.0045 20.4336 18.2524C20.4336 17.5003 21.0434 16.8906 21.7955 16.8906H43.5851C44.3372 16.8906 44.9469 17.5004 44.9469 18.2525C44.9469 19.0046 44.337 19.6143 43.5849 19.6143Z" fill="#B1D5F1"/>
<path d="M32.691 55.0246C29.4526 55.3444 26.5028 53.1474 25.8818 49.953C25.8186 49.2009 26.3772 48.5399 27.1293 48.4767C27.8814 48.4135 28.5424 48.9721 28.6056 49.7242C28.7255 51.146 30.5585 52.3008 32.6911 52.3008C34.9082 52.3008 36.7767 51.0533 36.7767 49.5771C36.7767 48.2479 35.4856 47.3981 32.7156 46.8807L32.4188 46.8262C27.9983 46.009 25.882 44.2032 25.882 41.406C26.308 38.0493 29.3227 35.6375 32.6911 35.9586C35.9296 35.6388 38.8793 37.8358 39.5003 41.0302C39.5635 41.7823 39.0049 42.4433 38.2528 42.5065C37.5007 42.5697 36.8397 42.0111 36.7765 41.259C36.6621 39.8372 34.8291 38.6824 32.691 38.6824C30.474 38.6824 28.6055 39.9299 28.6055 41.406C28.6055 42.7353 29.8992 43.585 32.672 44.1025L32.9716 44.1597C37.384 44.9768 39.5085 46.7799 39.5085 49.5798C39.0809 52.939 36.0616 55.3505 32.691 55.0246Z" fill="#B1D5F1"/>
<path d="M32.6939 57.7496C31.9418 57.7496 31.332 57.1398 31.332 56.3877V34.5982C31.332 33.8461 31.9418 33.2363 32.6939 33.2363C33.4461 33.2363 34.0558 33.8461 34.0558 34.5982V56.3878C34.0558 57.1398 33.4461 57.7496 32.6939 57.7496Z" fill="#B1D5F1"/>
</g>
<defs>
<clipPath id="clip0_702_11887">
<rect width="65.3686" height="65.3687" fill="white" transform="translate(0.0078125 0.548828)"/>
</clipPath>
</defs>
</svg>
