<svg width="143" height="69" viewBox="0 0 143 69" fill="none" xmlns="http://www.w3.org/2000/svg">
<path d="M30.1191 36.3674L32.948 28.2402H37.0236L31.8212 41.7376C31.134 43.5117 30.3189 44.8223 29.3759 45.6693C28.4329 46.5324 27.2742 46.9639 25.8997 46.9639C24.8288 46.9639 23.9418 46.7322 23.2386 46.2687L23.9338 43.1521C24.4932 43.4557 25.0606 43.6076 25.636 43.6076C26.6908 43.6076 27.5379 42.9363 28.1772 41.5938L28.345 41.2102L22.6152 28.2402H26.9545L30.1191 36.3674Z" fill="#070D2D"/>
<path d="M30.1191 36.3674L32.948 28.2402H37.0236L31.8212 41.7376C31.134 43.5117 30.3189 44.8223 29.3759 45.6693C28.4329 46.5324 27.2742 46.9639 25.8997 46.9639C24.8288 46.9639 23.9418 46.7322 23.2386 46.2687L23.9338 43.1521C24.4932 43.4557 25.0606 43.6076 25.636 43.6076C26.6908 43.6076 27.5379 42.9363 28.1772 41.5938L28.345 41.2102L22.6152 28.2402H26.9545L30.1191 36.3674Z" fill="#070D2D"/>
<path d="M30.1191 36.3674L32.948 28.2402H37.0236L31.8212 41.7376C31.134 43.5117 30.3189 44.8223 29.3759 45.6693C28.4329 46.5324 27.2742 46.9639 25.8997 46.9639C24.8288 46.9639 23.9418 46.7322 23.2386 46.2687L23.9338 43.1521C24.4932 43.4557 25.0606 43.6076 25.636 43.6076C26.6908 43.6076 27.5379 42.9363 28.1772 41.5938L28.345 41.2102L22.6152 28.2402H26.9545L30.1191 36.3674Z" fill="#070D2D"/>
<path d="M30.1191 36.3674L32.948 28.2402H37.0236L31.8212 41.7376C31.134 43.5117 30.3189 44.8223 29.3759 45.6693C28.4329 46.5324 27.2742 46.9639 25.8997 46.9639C24.8288 46.9639 23.9418 46.7322 23.2386 46.2687L23.9338 43.1521C24.4932 43.4557 25.0606 43.6076 25.636 43.6076C26.6908 43.6076 27.5379 42.9363 28.1772 41.5938L28.345 41.2102L22.6152 28.2402H26.9545L30.1191 36.3674Z" fill="#070D2D"/>
<path d="M16.1345 27.8779C17.6848 27.8779 18.9714 28.3574 19.9943 29.3163C21.0172 30.2753 21.5287 31.6338 21.5287 33.3919V41.3752H17.7647V34.1111C17.7647 33.2161 17.541 32.5288 17.0935 32.0494C16.6619 31.5699 16.0786 31.3301 15.3434 31.3301C14.5442 31.3301 13.8969 31.5938 13.4015 32.1213C12.906 32.6487 12.6583 33.3519 12.6583 34.231V41.3752H8.89435V34.1351C8.89435 33.272 8.66261 32.5928 8.19911 32.0973C7.75159 31.5859 7.16023 31.3301 6.42503 31.3301C5.64188 31.3301 5.00257 31.5938 4.50711 32.1213C4.01165 32.6487 3.76392 33.3599 3.76392 34.255V41.3752H0V28.2375H3.66802V30.1075C4.03562 29.4042 4.58703 28.8528 5.32223 28.4533C6.05743 28.0537 6.85656 27.8619 7.71963 27.8779C8.55073 27.8779 9.30191 28.0697 9.97318 28.4533C10.6445 28.8209 11.1479 29.3723 11.4835 30.1075C11.963 29.4042 12.6183 28.8608 13.4494 28.4772C14.2805 28.0777 15.1755 27.8779 16.1345 27.8779Z" fill="#070D2D"/>
<path d="M16.1345 27.8779C17.6848 27.8779 18.9714 28.3574 19.9943 29.3163C21.0172 30.2753 21.5287 31.6338 21.5287 33.3919V41.3752H17.7647V34.1111C17.7647 33.2161 17.541 32.5288 17.0935 32.0494C16.6619 31.5699 16.0786 31.3301 15.3434 31.3301C14.5442 31.3301 13.8969 31.5938 13.4015 32.1213C12.906 32.6487 12.6583 33.3519 12.6583 34.231V41.3752H8.89435V34.1351C8.89435 33.272 8.66261 32.5928 8.19911 32.0973C7.75159 31.5859 7.16023 31.3301 6.42503 31.3301C5.64188 31.3301 5.00257 31.5938 4.50711 32.1213C4.01165 32.6487 3.76392 33.3599 3.76392 34.255V41.3752H0V28.2375H3.66802V30.1075C4.03562 29.4042 4.58703 28.8528 5.32223 28.4533C6.05743 28.0537 6.85656 27.8619 7.71963 27.8779C8.55073 27.8779 9.30191 28.0697 9.97318 28.4533C10.6445 28.8209 11.1479 29.3723 11.4835 30.1075C11.963 29.4042 12.6183 28.8608 13.4494 28.4772C14.2805 28.0777 15.1755 27.8779 16.1345 27.8779Z" fill="#070D2D"/>
<path d="M16.1345 27.8779C17.6848 27.8779 18.9714 28.3574 19.9943 29.3163C21.0172 30.2753 21.5287 31.6338 21.5287 33.3919V41.3752H17.7647V34.1111C17.7647 33.2161 17.541 32.5288 17.0935 32.0494C16.6619 31.5699 16.0786 31.3301 15.3434 31.3301C14.5442 31.3301 13.8969 31.5938 13.4015 32.1213C12.906 32.6487 12.6583 33.3519 12.6583 34.231V41.3752H8.89435V34.1351C8.89435 33.272 8.66261 32.5928 8.19911 32.0973C7.75159 31.5859 7.16023 31.3301 6.42503 31.3301C5.64188 31.3301 5.00257 31.5938 4.50711 32.1213C4.01165 32.6487 3.76392 33.3599 3.76392 34.255V41.3752H0V28.2375H3.66802V30.1075C4.03562 29.4042 4.58703 28.8528 5.32223 28.4533C6.05743 28.0537 6.85656 27.8619 7.71963 27.8779C8.55073 27.8779 9.30191 28.0697 9.97318 28.4533C10.6445 28.8209 11.1479 29.3723 11.4835 30.1075C11.963 29.4042 12.6183 28.8608 13.4494 28.4772C14.2805 28.0777 15.1755 27.8779 16.1345 27.8779Z" fill="#070D2D"/>
<path d="M16.1345 27.8779C17.6848 27.8779 18.9714 28.3574 19.9943 29.3163C21.0172 30.2753 21.5287 31.6338 21.5287 33.3919V41.3752H17.7647V34.1111C17.7647 33.2161 17.541 32.5288 17.0935 32.0494C16.6619 31.5699 16.0786 31.3301 15.3434 31.3301C14.5442 31.3301 13.8969 31.5938 13.4015 32.1213C12.906 32.6487 12.6583 33.3519 12.6583 34.231V41.3752H8.89435V34.1351C8.89435 33.272 8.66261 32.5928 8.19911 32.0973C7.75159 31.5859 7.16023 31.3301 6.42503 31.3301C5.64188 31.3301 5.00257 31.5938 4.50711 32.1213C4.01165 32.6487 3.76392 33.3599 3.76392 34.255V41.3752H0V28.2375H3.66802V30.1075C4.03562 29.4042 4.58703 28.8528 5.32223 28.4533C6.05743 28.0537 6.85656 27.8619 7.71963 27.8779C8.55073 27.8779 9.30191 28.0697 9.97318 28.4533C10.6445 28.8209 11.1479 29.3723 11.4835 30.1075C11.963 29.4042 12.6183 28.8608 13.4494 28.4772C14.2805 28.0777 15.1755 27.8779 16.1345 27.8779Z" fill="#070D2D"/>
<path d="M39.1602 28.3719L44.8623 23.957H47.7617V41.6884H43.8717V29.1637L41.1656 31.2031L39.1602 28.3719Z" fill="#070D2D"/>
<path d="M39.1602 28.3719L44.8623 23.957H47.7617V41.6884H43.8717V29.1637L41.1656 31.2031L39.1602 28.3719Z" fill="#070D2D"/>
<path d="M39.1602 28.3719L44.8623 23.957H47.7617V41.6884H43.8717V29.1637L41.1656 31.2031L39.1602 28.3719Z" fill="#070D2D"/>
<path d="M39.1602 28.3719L44.8623 23.957H47.7617V41.6884H43.8717V29.1637L41.1656 31.2031L39.1602 28.3719Z" fill="#070D2D"/>
<path d="M115.951 29.4904V23.1133H119.715V41.3575H116.071V39.943C115.048 41.1098 113.746 41.6931 112.163 41.6931C110.325 41.6931 108.783 41.0378 107.536 39.7273C106.306 38.4007 105.69 36.7545 105.69 34.7886C105.69 32.8387 106.306 31.2005 107.536 29.874C108.783 28.5474 110.325 27.8841 112.163 27.8841C113.666 27.8841 114.928 28.4195 115.951 29.4904ZM116.143 34.7646C116.143 33.7897 115.823 32.9746 115.184 32.3193C114.561 31.648 113.762 31.3124 112.787 31.3124C111.812 31.3124 111.005 31.648 110.365 32.3193C109.742 32.9906 109.43 33.8057 109.43 34.7646C109.43 35.7556 109.742 36.5867 110.365 37.2579C111.005 37.9292 111.812 38.2649 112.787 38.2649C113.762 38.2649 114.561 37.9292 115.184 37.2579C115.823 36.6027 116.143 35.7716 116.143 34.7646Z" fill="#070D2D"/>
<path d="M115.951 29.4904V23.1133H119.715V41.3575H116.071V39.943C115.048 41.1098 113.746 41.6931 112.163 41.6931C110.325 41.6931 108.783 41.0378 107.536 39.7273C106.306 38.4007 105.69 36.7545 105.69 34.7886C105.69 32.8387 106.306 31.2005 107.536 29.874C108.783 28.5474 110.325 27.8841 112.163 27.8841C113.666 27.8841 114.928 28.4195 115.951 29.4904ZM116.143 34.7646C116.143 33.7897 115.823 32.9746 115.184 32.3193C114.561 31.648 113.762 31.3124 112.787 31.3124C111.812 31.3124 111.005 31.648 110.365 32.3193C109.742 32.9906 109.43 33.8057 109.43 34.7646C109.43 35.7556 109.742 36.5867 110.365 37.2579C111.005 37.9292 111.812 38.2649 112.787 38.2649C113.762 38.2649 114.561 37.9292 115.184 37.2579C115.823 36.6027 116.143 35.7716 116.143 34.7646Z" fill="#070D2D"/>
<path d="M115.951 29.4904V23.1133H119.715V41.3575H116.071V39.943C115.048 41.1098 113.746 41.6931 112.163 41.6931C110.325 41.6931 108.783 41.0378 107.536 39.7273C106.306 38.4007 105.69 36.7545 105.69 34.7886C105.69 32.8387 106.306 31.2005 107.536 29.874C108.783 28.5474 110.325 27.8841 112.163 27.8841C113.666 27.8841 114.928 28.4195 115.951 29.4904ZM116.143 34.7646C116.143 33.7897 115.823 32.9746 115.184 32.3193C114.561 31.648 113.762 31.3124 112.787 31.3124C111.812 31.3124 111.005 31.648 110.365 32.3193C109.742 32.9906 109.43 33.8057 109.43 34.7646C109.43 35.7556 109.742 36.5867 110.365 37.2579C111.005 37.9292 111.812 38.2649 112.787 38.2649C113.762 38.2649 114.561 37.9292 115.184 37.2579C115.823 36.6027 116.143 35.7716 116.143 34.7646Z" fill="#070D2D"/>
<path d="M115.951 29.4904V23.1133H119.715V41.3575H116.071V39.943C115.048 41.1098 113.746 41.6931 112.163 41.6931C110.325 41.6931 108.783 41.0378 107.536 39.7273C106.306 38.4007 105.69 36.7545 105.69 34.7886C105.69 32.8387 106.306 31.2005 107.536 29.874C108.783 28.5474 110.325 27.8841 112.163 27.8841C113.666 27.8841 114.928 28.4195 115.951 29.4904ZM116.143 34.7646C116.143 33.7897 115.823 32.9746 115.184 32.3193C114.561 31.648 113.762 31.3124 112.787 31.3124C111.812 31.3124 111.005 31.648 110.365 32.3193C109.742 32.9906 109.43 33.8057 109.43 34.7646C109.43 35.7556 109.742 36.5867 110.365 37.2579C111.005 37.9292 111.812 38.2649 112.787 38.2649C113.762 38.2649 114.561 37.9292 115.184 37.2579C115.823 36.6027 116.143 35.7716 116.143 34.7646Z" fill="#070D2D"/>
<path d="M103.895 34.4776C103.895 34.8612 103.856 35.3886 103.776 36.0599H94.1141C94.5616 37.7061 95.7523 38.5292 97.6862 38.5292C99.1566 38.5292 100.523 38.1057 101.786 37.2586L103.272 39.8238C101.674 41.0385 99.7559 41.6458 97.5184 41.6458C95.2009 41.6458 93.4188 40.9826 92.1722 39.656C90.9415 38.3294 90.3262 36.6992 90.3262 34.7653C90.3262 32.7994 90.9655 31.1612 92.2441 29.8506C93.5067 28.5401 95.1769 27.8848 97.2547 27.8848C99.1726 27.8848 100.763 28.4761 102.025 29.6588C103.272 30.8416 103.895 32.4478 103.895 34.4776ZM99.1966 31.5768C98.6691 31.1452 98.0218 30.9295 97.2547 30.9295C96.4875 30.9295 95.8162 31.1452 95.2408 31.5768C94.6814 32.0083 94.2979 32.6076 94.0901 33.3748H100.275C100.1 32.6076 99.74 32.0083 99.1966 31.5768Z" fill="#070D2D"/>
<path d="M103.895 34.4776C103.895 34.8612 103.856 35.3886 103.776 36.0599H94.1141C94.5616 37.7061 95.7523 38.5292 97.6862 38.5292C99.1566 38.5292 100.523 38.1057 101.786 37.2586L103.272 39.8238C101.674 41.0385 99.7559 41.6458 97.5184 41.6458C95.2009 41.6458 93.4188 40.9826 92.1722 39.656C90.9415 38.3294 90.3262 36.6992 90.3262 34.7653C90.3262 32.7994 90.9655 31.1612 92.2441 29.8506C93.5067 28.5401 95.1769 27.8848 97.2547 27.8848C99.1726 27.8848 100.763 28.4761 102.025 29.6588C103.272 30.8416 103.895 32.4478 103.895 34.4776ZM99.1966 31.5768C98.6691 31.1452 98.0218 30.9295 97.2547 30.9295C96.4875 30.9295 95.8162 31.1452 95.2408 31.5768C94.6814 32.0083 94.2979 32.6076 94.0901 33.3748H100.275C100.1 32.6076 99.74 32.0083 99.1966 31.5768Z" fill="#070D2D"/>
<path d="M103.895 34.4776C103.895 34.8612 103.856 35.3886 103.776 36.0599H94.1141C94.5616 37.7061 95.7523 38.5292 97.6862 38.5292C99.1566 38.5292 100.523 38.1057 101.786 37.2586L103.272 39.8238C101.674 41.0385 99.7559 41.6458 97.5184 41.6458C95.2009 41.6458 93.4188 40.9826 92.1722 39.656C90.9415 38.3294 90.3262 36.6992 90.3262 34.7653C90.3262 32.7994 90.9655 31.1612 92.2441 29.8506C93.5067 28.5401 95.1769 27.8848 97.2547 27.8848C99.1726 27.8848 100.763 28.4761 102.025 29.6588C103.272 30.8416 103.895 32.4478 103.895 34.4776ZM99.1966 31.5768C98.6691 31.1452 98.0218 30.9295 97.2547 30.9295C96.4875 30.9295 95.8162 31.1452 95.2408 31.5768C94.6814 32.0083 94.2979 32.6076 94.0901 33.3748H100.275C100.1 32.6076 99.74 32.0083 99.1966 31.5768Z" fill="#070D2D"/>
<path d="M103.895 34.4776C103.895 34.8612 103.856 35.3886 103.776 36.0599H94.1141C94.5616 37.7061 95.7523 38.5292 97.6862 38.5292C99.1566 38.5292 100.523 38.1057 101.786 37.2586L103.272 39.8238C101.674 41.0385 99.7559 41.6458 97.5184 41.6458C95.2009 41.6458 93.4188 40.9826 92.1722 39.656C90.9415 38.3294 90.3262 36.6992 90.3262 34.7653C90.3262 32.7994 90.9655 31.1612 92.2441 29.8506C93.5067 28.5401 95.1769 27.8848 97.2547 27.8848C99.1726 27.8848 100.763 28.4761 102.025 29.6588C103.272 30.8416 103.895 32.4478 103.895 34.4776ZM99.1966 31.5768C98.6691 31.1452 98.0218 30.9295 97.2547 30.9295C96.4875 30.9295 95.8162 31.1452 95.2408 31.5768C94.6814 32.0083 94.2979 32.6076 94.0901 33.3748H100.275C100.1 32.6076 99.74 32.0083 99.1966 31.5768Z" fill="#070D2D"/>
<path d="M88.5087 34.4776C88.5087 34.8612 88.4688 35.3886 88.3889 36.0599H78.7273C79.1749 37.7061 80.3656 38.5292 82.2995 38.5292C83.7699 38.5292 85.1364 38.1057 86.399 37.2586L87.8854 39.8238C86.2871 41.0385 84.3692 41.6458 82.1317 41.6458C79.8142 41.6458 78.0321 40.9826 76.7855 39.656C75.5548 38.3294 74.9395 36.6992 74.9395 34.7653C74.9395 32.7994 75.5788 31.1612 76.8574 29.8506C78.12 28.5401 79.7902 27.8848 81.8679 27.8848C83.7859 27.8848 85.3761 28.4761 86.6388 29.6588C87.8854 30.8416 88.5087 32.4478 88.5087 34.4776ZM83.8098 31.5768C83.2824 31.1452 82.6351 30.9295 81.8679 30.9295C81.1008 30.9295 80.4295 31.1452 79.8541 31.5768C79.2947 32.0083 78.9111 32.6076 78.7034 33.3748H84.8887C84.7129 32.6076 84.3532 32.0083 83.8098 31.5768Z" fill="#070D2D"/>
<path d="M88.5087 34.4776C88.5087 34.8612 88.4688 35.3886 88.3889 36.0599H78.7273C79.1749 37.7061 80.3656 38.5292 82.2995 38.5292C83.7699 38.5292 85.1364 38.1057 86.399 37.2586L87.8854 39.8238C86.2871 41.0385 84.3692 41.6458 82.1317 41.6458C79.8142 41.6458 78.0321 40.9826 76.7855 39.656C75.5548 38.3294 74.9395 36.6992 74.9395 34.7653C74.9395 32.7994 75.5788 31.1612 76.8574 29.8506C78.12 28.5401 79.7902 27.8848 81.8679 27.8848C83.7859 27.8848 85.3761 28.4761 86.6388 29.6588C87.8854 30.8416 88.5087 32.4478 88.5087 34.4776ZM83.8098 31.5768C83.2824 31.1452 82.6351 30.9295 81.8679 30.9295C81.1008 30.9295 80.4295 31.1452 79.8541 31.5768C79.2947 32.0083 78.9111 32.6076 78.7034 33.3748H84.8887C84.7129 32.6076 84.3532 32.0083 83.8098 31.5768Z" fill="#070D2D"/>
<path d="M88.5087 34.4776C88.5087 34.8612 88.4688 35.3886 88.3889 36.0599H78.7273C79.1749 37.7061 80.3656 38.5292 82.2995 38.5292C83.7699 38.5292 85.1364 38.1057 86.399 37.2586L87.8854 39.8238C86.2871 41.0385 84.3692 41.6458 82.1317 41.6458C79.8142 41.6458 78.0321 40.9826 76.7855 39.656C75.5548 38.3294 74.9395 36.6992 74.9395 34.7653C74.9395 32.7994 75.5788 31.1612 76.8574 29.8506C78.12 28.5401 79.7902 27.8848 81.8679 27.8848C83.7859 27.8848 85.3761 28.4761 86.6388 29.6588C87.8854 30.8416 88.5087 32.4478 88.5087 34.4776ZM83.8098 31.5768C83.2824 31.1452 82.6351 30.9295 81.8679 30.9295C81.1008 30.9295 80.4295 31.1452 79.8541 31.5768C79.2947 32.0083 78.9111 32.6076 78.7034 33.3748H84.8887C84.7129 32.6076 84.3532 32.0083 83.8098 31.5768Z" fill="#070D2D"/>
<path d="M88.5087 34.4776C88.5087 34.8612 88.4688 35.3886 88.3889 36.0599H78.7273C79.1749 37.7061 80.3656 38.5292 82.2995 38.5292C83.7699 38.5292 85.1364 38.1057 86.399 37.2586L87.8854 39.8238C86.2871 41.0385 84.3692 41.6458 82.1317 41.6458C79.8142 41.6458 78.0321 40.9826 76.7855 39.656C75.5548 38.3294 74.9395 36.6992 74.9395 34.7653C74.9395 32.7994 75.5788 31.1612 76.8574 29.8506C78.12 28.5401 79.7902 27.8848 81.8679 27.8848C83.7859 27.8848 85.3761 28.4761 86.6388 29.6588C87.8854 30.8416 88.5087 32.4478 88.5087 34.4776ZM83.8098 31.5768C83.2824 31.1452 82.6351 30.9295 81.8679 30.9295C81.1008 30.9295 80.4295 31.1452 79.8541 31.5768C79.2947 32.0083 78.9111 32.6076 78.7034 33.3748H84.8887C84.7129 32.6076 84.3532 32.0083 83.8098 31.5768Z" fill="#070D2D"/>
<path d="M63.4475 41.3567H59.6836V28.219H63.3516V30.041C63.7032 29.4017 64.2466 28.8823 64.9818 28.4827C65.733 28.0672 66.5721 27.8594 67.4991 27.8594C68.9216 27.8594 70.1283 28.3309 71.1192 29.2738C72.1101 30.2168 72.6056 31.5674 72.6056 33.3254V41.3567H68.8417V34.3084C68.8417 33.3654 68.6099 32.6302 68.1464 32.1028C67.6829 31.5753 67.0596 31.3116 66.2764 31.3116C65.4294 31.3116 64.7421 31.5993 64.2147 32.1747C63.7032 32.7341 63.4475 33.4773 63.4475 34.4043V41.3567Z" fill="#070D2D"/>
<path d="M63.4475 41.3567H59.6836V28.219H63.3516V30.041C63.7032 29.4017 64.2466 28.8823 64.9818 28.4827C65.733 28.0672 66.5721 27.8594 67.4991 27.8594C68.9216 27.8594 70.1283 28.3309 71.1192 29.2738C72.1101 30.2168 72.6056 31.5674 72.6056 33.3254V41.3567H68.8417V34.3084C68.8417 33.3654 68.6099 32.6302 68.1464 32.1028C67.6829 31.5753 67.0596 31.3116 66.2764 31.3116C65.4294 31.3116 64.7421 31.5993 64.2147 32.1747C63.7032 32.7341 63.4475 33.4773 63.4475 34.4043V41.3567Z" fill="#070D2D"/>
<path d="M63.4475 41.3567H59.6836V28.219H63.3516V30.041C63.7032 29.4017 64.2466 28.8823 64.9818 28.4827C65.733 28.0672 66.5721 27.8594 67.4991 27.8594C68.9216 27.8594 70.1283 28.3309 71.1192 29.2738C72.1101 30.2168 72.6056 31.5674 72.6056 33.3254V41.3567H68.8417V34.3084C68.8417 33.3654 68.6099 32.6302 68.1464 32.1028C67.6829 31.5753 67.0596 31.3116 66.2764 31.3116C65.4294 31.3116 64.7421 31.5993 64.2147 32.1747C63.7032 32.7341 63.4475 33.4773 63.4475 34.4043V41.3567Z" fill="#070D2D"/>
<path d="M63.4475 41.3567H59.6836V28.219H63.3516V30.041C63.7032 29.4017 64.2466 28.8823 64.9818 28.4827C65.733 28.0672 66.5721 27.8594 67.4991 27.8594C68.9216 27.8594 70.1283 28.3309 71.1192 29.2738C72.1101 30.2168 72.6056 31.5674 72.6056 33.3254V41.3567H68.8417V34.3084C68.8417 33.3654 68.6099 32.6302 68.1464 32.1028C67.6829 31.5753 67.0596 31.3116 66.2764 31.3116C65.4294 31.3116 64.7421 31.5993 64.2147 32.1747C63.7032 32.7341 63.4475 33.4773 63.4475 34.4043V41.3567Z" fill="#070D2D"/>
<path d="M86.4494 15.0871C86.4407 15.6085 86.8562 16.0383 87.3776 16.0471C89.0905 16.0759 90.5024 14.7108 90.5313 12.9979C90.5602 11.285 89.195 9.87308 87.4821 9.84421L74.9454 9.63294C61.5758 9.40763 50.6072 20.1763 50.3807 33.6161C50.1542 47.0559 60.7537 58.188 74.1234 58.4133L86.6601 58.6246C88.373 58.6535 89.7849 57.2883 89.8138 55.5754C89.8426 53.8626 88.4775 52.4506 86.7646 52.4217C86.2432 52.413 85.8134 52.8285 85.8046 53.3499L85.7842 54.5632L74.1915 54.3678C63.0984 54.1809 54.2367 44.9322 54.4262 33.6843C54.6158 22.4363 63.7841 13.4915 74.8772 13.6784L86.4699 13.8738L86.4494 15.0871ZM85.8629 49.8925C85.8541 50.4139 86.2697 50.8437 86.7911 50.8525L87.9738 50.8724C89.6866 50.9013 91.0986 49.5362 91.1275 47.8233C91.1563 46.1104 89.7912 44.6985 88.0783 44.6696C87.5569 44.6608 87.1271 45.0764 87.1183 45.5978L87.0979 46.811L86.8592 46.807C86.3378 46.7982 85.908 47.2138 85.8992 47.7352L85.8629 49.8925ZM86.3548 20.7018C86.346 21.2232 86.7616 21.653 87.283 21.6618L87.5216 21.6658L87.5012 22.8791C87.4924 23.4005 87.9079 23.8303 88.4293 23.8391C90.1422 23.868 91.5542 22.5028 91.583 20.7899C91.6119 19.0771 90.2467 17.6651 88.5339 17.6362L87.3512 17.6163C86.8298 17.6075 86.4 18.0231 86.3912 18.5445L86.3548 20.7018Z" fill="#FE5430" stroke="#FE5430" stroke-width="1.88842" stroke-miterlimit="10" stroke-linecap="round" stroke-linejoin="round"/>
<path d="M87.3776 16.0473C87.899 16.0561 88.3288 15.6406 88.3375 15.1192L88.3672 13.3592C88.6443 13.1033 88.9342 12.8524 89.2229 12.6199C89.2328 12.612 89.2425 12.6039 89.252 12.5955C94.4332 8.06879 101.286 5.36922 108.749 5.49499C124.819 5.76581 137.626 19.0117 137.355 35.0821C137.084 51.1524 123.838 63.9593 107.768 63.6885C100.305 63.5627 93.5474 60.6338 88.5216 55.935C88.5124 55.9263 88.503 55.9179 88.4934 55.9096C88.2127 55.6676 87.9314 55.4071 87.6631 55.142L87.6927 53.382C87.7015 52.8606 87.286 52.4308 86.7646 52.422C85.9723 52.4087 85.1718 52.6982 84.5562 53.2934C83.3246 54.4842 83.2915 56.4479 84.4823 57.6795C84.8958 58.1072 85.346 58.5355 85.8031 58.9323C91.5332 64.2695 99.225 67.5911 107.7 67.734C126.005 68.0424 141.092 53.4548 141.401 35.1502C141.709 16.8456 127.122 1.75794 108.817 1.44947C100.342 1.30665 92.5427 4.36722 86.6361 9.50833C86.1658 9.88951 85.7015 10.3024 85.2737 10.7159L85.2737 10.7159C84.0421 11.9067 84.009 13.8704 85.1998 15.102L85.1998 15.102C85.795 15.7176 86.5853 16.034 87.3776 16.0473Z" fill="#FE5430" stroke="#FE5430" stroke-width="1.88842" stroke-miterlimit="10" stroke-linecap="round" stroke-linejoin="round"/>
</svg>
