<svg width="772" height="707" viewBox="0 0 772 707" fill="none" xmlns="http://www.w3.org/2000/svg">
<path d="M482.18 272.416C482.18 272.416 495.195 262.617 496.996 264.878C497.639 265.68 499.137 268.413 500.533 271.395C501.014 272.419 501.199 273.592 501.061 274.745C500.923 275.898 500.47 276.97 499.767 277.808L496.407 281.788C493.209 285.583 487.8 285.31 484.985 281.142C483.56 279.042 482.427 276.206 482.18 272.416Z" fill="url(#paint0_linear_825_3185)"/>
<path d="M468.913 253.803C468.913 253.803 473.379 240.307 478.595 241.544C483.812 242.78 489.521 247.38 489.521 247.38L497.899 260.39C497.899 260.39 474.382 271.029 466.095 264.931C466.095 264.931 442.068 269.697 411.721 263.982C416.116 253.335 418.734 242.678 420.271 234.414C435.644 244.39 452.198 251.851 468.913 253.803Z" fill="url(#paint1_linear_825_3185)"/>
<path d="M341.626 155.906C341.626 155.906 376.031 205.652 420.274 234.4C418.738 242.674 416.12 253.331 411.725 263.968C388.775 259.646 362.212 249.328 339.694 226.401L341.626 155.906Z" fill="#FE5430"/>
<path d="M298.731 376.397C305.45 339.71 312.188 318.47 334.715 248.931C341.806 227.049 348.243 204.906 345.132 181.825L341.635 155.911C341.635 155.911 297.856 138.906 249.325 155.196C249.325 155.196 183.114 188.214 228.086 351.288C248.337 377.32 272.079 384.74 298.731 376.397Z" fill="#FE5430"/>
<path d="M334.175 122.836L322.822 154.144C322.469 155.116 321.907 155.969 321.189 156.625C320.472 157.28 319.621 157.716 318.717 157.893C312.172 159.178 296.34 161.194 285.945 153.347C285.651 153.124 285.399 152.835 285.204 152.498C285.009 152.161 284.874 151.783 284.808 151.386C284.742 150.988 284.746 150.58 284.82 150.184C284.894 149.788 285.036 149.414 285.237 149.082L306.212 114.516L334.175 122.836Z" fill="url(#paint2_linear_825_3185)"/>
<path d="M322.434 74.9362C322.911 75.4505 342.556 119.738 342.556 119.738L320.291 132.079L296.238 93.2811C296.238 93.2811 314.452 66.323 322.434 74.9362Z" fill="url(#paint3_linear_825_3185)"/>
<path d="M306.346 97.9499L317.451 119.2C317.617 119.522 317.822 119.814 318.06 120.069C319.382 121.483 323.906 125.592 327.402 119.997C330.381 115.23 333.178 110.896 336.175 109.109C336.592 108.863 337.047 108.715 337.515 108.673C337.982 108.631 338.452 108.696 338.897 108.863C339.342 109.03 339.754 109.297 340.109 109.648C340.465 109.999 340.756 110.428 340.966 110.908C342.796 115.071 346.341 123.558 348.565 131.606C348.831 132.58 348.767 133.633 348.386 134.556C348.005 135.478 347.334 136.201 346.509 136.581C342 138.679 333.089 142.471 325.182 143.724C324.546 143.824 323.897 143.725 323.305 143.436C322.714 143.147 322.201 142.68 321.823 142.083C318.423 136.735 308.832 121.771 305.56 118.041C302.521 114.564 296.908 115.873 294.382 116.709C293.909 116.865 293.412 116.908 292.924 116.835C292.436 116.761 291.966 116.573 291.544 116.282C288.977 114.508 284.502 110.091 288.596 102.611C289.077 101.705 289.231 100.619 289.026 99.5837C288.821 98.5487 288.272 97.6463 287.497 97.068C284.632 94.9057 281.526 90.8459 284.487 84.2716C287.483 77.6176 292.836 77.0185 296.483 77.5301C298.095 77.7564 299.732 76.7845 300.353 75.0593C300.506 74.6243 300.756 74.2427 301.077 73.9524C301.399 73.662 301.78 73.4728 302.185 73.4035C304.095 72.9587 305.35 70.9532 304.976 68.7549C304.333 64.9908 304.817 60.098 310.053 56.7915C319.661 50.7288 328.076 60.6071 330.211 68.9478C332.345 77.2885 321.608 83.184 314.851 84.1662C309.887 84.8887 307.166 91.1082 306.071 94.3581C305.875 94.9412 305.797 95.5681 305.845 96.1907C305.893 96.8134 306.064 97.4152 306.346 97.9499Z" fill="url(#paint4_linear_825_3185)"/>
<path d="M310.25 124.392C310.25 124.392 305.47 111.485 300.003 112.012C294.536 112.539 290.229 118.792 297.007 125.824C305.437 134.568 310.25 124.392 310.25 124.392Z" fill="url(#paint5_linear_825_3185)"/>
<path d="M303.031 699.715C292.458 700.766 274.105 702.469 259.639 703.201C250.942 703.641 245.934 702.661 243.052 701.337C243.052 701.71 243.065 702.062 243.079 702.391C243.119 703.24 243.432 704.041 243.957 704.64C244.482 705.239 245.181 705.594 245.921 705.636C273.259 707.387 295 706.24 302.74 705.7C303.105 705.679 303.46 705.55 303.769 705.327C304.078 705.103 304.332 704.792 304.507 704.423C304.681 704.054 304.77 703.64 304.764 703.22C304.759 702.8 304.66 702.389 304.476 702.026C304.043 701.218 303.56 700.445 303.031 699.715Z" fill="url(#paint6_linear_825_3185)"/>
<path d="M259.639 703.2C274.105 702.467 292.458 700.765 303.031 699.714C292.634 685.074 259.639 675.203 259.639 675.203H250.317C243.909 685.812 242.98 695.908 243.051 701.336C245.934 702.673 250.942 703.64 259.639 703.2Z" fill="#FFD98E"/>
<path d="M248.75 657.738L249.621 677.551C249.665 678.597 250.025 679.593 250.637 680.369C251.25 681.145 252.078 681.653 252.98 681.807C255.327 682.21 257.723 681.982 259.98 681.141C260.776 680.842 261.488 680.302 262.039 679.578C262.591 678.854 262.963 677.973 263.115 677.027L266.13 657.743L248.75 657.738Z" fill="url(#paint7_linear_825_3185)"/>
<path d="M127.701 703.052C123.116 702.317 121.04 699.584 120.171 696.66C120.171 696.686 120.16 696.712 120.153 696.737C119.481 699.823 121.049 703.018 124.169 704.538C127.95 706.376 132.082 706.687 135.289 706.536C138.732 706.374 141.89 704.736 143.625 702.121L143.652 702.083C140.199 704.044 135.347 704.276 127.701 703.052Z" fill="#070D2D"/>
<path d="M149.322 657.615H141.637C129.93 657.34 122.577 685.687 120.172 696.663C121.041 699.586 123.117 702.319 127.702 703.055C135.348 704.278 140.2 704.047 143.653 702.085C149.978 692.531 153.114 678.539 154.628 670.373C156.335 661.084 149.322 657.615 149.322 657.615Z" fill="#FFD98E"/>
<path d="M142.622 639.223L138.353 658.709C138.101 659.872 138.202 661.098 138.637 662.187C139.073 663.276 139.817 664.163 140.749 664.702C143.137 666.109 146.499 667.587 149.587 667.158C150.297 667.05 150.966 666.717 151.52 666.197C152.074 665.676 152.491 664.989 152.723 664.211L158.994 643.712L142.622 639.223Z" fill="url(#paint8_linear_825_3185)"/>
<path d="M137.534 644.861C142.842 650.26 160.112 650.98 160.112 650.98C222.325 479.574 248.261 432.389 248.261 432.389C239.278 497.084 246.324 663.15 246.324 663.15C256.591 668.351 269.825 663.15 269.825 663.15C270.661 557.235 283.651 443.422 300.404 370.6C258.356 369.515 235.506 358.992 228.205 352.363C193.155 417.23 137.534 644.861 137.534 644.861Z" fill="#070D2D"/>
<path d="M310.997 418.496L303.261 473.736C302.6 478.38 300.399 482.55 297.117 485.371C293.836 488.192 289.731 489.444 285.663 488.865L169.869 472.648C167.134 472.274 164.609 470.779 162.757 468.438C160.905 466.097 159.852 463.067 159.79 459.906C159.542 445.631 160.032 420.229 165.249 397.086L310.997 418.496Z" fill="url(#paint9_linear_825_3185)"/>
<path d="M283.234 485.232C283.301 485.231 283.364 485.201 283.412 485.149C283.46 485.096 283.489 485.025 283.493 484.949C283.497 484.873 283.476 484.798 283.434 484.739C283.392 484.681 283.331 484.642 283.266 484.632L281.192 484.342C281.125 484.337 281.059 484.361 281.007 484.41C280.955 484.459 280.922 484.53 280.914 484.606C280.906 484.683 280.924 484.76 280.964 484.822C281.004 484.883 281.063 484.925 281.129 484.938L283.203 485.229L283.234 485.232ZM288.083 485.054H288.133C288.828 484.899 289.512 484.688 290.182 484.424C290.214 484.411 290.244 484.391 290.27 484.365C290.295 484.339 290.316 484.308 290.331 484.272C290.346 484.237 290.355 484.199 290.357 484.159C290.359 484.12 290.354 484.081 290.343 484.044C290.332 484.007 290.315 483.972 290.292 483.943C290.269 483.913 290.242 483.89 290.211 483.872C290.18 483.855 290.147 483.845 290.113 483.843C290.078 483.84 290.044 483.846 290.012 483.859C289.366 484.114 288.705 484.316 288.034 484.465C287.97 484.479 287.912 484.52 287.873 484.58C287.834 484.64 287.815 484.715 287.821 484.789C287.828 484.864 287.858 484.934 287.906 484.984C287.955 485.034 288.018 485.062 288.083 485.062V485.054ZM276.325 484.262C276.394 484.267 276.461 484.24 276.513 484.188C276.565 484.135 276.596 484.061 276.6 483.982C276.604 483.903 276.581 483.825 276.535 483.766C276.49 483.707 276.425 483.671 276.356 483.666L274.282 483.375C274.248 483.369 274.214 483.372 274.181 483.381C274.147 483.391 274.116 483.409 274.089 483.433C274.062 483.457 274.039 483.487 274.022 483.521C274.006 483.555 273.995 483.593 273.991 483.632C273.983 483.71 274.002 483.789 274.044 483.851C274.086 483.913 274.147 483.954 274.215 483.964L276.287 484.255L276.325 484.262ZM269.413 483.296C269.479 483.295 269.543 483.265 269.591 483.213C269.639 483.16 269.668 483.089 269.672 483.013C269.676 482.937 269.655 482.862 269.612 482.803C269.57 482.744 269.51 482.706 269.444 482.696L267.373 482.408C267.339 482.404 267.304 482.407 267.271 482.417C267.238 482.428 267.207 482.446 267.181 482.47C267.154 482.494 267.131 482.524 267.114 482.559C267.097 482.593 267.087 482.63 267.083 482.669C267.079 482.708 267.081 482.748 267.09 482.786C267.099 482.824 267.115 482.859 267.136 482.89C267.157 482.921 267.184 482.947 267.213 482.966C267.243 482.985 267.276 482.998 267.31 483.002L269.382 483.293L269.413 483.296ZM262.503 482.326C262.572 482.331 262.64 482.304 262.692 482.252C262.743 482.199 262.775 482.125 262.779 482.046C262.783 481.967 262.76 481.889 262.714 481.83C262.668 481.77 262.604 481.734 262.535 481.73L260.463 481.439C260.396 481.433 260.329 481.456 260.276 481.505C260.224 481.554 260.19 481.625 260.181 481.702C260.173 481.779 260.191 481.856 260.231 481.919C260.272 481.981 260.331 482.023 260.398 482.036L262.472 482.326H262.503ZM294.373 481.812C294.43 481.813 294.486 481.792 294.532 481.753C295.093 481.258 295.625 480.72 296.124 480.143C296.167 480.085 296.189 480.011 296.186 479.935C296.183 479.86 296.156 479.788 296.109 479.734C296.062 479.681 295.999 479.65 295.933 479.648C295.866 479.645 295.802 479.672 295.752 479.722C295.271 480.275 294.756 480.791 294.214 481.264C294.169 481.302 294.137 481.355 294.121 481.415C294.104 481.475 294.105 481.54 294.123 481.599C294.14 481.659 294.174 481.711 294.219 481.747C294.264 481.784 294.318 481.803 294.373 481.802V481.812ZM255.594 481.37C255.663 481.375 255.731 481.348 255.782 481.295C255.834 481.243 255.865 481.169 255.869 481.09C255.874 481.01 255.85 480.933 255.804 480.873C255.759 480.814 255.694 480.778 255.625 480.773L253.551 480.483C253.483 480.473 253.414 480.495 253.359 480.544C253.305 480.593 253.27 480.665 253.261 480.744C253.253 480.822 253.272 480.902 253.315 480.964C253.358 481.027 253.42 481.067 253.489 481.077L255.563 481.367L255.594 481.37ZM248.684 480.403C248.751 480.402 248.814 480.373 248.862 480.32C248.91 480.268 248.939 480.196 248.943 480.12C248.947 480.044 248.926 479.969 248.884 479.911C248.841 479.852 248.781 479.814 248.716 479.804L246.642 479.516C246.608 479.511 246.573 479.513 246.54 479.523C246.507 479.533 246.476 479.551 246.449 479.574C246.422 479.598 246.399 479.628 246.383 479.662C246.366 479.696 246.355 479.734 246.351 479.773C246.342 479.851 246.361 479.93 246.403 479.993C246.445 480.055 246.506 480.096 246.575 480.107L248.646 480.398L248.684 480.403ZM241.773 479.434C241.841 479.438 241.909 479.412 241.961 479.359C242.013 479.306 242.044 479.233 242.048 479.153C242.052 479.074 242.029 478.997 241.983 478.937C241.937 478.878 241.873 478.842 241.804 478.837L239.732 478.547C239.665 478.54 239.598 478.564 239.545 478.613C239.493 478.662 239.459 478.732 239.45 478.809C239.442 478.886 239.46 478.964 239.5 479.026C239.541 479.089 239.601 479.13 239.667 479.143L241.741 479.431L241.773 479.434ZM234.863 478.467C234.932 478.472 235 478.445 235.051 478.392C235.103 478.34 235.134 478.266 235.139 478.187C235.143 478.108 235.119 478.03 235.074 477.971C235.028 477.911 234.963 477.875 234.894 477.87L232.82 477.58C232.752 477.57 232.683 477.592 232.628 477.641C232.574 477.69 232.539 477.762 232.53 477.841C232.522 477.92 232.541 477.999 232.584 478.061C232.627 478.124 232.689 478.164 232.758 478.174L234.832 478.464L234.863 478.467ZM227.953 477.5C228.02 477.499 228.083 477.47 228.131 477.417C228.179 477.365 228.208 477.293 228.212 477.217C228.216 477.141 228.195 477.067 228.153 477.008C228.111 476.949 228.051 476.911 227.985 476.901L225.911 476.613C225.877 476.608 225.842 476.611 225.809 476.622C225.776 476.633 225.746 476.65 225.719 476.675C225.692 476.699 225.669 476.729 225.653 476.763C225.636 476.797 225.625 476.835 225.621 476.874C225.617 476.913 225.619 476.953 225.629 476.991C225.638 477.028 225.653 477.064 225.674 477.095C225.696 477.126 225.722 477.151 225.752 477.171C225.781 477.19 225.814 477.202 225.848 477.207L227.922 477.498L227.953 477.5ZM221.044 476.531C221.107 476.531 221.167 476.505 221.215 476.458C221.262 476.41 221.293 476.345 221.302 476.274C221.31 476.195 221.291 476.117 221.249 476.054C221.207 475.992 221.146 475.95 221.078 475.94L218.997 475.646C218.962 475.639 218.926 475.641 218.891 475.65C218.857 475.66 218.824 475.677 218.796 475.701C218.767 475.726 218.743 475.757 218.725 475.792C218.707 475.827 218.696 475.866 218.692 475.907C218.688 475.947 218.69 475.988 218.701 476.028C218.711 476.067 218.727 476.103 218.75 476.135C218.773 476.166 218.801 476.192 218.832 476.211C218.864 476.229 218.899 476.24 218.934 476.243L221.006 476.531H221.044ZM298.749 475.693C298.798 475.693 298.846 475.677 298.887 475.648C298.929 475.618 298.962 475.576 298.984 475.526C299.295 474.794 299.561 474.039 299.781 473.266C299.799 473.191 299.791 473.112 299.759 473.044C299.728 472.976 299.674 472.925 299.611 472.901C299.547 472.876 299.477 472.881 299.417 472.914C299.356 472.947 299.308 473.006 299.284 473.078C299.073 473.825 298.816 474.555 298.516 475.261C298.497 475.306 298.488 475.355 298.49 475.405C298.492 475.455 298.504 475.503 298.527 475.546C298.549 475.589 298.58 475.625 298.617 475.65C298.654 475.676 298.697 475.691 298.74 475.693H298.749ZM214.132 475.564C214.201 475.569 214.269 475.542 214.32 475.49C214.372 475.437 214.403 475.363 214.408 475.284C214.412 475.205 214.388 475.127 214.343 475.068C214.297 475.008 214.232 474.972 214.163 474.968L212.092 474.677C212.023 474.667 211.954 474.689 211.899 474.738C211.845 474.786 211.809 474.858 211.801 474.937C211.792 475.016 211.811 475.095 211.853 475.158C211.896 475.22 211.958 475.261 212.027 475.271L214.101 475.562L214.132 475.564ZM207.223 474.597C207.285 474.597 207.346 474.571 207.394 474.524C207.441 474.477 207.473 474.412 207.482 474.34C207.491 474.262 207.472 474.184 207.43 474.122C207.388 474.059 207.326 474.019 207.258 474.009L205.184 473.718C205.151 473.713 205.116 473.715 205.083 473.725C205.051 473.735 205.02 473.753 204.993 473.777C204.966 473.801 204.943 473.831 204.927 473.865C204.91 473.899 204.899 473.936 204.896 473.975C204.887 474.054 204.905 474.133 204.947 474.196C204.989 474.258 205.051 474.299 205.119 474.309L207.193 474.6L207.223 474.597ZM200.313 473.628C200.347 473.63 200.381 473.625 200.414 473.612C200.446 473.599 200.476 473.58 200.501 473.553C200.527 473.527 200.548 473.496 200.563 473.461C200.578 473.425 200.586 473.387 200.589 473.348C200.591 473.309 200.586 473.269 200.575 473.232C200.564 473.195 200.546 473.161 200.524 473.132C200.501 473.102 200.473 473.078 200.443 473.061C200.412 473.044 200.379 473.034 200.344 473.032L198.27 472.741C198.235 472.734 198.199 472.735 198.165 472.745C198.13 472.754 198.098 472.772 198.069 472.796C198.041 472.82 198.017 472.851 197.999 472.886C197.981 472.922 197.97 472.961 197.965 473.001C197.961 473.042 197.964 473.083 197.974 473.122C197.984 473.161 198.001 473.198 198.024 473.229C198.046 473.261 198.074 473.287 198.106 473.305C198.138 473.324 198.172 473.335 198.208 473.338L200.279 473.626L200.313 473.628ZM193.401 472.661C193.435 472.664 193.47 472.658 193.502 472.646C193.534 472.633 193.564 472.613 193.59 472.587C193.615 472.561 193.636 472.529 193.651 472.494C193.666 472.459 193.675 472.42 193.677 472.381C193.679 472.342 193.674 472.303 193.663 472.266C193.652 472.229 193.634 472.194 193.612 472.165C193.589 472.136 193.562 472.112 193.531 472.094C193.5 472.077 193.467 472.067 193.433 472.065L191.361 471.774C191.292 471.765 191.223 471.787 191.169 471.836C191.114 471.885 191.079 471.957 191.071 472.035C191.062 472.114 191.082 472.193 191.124 472.256C191.167 472.318 191.23 472.359 191.298 472.368L193.37 472.659L193.401 472.661ZM186.492 471.695C186.558 471.694 186.622 471.664 186.67 471.612C186.718 471.559 186.747 471.488 186.751 471.412C186.755 471.336 186.733 471.261 186.691 471.202C186.649 471.144 186.589 471.105 186.523 471.096L184.449 470.805C184.382 470.8 184.316 470.824 184.264 470.873C184.212 470.923 184.179 470.993 184.171 471.069C184.163 471.146 184.181 471.223 184.221 471.285C184.261 471.346 184.32 471.388 184.386 471.402L186.46 471.692L186.492 471.695ZM179.582 470.725C179.651 470.73 179.719 470.703 179.77 470.651C179.822 470.598 179.853 470.524 179.858 470.445C179.862 470.366 179.838 470.288 179.793 470.229C179.747 470.17 179.682 470.134 179.613 470.129L177.539 469.838C177.506 469.834 177.471 469.837 177.438 469.847C177.405 469.858 177.374 469.876 177.347 469.9C177.32 469.924 177.298 469.954 177.281 469.988C177.264 470.023 177.254 470.06 177.249 470.099C177.245 470.138 177.248 470.178 177.257 470.216C177.266 470.253 177.282 470.289 177.303 470.32C177.324 470.351 177.35 470.377 177.38 470.396C177.41 470.415 177.443 470.427 177.477 470.432L179.551 470.723L179.582 470.725ZM172.673 469.748C172.737 469.747 172.799 469.718 172.847 469.667C172.894 469.616 172.923 469.546 172.928 469.472C172.934 469.398 172.915 469.324 172.875 469.265C172.836 469.206 172.779 469.165 172.715 469.152C172.044 469.026 171.385 468.826 170.746 468.555C170.683 468.536 170.616 468.544 170.557 468.578C170.499 468.613 170.454 468.672 170.432 468.742C170.409 468.813 170.411 468.891 170.436 468.961C170.461 469.03 170.508 469.087 170.567 469.118C171.238 469.398 171.93 469.604 172.635 469.733L172.673 469.748ZM300.485 467.992C300.547 467.992 300.608 467.966 300.655 467.918C300.702 467.871 300.733 467.806 300.742 467.735L301.074 465.37C301.085 465.291 301.068 465.211 301.028 465.147C300.987 465.082 300.926 465.039 300.858 465.026C300.789 465.014 300.719 465.033 300.663 465.079C300.607 465.126 300.57 465.196 300.559 465.275L300.227 467.64C300.222 467.68 300.223 467.72 300.231 467.759C300.239 467.798 300.254 467.835 300.275 467.867C300.296 467.899 300.323 467.926 300.353 467.946C300.383 467.967 300.416 467.98 300.451 467.985L300.485 467.992ZM166.607 466.11C166.675 466.11 166.74 466.08 166.789 466.025C166.837 465.969 166.864 465.892 166.864 465.813C166.864 465.734 166.837 465.658 166.789 465.601C166.315 465.04 165.889 464.429 165.517 463.776C165.476 463.716 165.418 463.676 165.353 463.663C165.288 463.651 165.221 463.667 165.166 463.709C165.111 463.75 165.071 463.814 165.055 463.887C165.04 463.961 165.048 464.038 165.08 464.105C165.47 464.789 165.916 465.43 166.413 466.018C166.438 466.046 166.469 466.068 166.503 466.082C166.536 466.096 166.572 466.102 166.607 466.1V466.11ZM301.589 460.104C301.652 460.104 301.712 460.078 301.76 460.031C301.807 459.984 301.838 459.918 301.847 459.847L302.178 457.479C302.183 457.44 302.182 457.4 302.174 457.362C302.166 457.324 302.152 457.288 302.132 457.256C302.112 457.224 302.086 457.197 302.057 457.176C302.028 457.156 301.996 457.142 301.962 457.136C301.928 457.129 301.893 457.131 301.86 457.14C301.827 457.149 301.795 457.166 301.768 457.189C301.74 457.212 301.716 457.241 301.698 457.274C301.68 457.308 301.668 457.345 301.663 457.384L301.331 459.749C301.326 459.789 301.328 459.829 301.336 459.868C301.344 459.907 301.359 459.943 301.38 459.976C301.401 460.008 301.427 460.035 301.457 460.055C301.488 460.075 301.521 460.088 301.555 460.094L301.589 460.104ZM163.622 459.04H163.655C163.724 459.029 163.786 458.987 163.828 458.924C163.87 458.861 163.888 458.781 163.879 458.703C163.831 458.269 163.803 457.832 163.794 457.394L163.779 456.345C163.777 456.266 163.749 456.191 163.7 456.136C163.651 456.08 163.585 456.049 163.517 456.049C163.482 456.05 163.448 456.058 163.417 456.073C163.385 456.089 163.357 456.111 163.333 456.139C163.309 456.168 163.29 456.201 163.277 456.238C163.265 456.274 163.258 456.313 163.259 456.353L163.275 457.404C163.283 457.864 163.313 458.324 163.364 458.78C163.375 458.852 163.407 458.917 163.456 458.962C163.506 459.008 163.568 459.032 163.631 459.029L163.622 459.04ZM302.686 452.213C302.749 452.213 302.809 452.186 302.856 452.139C302.903 452.092 302.933 452.027 302.942 451.956L303.275 449.588C303.281 449.549 303.28 449.51 303.272 449.471C303.264 449.433 303.249 449.397 303.229 449.365C303.209 449.333 303.184 449.306 303.155 449.286C303.126 449.265 303.093 449.251 303.059 449.245C303.025 449.239 302.991 449.24 302.958 449.249C302.924 449.258 302.893 449.275 302.865 449.298C302.837 449.321 302.814 449.35 302.796 449.384C302.778 449.417 302.766 449.454 302.76 449.493L302.427 451.861C302.422 451.901 302.423 451.941 302.432 451.98C302.44 452.018 302.455 452.055 302.476 452.087C302.497 452.119 302.523 452.146 302.553 452.166C302.583 452.186 302.616 452.2 302.651 452.206L302.686 452.213ZM163.49 451.051C163.559 451.051 163.625 451.02 163.673 450.964C163.722 450.908 163.75 450.832 163.75 450.753C163.75 449.973 163.755 449.174 163.767 448.357C163.767 448.277 163.74 448.201 163.692 448.144C163.643 448.087 163.577 448.055 163.508 448.053C163.439 448.055 163.373 448.086 163.324 448.142C163.276 448.197 163.247 448.273 163.246 448.351C163.246 449.169 163.232 449.969 163.228 450.75C163.227 450.79 163.234 450.829 163.247 450.865C163.26 450.902 163.279 450.935 163.303 450.963C163.327 450.991 163.356 451.013 163.388 451.028C163.419 451.043 163.453 451.051 163.487 451.051H163.49ZM303.791 444.323C303.853 444.322 303.914 444.296 303.961 444.249C304.008 444.202 304.039 444.137 304.048 444.065L304.38 441.697C304.391 441.619 304.374 441.539 304.334 441.474C304.293 441.41 304.232 441.367 304.164 441.354C304.095 441.342 304.025 441.361 303.969 441.407C303.913 441.454 303.876 441.524 303.865 441.602L303.533 443.97C303.528 444.01 303.529 444.05 303.538 444.089C303.546 444.128 303.561 444.165 303.582 444.197C303.603 444.229 303.629 444.256 303.659 444.276C303.689 444.296 303.722 444.309 303.757 444.315L303.791 444.323ZM163.613 443.06C163.681 443.06 163.746 443.03 163.795 442.976C163.844 442.921 163.873 442.848 163.875 442.77C163.896 441.983 163.92 441.185 163.949 440.376C163.946 440.3 163.919 440.229 163.873 440.175C163.826 440.122 163.764 440.09 163.698 440.087C163.633 440.084 163.568 440.109 163.518 440.158C163.468 440.207 163.435 440.275 163.427 440.35C163.399 441.163 163.374 441.963 163.353 442.752C163.352 442.791 163.357 442.83 163.369 442.867C163.381 442.903 163.4 442.937 163.423 442.966C163.446 442.994 163.474 443.017 163.505 443.034C163.536 443.05 163.57 443.059 163.604 443.06H163.613ZM304.897 436.434C304.959 436.434 305.019 436.408 305.066 436.36C305.113 436.313 305.144 436.248 305.152 436.177L305.484 433.812C305.495 433.733 305.478 433.653 305.438 433.589C305.397 433.524 305.336 433.481 305.268 433.469C305.199 433.456 305.13 433.475 305.073 433.522C305.017 433.568 304.98 433.638 304.969 433.717L304.637 436.082C304.632 436.122 304.633 436.162 304.642 436.201C304.65 436.24 304.665 436.276 304.686 436.308C304.707 436.341 304.733 436.368 304.763 436.388C304.793 436.408 304.827 436.421 304.861 436.427L304.897 436.434ZM163.935 435.074C164.002 435.074 164.065 435.045 164.113 434.993C164.161 434.941 164.191 434.87 164.195 434.794C164.238 434.005 164.283 433.208 164.334 432.403C164.339 432.362 164.336 432.321 164.326 432.282C164.317 432.242 164.3 432.206 164.277 432.174C164.255 432.142 164.227 432.116 164.195 432.097C164.164 432.078 164.129 432.067 164.093 432.064C164.058 432.061 164.022 432.066 163.988 432.08C163.955 432.093 163.924 432.114 163.897 432.142C163.871 432.17 163.85 432.203 163.835 432.24C163.821 432.278 163.813 432.318 163.812 432.359C163.763 433.166 163.716 433.966 163.676 434.755C163.673 434.795 163.678 434.834 163.689 434.872C163.7 434.909 163.717 434.944 163.74 434.973C163.762 435.003 163.79 435.027 163.821 435.045C163.852 435.062 163.885 435.072 163.92 435.074H163.935ZM306.001 428.544C306.064 428.543 306.124 428.516 306.171 428.469C306.218 428.422 306.249 428.357 306.259 428.286L306.59 425.918C306.597 425.879 306.596 425.839 306.588 425.8C306.581 425.76 306.567 425.723 306.546 425.691C306.526 425.658 306.501 425.63 306.471 425.609C306.441 425.588 306.408 425.574 306.374 425.567C306.339 425.561 306.304 425.563 306.27 425.572C306.236 425.582 306.205 425.599 306.177 425.623C306.148 425.647 306.125 425.677 306.107 425.711C306.089 425.745 306.078 425.784 306.073 425.823L305.741 428.189C305.736 428.228 305.738 428.269 305.746 428.308C305.754 428.346 305.769 428.383 305.79 428.415C305.811 428.447 305.837 428.474 305.867 428.494C305.898 428.515 305.931 428.528 305.965 428.533L306.001 428.544ZM164.471 427.104C164.536 427.103 164.598 427.075 164.646 427.025C164.694 426.975 164.724 426.906 164.731 426.831C164.793 426.042 164.863 425.247 164.934 424.45C164.942 424.372 164.923 424.294 164.881 424.232C164.839 424.17 164.778 424.13 164.71 424.119C164.643 424.111 164.576 424.134 164.522 424.182C164.469 424.229 164.434 424.299 164.424 424.376C164.352 425.178 164.283 425.975 164.22 426.767C164.214 426.846 164.235 426.925 164.279 426.986C164.323 427.047 164.386 427.086 164.455 427.093L164.471 427.104ZM307.105 420.653C307.168 420.652 307.228 420.626 307.276 420.579C307.323 420.532 307.354 420.467 307.363 420.396L307.694 418.028C307.7 417.989 307.699 417.949 307.691 417.911C307.683 417.873 307.668 417.837 307.648 417.805C307.628 417.773 307.603 417.746 307.574 417.725C307.545 417.705 307.512 417.691 307.478 417.684C307.444 417.678 307.41 417.68 307.377 417.689C307.343 417.698 307.312 417.714 307.284 417.737C307.256 417.76 307.233 417.79 307.215 417.823C307.197 417.857 307.185 417.894 307.179 417.933L306.848 420.301C306.843 420.34 306.845 420.38 306.853 420.419C306.862 420.458 306.877 420.494 306.897 420.526C306.918 420.558 306.944 420.585 306.974 420.606C307.004 420.626 307.037 420.639 307.072 420.645L307.105 420.653ZM165.237 419.162C165.3 419.162 165.361 419.136 165.408 419.089C165.456 419.041 165.487 418.976 165.496 418.904C165.586 418.115 165.678 417.323 165.776 416.531C165.781 416.456 165.76 416.381 165.719 416.322C165.677 416.263 165.618 416.224 165.552 416.213C165.487 416.203 165.42 416.221 165.366 416.264C165.311 416.307 165.273 416.372 165.259 416.446C165.161 417.244 165.069 418.035 164.979 418.827C164.974 418.866 164.976 418.906 164.985 418.944C164.994 418.982 165.009 419.018 165.03 419.049C165.051 419.081 165.077 419.107 165.107 419.127C165.136 419.146 165.169 419.159 165.203 419.164L165.237 419.162ZM304.019 417.783C304.083 417.78 304.144 417.749 304.19 417.697C304.236 417.646 304.263 417.576 304.268 417.502C304.272 417.429 304.252 417.356 304.213 417.298C304.173 417.239 304.116 417.2 304.053 417.187L301.981 416.881C301.913 416.873 301.845 416.896 301.791 416.944C301.737 416.993 301.702 417.064 301.694 417.142C301.685 417.219 301.703 417.298 301.744 417.361C301.785 417.424 301.846 417.466 301.914 417.478L303.985 417.781L304.019 417.783ZM297.114 416.77C297.18 416.77 297.244 416.741 297.293 416.689C297.341 416.637 297.371 416.565 297.375 416.489C297.379 416.413 297.358 416.338 297.316 416.279C297.274 416.22 297.213 416.181 297.148 416.171L295.076 415.868C295.007 415.858 294.938 415.879 294.883 415.928C294.828 415.976 294.792 416.048 294.784 416.126C294.775 416.205 294.793 416.285 294.836 416.348C294.878 416.411 294.94 416.452 295.009 416.462L297.08 416.768L297.114 416.77ZM290.209 415.742C290.273 415.738 290.334 415.708 290.38 415.656C290.426 415.604 290.453 415.535 290.457 415.461C290.462 415.387 290.442 415.314 290.402 415.256C290.363 415.198 290.306 415.159 290.242 415.145L288.171 414.84C288.102 414.831 288.034 414.853 287.98 414.901C287.925 414.949 287.888 415.019 287.877 415.097C287.869 415.175 287.888 415.254 287.93 415.317C287.971 415.38 288.033 415.422 288.101 415.433L290.173 415.737L290.209 415.742ZM283.304 414.729C283.37 414.729 283.434 414.7 283.483 414.647C283.531 414.595 283.56 414.524 283.565 414.448C283.569 414.371 283.548 414.296 283.506 414.237C283.463 414.178 283.403 414.14 283.337 414.13L281.266 413.827C281.197 413.816 281.128 413.838 281.073 413.886C281.018 413.935 280.982 414.006 280.973 414.085C280.965 414.164 280.983 414.243 281.025 414.306C281.068 414.369 281.13 414.41 281.198 414.42L283.27 414.726L283.304 414.729ZM276.399 413.713C276.463 413.71 276.524 413.679 276.57 413.627C276.616 413.575 276.643 413.506 276.647 413.432C276.651 413.359 276.632 413.286 276.592 413.228C276.553 413.169 276.496 413.13 276.432 413.117L274.361 412.814C274.327 412.808 274.292 412.811 274.259 412.821C274.226 412.832 274.195 412.849 274.168 412.873C274.141 412.897 274.118 412.927 274.101 412.961C274.084 412.995 274.073 413.033 274.068 413.072C274.064 413.111 274.066 413.151 274.075 413.188C274.084 413.226 274.099 413.262 274.12 413.293C274.141 413.324 274.167 413.35 274.197 413.37C274.227 413.39 274.259 413.402 274.293 413.407L276.365 413.711L276.399 413.713ZM269.494 412.685C269.557 412.686 269.618 412.66 269.666 412.613C269.714 412.565 269.745 412.5 269.754 412.428C269.762 412.349 269.743 412.27 269.701 412.207C269.659 412.144 269.598 412.103 269.53 412.091L267.458 411.788C267.389 411.777 267.32 411.799 267.265 411.847C267.21 411.896 267.174 411.967 267.165 412.046C267.157 412.125 267.175 412.204 267.217 412.267C267.26 412.33 267.322 412.371 267.391 412.382L269.462 412.688L269.494 412.685ZM262.589 411.672C262.653 411.668 262.714 411.638 262.76 411.586C262.805 411.534 262.833 411.465 262.837 411.391C262.841 411.317 262.822 411.244 262.782 411.186C262.742 411.128 262.686 411.089 262.622 411.075L260.55 410.769C260.482 410.761 260.413 410.782 260.359 410.83C260.304 410.878 260.268 410.949 260.257 411.027C260.248 411.105 260.267 411.185 260.309 411.248C260.351 411.311 260.413 411.353 260.481 411.363L262.553 411.667L262.589 411.672ZM166.265 411.232C166.327 411.231 166.387 411.205 166.435 411.158C166.482 411.111 166.513 411.046 166.522 410.975C166.639 410.188 166.76 409.403 166.885 408.62C166.895 408.58 166.898 408.538 166.893 408.496C166.888 408.455 166.875 408.415 166.856 408.379C166.837 408.344 166.811 408.313 166.781 408.289C166.751 408.266 166.717 408.25 166.682 408.242C166.646 408.234 166.609 408.235 166.573 408.245C166.538 408.254 166.504 408.272 166.475 408.297C166.446 408.322 166.422 408.354 166.404 408.391C166.387 408.427 166.376 408.468 166.372 408.509C166.247 409.299 166.124 410.086 166.007 410.875C166.001 410.914 166.003 410.955 166.011 410.994C166.019 411.033 166.034 411.07 166.055 411.102C166.076 411.134 166.103 411.161 166.133 411.181C166.163 411.201 166.196 411.214 166.231 411.219L166.265 411.232ZM255.684 410.659C255.75 410.659 255.814 410.63 255.862 410.577C255.911 410.525 255.94 410.454 255.944 410.377C255.949 410.301 255.928 410.226 255.885 410.167C255.843 410.108 255.783 410.07 255.717 410.06L253.645 409.756C253.577 409.747 253.508 409.768 253.453 409.816C253.398 409.864 253.362 409.935 253.352 410.014C253.343 410.092 253.362 410.171 253.404 410.234C253.446 410.297 253.508 410.338 253.576 410.348L255.648 410.654L255.684 410.659ZM248.778 409.63C248.847 409.635 248.915 409.608 248.967 409.556C249.018 409.503 249.05 409.429 249.054 409.35C249.058 409.271 249.035 409.193 248.989 409.134C248.943 409.075 248.879 409.039 248.81 409.034L246.74 408.728C246.672 408.72 246.604 408.742 246.55 408.791C246.497 408.84 246.462 408.911 246.453 408.989C246.444 409.066 246.462 409.145 246.504 409.208C246.545 409.271 246.606 409.313 246.673 409.325L248.745 409.628L248.778 409.63ZM241.873 408.617C241.94 408.617 242.004 408.588 242.052 408.536C242.101 408.484 242.13 408.412 242.134 408.336C242.139 408.26 242.117 408.185 242.075 408.126C242.033 408.067 241.973 408.028 241.907 408.018L239.835 407.715C239.767 407.705 239.697 407.726 239.642 407.774C239.587 407.822 239.551 407.893 239.542 407.972C239.533 408.051 239.552 408.13 239.594 408.192C239.636 408.255 239.697 408.296 239.766 408.306L241.838 408.612L241.873 408.617ZM234.968 407.589C235.037 407.594 235.105 407.567 235.157 407.514C235.208 407.462 235.24 407.388 235.244 407.309C235.248 407.23 235.225 407.152 235.179 407.093C235.133 407.033 235.069 406.997 235 406.992L232.93 406.687C232.862 406.678 232.794 406.701 232.74 406.75C232.687 406.798 232.652 406.869 232.643 406.947C232.634 407.025 232.652 407.104 232.693 407.166C232.734 407.229 232.795 407.271 232.863 407.283L234.935 407.586L234.968 407.589ZM228.063 406.576C228.13 406.576 228.194 406.547 228.242 406.494C228.291 406.442 228.32 406.371 228.324 406.294C228.328 406.218 228.307 406.143 228.265 406.084C228.223 406.025 228.163 405.987 228.097 405.977L226.025 405.674C225.957 405.664 225.888 405.685 225.833 405.734C225.778 405.782 225.742 405.852 225.732 405.931C225.723 406.009 225.741 406.088 225.783 406.151C225.825 406.214 225.887 406.255 225.956 406.265L228.027 406.571L228.063 406.576ZM221.158 405.548C221.227 405.552 221.295 405.525 221.346 405.473C221.398 405.42 221.429 405.346 221.434 405.267C221.438 405.188 221.414 405.11 221.369 405.051C221.323 404.992 221.258 404.956 221.19 404.951L219.12 404.645C219.052 404.637 218.984 404.66 218.93 404.708C218.877 404.757 218.842 404.828 218.833 404.906C218.824 404.984 218.842 405.062 218.883 405.125C218.924 405.188 218.985 405.23 219.053 405.242L221.125 405.545L221.158 405.548ZM214.253 404.535C214.316 404.535 214.376 404.509 214.424 404.461C214.471 404.414 214.502 404.349 214.511 404.277C214.52 404.199 214.501 404.119 214.459 404.056C214.417 403.993 214.355 403.951 214.287 403.941L212.215 403.637C212.147 403.628 212.078 403.65 212.023 403.698C211.968 403.746 211.932 403.816 211.922 403.894C211.913 403.973 211.931 404.052 211.973 404.115C212.015 404.177 212.077 404.218 212.145 404.229L214.217 404.535H214.253ZM207.348 403.506C207.382 403.508 207.416 403.503 207.449 403.49C207.481 403.477 207.511 403.457 207.536 403.431C207.562 403.405 207.583 403.374 207.598 403.339C207.613 403.303 207.621 403.265 207.623 403.226C207.626 403.187 207.621 403.147 207.61 403.11C207.599 403.073 207.581 403.039 207.558 403.01C207.536 402.98 207.508 402.956 207.478 402.939C207.447 402.922 207.413 402.912 207.379 402.91L205.31 402.604C205.241 402.594 205.172 402.616 205.118 402.664C205.063 402.712 205.026 402.782 205.016 402.861C205.008 402.939 205.026 403.019 205.068 403.082C205.11 403.145 205.172 403.187 205.24 403.198L207.312 403.501L207.348 403.506ZM167.588 403.336C167.648 403.336 167.706 403.313 167.752 403.27C167.799 403.227 167.831 403.167 167.844 403.1C167.993 402.32 168.147 401.542 168.305 400.765C168.313 400.727 168.314 400.687 168.309 400.648C168.303 400.609 168.291 400.572 168.273 400.539C168.255 400.505 168.231 400.476 168.203 400.453C168.175 400.43 168.144 400.414 168.11 400.405C168.043 400.387 167.973 400.401 167.914 400.442C167.855 400.483 167.813 400.55 167.797 400.626C167.637 401.408 167.482 402.19 167.333 402.971C167.318 403.049 167.331 403.13 167.368 403.197C167.406 403.264 167.465 403.311 167.532 403.329L167.588 403.336ZM200.443 402.493C200.509 402.493 200.573 402.464 200.622 402.411C200.67 402.359 200.7 402.288 200.704 402.212C200.708 402.135 200.687 402.06 200.645 402.001C200.603 401.942 200.542 401.904 200.477 401.894L198.405 401.591C198.336 401.581 198.267 401.603 198.212 401.651C198.158 401.699 198.121 401.769 198.111 401.848C198.102 401.926 198.121 402.005 198.163 402.068C198.205 402.131 198.267 402.172 198.335 402.182L200.407 402.488L200.443 402.493ZM193.538 401.465C193.601 401.465 193.662 401.439 193.71 401.392C193.757 401.344 193.789 401.279 193.798 401.207C193.807 401.129 193.788 401.05 193.746 400.987C193.704 400.924 193.642 400.884 193.574 400.873L191.502 400.567C191.434 400.559 191.366 400.582 191.312 400.63C191.259 400.679 191.224 400.75 191.215 400.828C191.206 400.906 191.224 400.984 191.265 401.047C191.306 401.11 191.367 401.152 191.435 401.164L193.506 401.467L193.538 401.465ZM186.633 400.452C186.699 400.451 186.763 400.422 186.812 400.37C186.86 400.318 186.889 400.246 186.894 400.17C186.898 400.094 186.877 400.019 186.835 399.96C186.792 399.901 186.732 399.862 186.666 399.853L184.595 399.549C184.526 399.539 184.457 399.56 184.402 399.609C184.347 399.657 184.311 399.729 184.302 399.808C184.293 399.886 184.312 399.966 184.354 400.029C184.397 400.092 184.459 400.133 184.527 400.143L186.599 400.449L186.633 400.452ZM179.728 399.436C179.792 399.432 179.853 399.402 179.899 399.35C179.945 399.298 179.972 399.229 179.976 399.155C179.98 399.081 179.961 399.008 179.921 398.95C179.882 398.892 179.825 398.853 179.761 398.839L177.69 398.534C177.621 398.525 177.553 398.547 177.498 398.595C177.444 398.643 177.407 398.713 177.396 398.791C177.388 398.869 177.407 398.948 177.448 399.011C177.49 399.074 177.552 399.116 177.62 399.127L179.692 399.431L179.728 399.436ZM172.823 398.423C172.885 398.423 172.946 398.397 172.993 398.35C173.041 398.303 173.072 398.237 173.08 398.166C173.089 398.087 173.071 398.008 173.029 397.945C172.987 397.881 172.925 397.84 172.856 397.829L170.787 397.526C170.718 397.516 170.649 397.538 170.594 397.586C170.54 397.634 170.503 397.704 170.493 397.783C170.484 397.861 170.503 397.94 170.545 398.003C170.587 398.066 170.649 398.107 170.717 398.117L172.789 398.423H172.823Z" fill="white"/>
<path d="M281.573 373.242L281.703 368.912C281.565 368.381 281.314 367.898 280.971 367.507C280.629 367.116 280.207 366.829 279.743 366.673C276.211 365.485 267.4 363.014 262.686 366.074L261.487 370.959L281.573 373.242Z" fill="url(#paint10_linear_825_3185)"/>
<path d="M270.771 367.476C271.564 367.829 272.421 367.953 273.266 367.838C273.77 367.773 274.241 367.516 274.604 367.108C274.966 366.7 275.199 366.164 275.266 365.586L276.757 352.191L270.82 351.316L269.326 364.704C269.262 365.285 269.37 365.874 269.632 366.376C269.894 366.878 270.295 367.266 270.771 367.476Z" fill="url(#paint11_linear_825_3185)"/>
<path d="M224.054 364.793L224.184 360.463C224.046 359.932 223.794 359.449 223.452 359.057C223.109 358.666 222.687 358.38 222.224 358.224C218.692 357.036 209.881 354.565 205.164 357.625L203.968 362.51L224.054 364.793Z" fill="url(#paint12_linear_825_3185)"/>
<path d="M213.252 359.028C214.045 359.381 214.902 359.506 215.747 359.391C216.251 359.325 216.722 359.068 217.084 358.66C217.446 358.252 217.679 357.716 217.745 357.138L219.396 342.331L213.458 341.457L211.807 356.254C211.743 356.835 211.851 357.424 212.113 357.927C212.374 358.43 212.776 358.818 213.252 359.028Z" fill="url(#paint13_linear_825_3185)"/>
<path d="M276.995 355.575L213.398 343.748C212.693 343.62 212.049 343.218 211.572 342.61C211.095 342.001 210.815 341.223 210.779 340.405C210.685 338.06 210.761 334.579 211.617 331.085C212.102 329.157 213.165 327.487 214.617 326.369C216.069 325.252 217.819 324.759 219.557 324.976C231.506 326.4 261.834 330.866 277.705 340.917C278.53 341.438 279.234 342.18 279.758 343.08C280.281 343.979 280.609 345.01 280.713 346.085C280.916 348.162 280.901 350.895 280.041 353.541C279.818 354.233 279.392 354.815 278.836 355.186C278.28 355.557 277.629 355.695 276.995 355.575Z" fill="url(#paint14_linear_825_3185)"/>
<path d="M278.563 352.39C278.719 352.388 278.87 352.326 278.992 352.214C279.114 352.101 279.2 351.945 279.234 351.77C279.585 349.88 279.666 347.938 279.474 346.018C279.336 344.9 278.952 343.84 278.357 342.94C277.763 342.04 276.978 341.33 276.076 340.876C272.634 339.143 266.027 336.091 260.443 335.089C260.353 335.072 260.261 335.075 260.172 335.099C260.082 335.123 259.998 335.167 259.924 335.229C259.85 335.29 259.787 335.368 259.739 335.457C259.691 335.546 259.658 335.646 259.644 335.749C259.629 335.853 259.632 335.959 259.653 336.061C259.674 336.163 259.712 336.26 259.766 336.345C259.819 336.43 259.887 336.503 259.965 336.558C260.042 336.613 260.129 336.65 260.219 336.667C265.85 337.68 272.789 340.971 275.51 342.339C276.192 342.683 276.786 343.22 277.237 343.9C277.688 344.58 277.981 345.381 278.088 346.227C278.251 347.954 278.176 349.7 277.864 351.4C277.823 351.606 277.855 351.823 277.952 352.003C278.05 352.182 278.206 352.31 278.386 352.359C278.443 352.377 278.503 352.387 278.563 352.39Z" fill="white"/>
<path d="M311.39 375.929C290.785 372.586 201.657 358.406 175.329 358.188C174.226 358.173 173.146 358.553 172.24 359.275C171.333 359.996 170.644 361.023 170.269 362.214C167.85 369.928 162.71 387.956 161.033 406.317C160.93 407.534 161.193 408.755 161.779 409.777C162.365 410.799 163.239 411.559 164.253 411.932L222.003 433.475L243.025 436.561L307.69 431.444C308.795 431.36 309.843 430.854 310.67 430.008C311.496 429.162 312.052 428.023 312.25 426.772C313.688 417.622 316.73 396.104 316.118 381.876C316.056 380.408 315.549 379.011 314.686 377.925C313.823 376.84 312.658 376.134 311.39 375.929Z" fill="url(#paint15_linear_825_3185)"/>
<path d="M243.185 430.944L245.268 430.777C245.302 430.774 245.336 430.764 245.366 430.747C245.397 430.729 245.424 430.705 245.447 430.675C245.469 430.646 245.487 430.611 245.497 430.574C245.508 430.537 245.513 430.497 245.51 430.458C245.504 430.38 245.472 430.307 245.42 430.255C245.368 430.204 245.301 430.177 245.232 430.181L243.15 430.345C243.13 430.337 243.11 430.332 243.089 430.33L241.02 430.024C240.952 430.015 240.883 430.038 240.83 430.087C240.776 430.136 240.741 430.206 240.732 430.284C240.724 430.362 240.742 430.441 240.783 430.504C240.824 430.566 240.885 430.608 240.952 430.62L243.024 430.924H243.085C243.117 430.938 243.151 430.945 243.185 430.944ZM250.128 430.394L252.211 430.229C252.246 430.227 252.279 430.216 252.31 430.199C252.34 430.182 252.368 430.157 252.39 430.128C252.413 430.098 252.43 430.064 252.441 430.026C252.451 429.989 252.456 429.95 252.453 429.911C252.448 429.832 252.416 429.758 252.364 429.706C252.312 429.654 252.244 429.628 252.176 429.633L250.09 429.797C250.025 429.806 249.965 429.843 249.923 429.9C249.88 429.958 249.858 430.031 249.86 430.106C249.862 430.182 249.889 430.253 249.935 430.307C249.981 430.361 250.043 430.393 250.108 430.397L250.128 430.394ZM236.162 429.913C236.224 429.913 236.285 429.887 236.332 429.84C236.38 429.793 236.41 429.727 236.419 429.656C236.427 429.577 236.409 429.498 236.367 429.435C236.325 429.372 236.263 429.331 236.195 429.319L234.123 429.016C234.089 429.011 234.055 429.014 234.022 429.024C233.989 429.035 233.958 429.052 233.931 429.076C233.904 429.101 233.881 429.131 233.864 429.165C233.847 429.199 233.837 429.237 233.832 429.276C233.828 429.315 233.83 429.354 233.84 429.392C233.849 429.43 233.864 429.465 233.885 429.496C233.906 429.527 233.932 429.553 233.962 429.573C233.992 429.592 234.024 429.605 234.058 429.61L236.13 429.916L236.162 429.913ZM257.074 429.841H257.072L259.155 429.677C259.224 429.671 259.288 429.635 259.334 429.575C259.38 429.515 259.403 429.437 259.399 429.358C259.391 429.279 259.359 429.207 259.307 429.155C259.255 429.103 259.188 429.075 259.119 429.078L257.036 429.245C256.967 429.247 256.902 429.281 256.855 429.339C256.808 429.397 256.783 429.474 256.785 429.553C256.787 429.632 256.817 429.707 256.867 429.761C256.918 429.815 256.985 429.844 257.054 429.841H257.074ZM264.017 429.291H264.035L266.118 429.126C266.187 429.121 266.252 429.085 266.297 429.025C266.343 428.965 266.366 428.887 266.362 428.808C266.355 428.729 266.322 428.656 266.27 428.604C266.218 428.552 266.151 428.524 266.082 428.527L263.999 428.692C263.93 428.698 263.866 428.735 263.82 428.795C263.775 428.855 263.752 428.934 263.757 429.013C263.762 429.088 263.791 429.159 263.839 429.21C263.886 429.262 263.949 429.29 264.015 429.291H264.017ZM229.254 428.898C229.288 428.9 229.323 428.895 229.355 428.882C229.387 428.869 229.417 428.849 229.443 428.823C229.468 428.797 229.489 428.765 229.504 428.73C229.519 428.695 229.528 428.656 229.53 428.617C229.532 428.578 229.527 428.539 229.516 428.502C229.505 428.465 229.487 428.43 229.465 428.401C229.442 428.372 229.415 428.348 229.384 428.331C229.353 428.313 229.32 428.303 229.286 428.301L227.216 427.995C227.148 427.987 227.08 428.01 227.026 428.058C226.973 428.107 226.938 428.178 226.929 428.256C226.92 428.334 226.938 428.412 226.979 428.475C227.02 428.538 227.081 428.58 227.149 428.592L229.221 428.895L229.254 428.898ZM270.962 428.741H270.98L273.063 428.576C273.129 428.566 273.19 428.528 273.232 428.468C273.274 428.409 273.295 428.334 273.291 428.257C273.286 428.181 273.256 428.109 273.207 428.057C273.158 428.005 273.094 427.977 273.027 427.977L270.944 428.142C270.879 428.151 270.82 428.187 270.777 428.245C270.734 428.302 270.712 428.375 270.714 428.451C270.716 428.526 270.743 428.597 270.789 428.651C270.835 428.705 270.897 428.737 270.962 428.741ZM277.906 428.19H277.924L280.009 428.026C280.078 428.02 280.142 427.983 280.187 427.923C280.233 427.862 280.255 427.784 280.251 427.705C280.244 427.626 280.211 427.554 280.16 427.503C280.108 427.451 280.041 427.424 279.973 427.427L277.89 427.591C277.825 427.6 277.765 427.637 277.722 427.694C277.679 427.751 277.657 427.824 277.659 427.899C277.661 427.974 277.687 428.046 277.733 428.1C277.778 428.154 277.84 428.186 277.906 428.19ZM222.381 427.717C222.443 427.717 222.502 427.691 222.549 427.644C222.596 427.598 222.627 427.534 222.637 427.464C222.647 427.393 222.634 427.321 222.602 427.26C222.57 427.199 222.52 427.154 222.461 427.131L220.477 426.391C220.412 426.373 220.345 426.383 220.287 426.42C220.229 426.457 220.185 426.518 220.165 426.59C220.145 426.662 220.149 426.741 220.177 426.81C220.205 426.879 220.254 426.933 220.315 426.962L222.3 427.702C222.324 427.711 222.349 427.717 222.374 427.717H222.381ZM284.851 427.64H284.869L286.954 427.473C286.988 427.471 287.022 427.46 287.052 427.443C287.083 427.425 287.11 427.401 287.133 427.371C287.155 427.342 287.172 427.307 287.183 427.27C287.194 427.233 287.198 427.194 287.196 427.154C287.19 427.075 287.157 427.002 287.105 426.951C287.053 426.899 286.985 426.872 286.916 426.877L284.833 427.041C284.768 427.05 284.708 427.087 284.665 427.144C284.623 427.201 284.6 427.275 284.603 427.35C284.605 427.425 284.632 427.497 284.678 427.551C284.724 427.604 284.785 427.636 284.851 427.64ZM291.794 427.09H291.812L293.895 426.923C293.964 426.918 294.029 426.881 294.074 426.821C294.12 426.762 294.143 426.684 294.139 426.604C294.132 426.525 294.099 426.453 294.047 426.401C293.995 426.35 293.928 426.323 293.859 426.326L291.776 426.491C291.711 426.5 291.651 426.537 291.609 426.594C291.566 426.651 291.543 426.725 291.546 426.8C291.548 426.875 291.575 426.947 291.621 427C291.667 427.054 291.729 427.086 291.794 427.09ZM298.737 426.54H298.755L300.838 426.375C300.872 426.373 300.906 426.362 300.936 426.345C300.967 426.327 300.994 426.303 301.017 426.274C301.039 426.244 301.056 426.21 301.067 426.172C301.078 426.135 301.082 426.096 301.08 426.056C301.074 425.978 301.041 425.905 300.99 425.854C300.938 425.802 300.871 425.775 300.802 425.779L298.719 425.943C298.654 425.952 298.594 425.989 298.552 426.046C298.509 426.104 298.487 426.177 298.489 426.252C298.491 426.328 298.518 426.399 298.564 426.453C298.61 426.507 298.672 426.539 298.737 426.542V426.54ZM305.68 425.987H305.701L307.439 425.851L307.573 425C307.579 424.96 307.577 424.919 307.569 424.88C307.561 424.841 307.546 424.804 307.525 424.772C307.504 424.739 307.478 424.712 307.448 424.692C307.417 424.671 307.384 424.658 307.349 424.653C307.281 424.64 307.212 424.658 307.155 424.703C307.099 424.748 307.06 424.817 307.047 424.894L306.986 425.285L305.642 425.391C305.573 425.393 305.508 425.427 305.461 425.484C305.414 425.542 305.388 425.619 305.39 425.698C305.392 425.777 305.422 425.852 305.472 425.906C305.522 425.96 305.589 425.989 305.658 425.987H305.68ZM215.755 425.247C215.817 425.246 215.877 425.22 215.924 425.174C215.971 425.127 216.002 425.063 216.012 424.993C216.022 424.922 216.009 424.85 215.977 424.789C215.945 424.729 215.895 424.683 215.836 424.66L213.852 423.92C213.786 423.896 213.714 423.902 213.652 423.938C213.591 423.974 213.544 424.037 213.522 424.113C213.512 424.15 213.507 424.19 213.51 424.229C213.513 424.268 213.522 424.307 213.538 424.342C213.553 424.377 213.575 424.408 213.601 424.434C213.627 424.459 213.658 424.479 213.69 424.491L215.675 425.231C215.7 425.242 215.726 425.248 215.753 425.249L215.755 425.247ZM209.135 422.776C209.198 422.778 209.259 422.754 209.308 422.708C209.357 422.662 209.389 422.597 209.399 422.526C209.409 422.454 209.396 422.381 209.363 422.32C209.33 422.258 209.278 422.213 209.218 422.192L207.231 421.449C207.166 421.429 207.097 421.438 207.038 421.474C206.979 421.511 206.934 421.572 206.913 421.645C206.892 421.718 206.896 421.798 206.925 421.868C206.954 421.938 207.005 421.992 207.068 422.02L209.054 422.76C209.082 422.771 209.112 422.776 209.142 422.776H209.135ZM202.516 420.305C202.579 420.306 202.64 420.282 202.688 420.235C202.737 420.189 202.769 420.125 202.778 420.053C202.788 419.982 202.775 419.909 202.742 419.848C202.709 419.787 202.657 419.742 202.597 419.721L200.61 418.981C200.578 418.969 200.544 418.964 200.51 418.967C200.475 418.97 200.442 418.981 200.412 418.999C200.381 419.016 200.354 419.041 200.332 419.071C200.31 419.1 200.293 419.135 200.282 419.172C200.272 419.21 200.268 419.249 200.27 419.288C200.273 419.327 200.282 419.365 200.298 419.4C200.313 419.435 200.335 419.466 200.361 419.492C200.387 419.517 200.417 419.537 200.449 419.549L202.434 420.292C202.46 420.3 202.487 420.304 202.514 420.305H202.516ZM308.137 419.726C308.2 419.726 308.26 419.7 308.308 419.653C308.355 419.605 308.386 419.54 308.395 419.469C308.502 418.698 308.619 417.927 308.724 417.099C308.732 417.022 308.713 416.944 308.672 416.882C308.631 416.821 308.571 416.78 308.504 416.768C308.437 416.756 308.369 416.774 308.314 416.818C308.258 416.863 308.22 416.93 308.207 417.006C308.098 417.824 307.989 418.613 307.88 419.374C307.874 419.414 307.876 419.454 307.884 419.492C307.893 419.531 307.908 419.568 307.929 419.599C307.95 419.631 307.976 419.658 308.006 419.678C308.036 419.698 308.069 419.711 308.104 419.716C308.115 419.721 308.126 419.725 308.137 419.726ZM195.9 417.837C195.962 417.835 196.022 417.809 196.068 417.762C196.115 417.716 196.146 417.652 196.155 417.581C196.164 417.511 196.152 417.44 196.119 417.379C196.087 417.318 196.037 417.273 195.979 417.25L193.994 416.51C193.961 416.494 193.925 416.487 193.889 416.488C193.853 416.489 193.818 416.498 193.785 416.516C193.752 416.533 193.723 416.558 193.699 416.589C193.675 416.62 193.657 416.656 193.646 416.696C193.635 416.735 193.631 416.777 193.635 416.818C193.638 416.859 193.649 416.899 193.667 416.935C193.684 416.971 193.708 417.003 193.737 417.028C193.765 417.053 193.798 417.071 193.833 417.081L195.82 417.821C195.843 417.831 195.868 417.836 195.894 417.837H195.9ZM189.28 415.366C189.342 415.365 189.401 415.339 189.448 415.293C189.495 415.246 189.527 415.182 189.536 415.112C189.546 415.042 189.534 414.969 189.501 414.909C189.469 414.848 189.419 414.802 189.36 414.78L187.374 414.039C187.34 414.023 187.304 414.016 187.268 414.017C187.232 414.018 187.197 414.028 187.164 414.045C187.132 414.062 187.103 414.087 187.079 414.118C187.055 414.149 187.037 414.186 187.026 414.225C187.015 414.264 187.011 414.306 187.014 414.347C187.018 414.388 187.028 414.428 187.046 414.464C187.063 414.5 187.087 414.532 187.116 414.557C187.145 414.582 187.177 414.6 187.212 414.61L189.199 415.35C189.223 415.36 189.248 415.365 189.273 415.366H189.28ZM182.659 412.895C182.722 412.896 182.783 412.872 182.831 412.826C182.879 412.779 182.911 412.715 182.921 412.643C182.931 412.572 182.918 412.499 182.884 412.438C182.851 412.377 182.8 412.332 182.74 412.311L180.753 411.571C180.687 411.546 180.616 411.553 180.554 411.589C180.493 411.624 180.446 411.687 180.425 411.762C180.403 411.838 180.409 411.92 180.44 411.99C180.472 412.061 180.526 412.114 180.592 412.139L182.578 412.879C182.602 412.893 182.627 412.903 182.652 412.908L182.659 412.895ZM309.179 411.82C309.242 411.82 309.302 411.794 309.35 411.747C309.398 411.699 309.429 411.634 309.439 411.563C309.533 410.781 309.626 409.988 309.719 409.182C309.728 409.103 309.709 409.024 309.667 408.961C309.624 408.898 309.562 408.857 309.494 408.847C309.425 408.836 309.356 408.858 309.301 408.906C309.246 408.955 309.21 409.026 309.201 409.105C309.109 409.907 309.015 410.702 308.921 411.481C308.916 411.52 308.918 411.56 308.927 411.598C308.935 411.636 308.95 411.672 308.971 411.703C308.992 411.735 309.018 411.761 309.048 411.781C309.078 411.8 309.111 411.813 309.145 411.818L309.179 411.82ZM176.038 410.424C176.101 410.426 176.162 410.401 176.21 410.355C176.259 410.308 176.29 410.244 176.3 410.173C176.31 410.101 176.297 410.029 176.264 409.968C176.231 409.906 176.179 409.861 176.119 409.84L174.132 409.1C174.1 409.088 174.066 409.083 174.032 409.086C173.997 409.089 173.964 409.1 173.934 409.118C173.903 409.135 173.876 409.16 173.854 409.19C173.832 409.22 173.815 409.254 173.804 409.292C173.794 409.329 173.79 409.368 173.792 409.407C173.795 409.446 173.804 409.485 173.82 409.519C173.835 409.554 173.857 409.586 173.883 409.611C173.908 409.637 173.939 409.656 173.971 409.668L175.958 410.411C175.982 410.419 176.007 410.423 176.032 410.424H176.038ZM169.418 407.956C169.48 407.955 169.54 407.929 169.587 407.883C169.634 407.836 169.665 407.772 169.674 407.702C169.684 407.632 169.672 407.56 169.639 407.499C169.607 407.438 169.557 407.392 169.498 407.37L167.512 406.629C167.447 406.611 167.38 406.621 167.322 406.658C167.264 406.695 167.22 406.756 167.2 406.828C167.179 406.901 167.184 406.979 167.212 407.048C167.239 407.117 167.289 407.171 167.35 407.2L169.337 407.94C169.361 407.95 169.386 407.955 169.411 407.956H169.418ZM310.055 403.886C310.118 403.886 310.179 403.86 310.226 403.813C310.274 403.766 310.305 403.7 310.314 403.629C310.391 402.837 310.467 402.04 310.538 401.243C310.545 401.202 310.544 401.16 310.536 401.119C310.528 401.079 310.512 401.041 310.491 401.008C310.469 400.974 310.442 400.946 310.41 400.926C310.379 400.905 310.344 400.893 310.308 400.888C310.272 400.884 310.235 400.888 310.201 400.901C310.166 400.914 310.135 400.935 310.107 400.962C310.08 400.989 310.058 401.023 310.043 401.061C310.028 401.098 310.02 401.139 310.019 401.181C309.947 401.978 309.872 402.772 309.795 403.562C309.787 403.64 309.806 403.718 309.848 403.78C309.89 403.842 309.951 403.883 310.019 403.893L310.055 403.886ZM166.643 402.68C166.705 402.679 166.766 402.653 166.813 402.606C166.86 402.559 166.891 402.494 166.9 402.423C166.997 401.633 167.1 400.844 167.209 400.057C167.217 399.98 167.198 399.903 167.157 399.841C167.116 399.779 167.056 399.738 166.989 399.726C166.923 399.715 166.854 399.733 166.799 399.777C166.744 399.821 166.705 399.889 166.692 399.965C166.584 400.755 166.481 401.547 166.383 402.34C166.378 402.38 166.38 402.419 166.389 402.457C166.398 402.495 166.413 402.531 166.434 402.562C166.455 402.594 166.481 402.62 166.51 402.64C166.54 402.659 166.573 402.672 166.607 402.677L166.643 402.68ZM310.706 395.938C310.772 395.938 310.835 395.909 310.883 395.858C310.932 395.806 310.961 395.736 310.966 395.661C311.02 394.857 311.068 394.058 311.11 393.264C311.114 393.223 311.111 393.182 311.102 393.142C311.092 393.103 311.075 393.066 311.052 393.034C311.029 393.002 311 392.976 310.968 392.957C310.936 392.938 310.901 392.928 310.865 392.925C310.829 392.923 310.794 392.929 310.76 392.943C310.726 392.957 310.695 392.979 310.669 393.007C310.643 393.036 310.622 393.07 310.608 393.108C310.594 393.146 310.587 393.187 310.588 393.228C310.544 394.017 310.497 394.813 310.447 395.617C310.444 395.656 310.448 395.696 310.458 395.733C310.469 395.77 310.486 395.805 310.508 395.835C310.53 395.865 310.558 395.889 310.588 395.907C310.619 395.925 310.652 395.935 310.686 395.938H310.706ZM167.789 394.812C167.85 394.812 167.909 394.788 167.956 394.744C168.003 394.7 168.035 394.639 168.047 394.571C168.18 393.78 168.317 392.998 168.459 392.223C168.472 392.146 168.458 392.065 168.42 391.999C168.382 391.933 168.323 391.887 168.256 391.871C168.188 391.855 168.118 391.87 168.06 391.913C168.002 391.955 167.961 392.023 167.946 392.1C167.805 392.871 167.666 393.666 167.534 394.457C167.528 394.496 167.528 394.536 167.535 394.574C167.541 394.612 167.555 394.649 167.574 394.681C167.593 394.714 167.618 394.742 167.646 394.763C167.675 394.785 167.707 394.8 167.74 394.807C167.757 394.807 167.773 394.804 167.789 394.799V394.812ZM311.049 387.94C311.117 387.939 311.183 387.908 311.231 387.852C311.28 387.797 311.308 387.722 311.309 387.644C311.318 387.066 311.322 386.495 311.322 385.929V385.24C311.322 385.075 311.204 384.911 311.06 384.942C311.026 384.942 310.992 384.95 310.96 384.966C310.928 384.981 310.9 385.003 310.876 385.032C310.851 385.06 310.832 385.093 310.82 385.13C310.807 385.166 310.8 385.206 310.8 385.245V385.929C310.8 386.49 310.796 387.058 310.787 387.634C310.786 387.673 310.793 387.712 310.805 387.749C310.818 387.786 310.837 387.82 310.861 387.848C310.884 387.876 310.913 387.899 310.945 387.915C310.976 387.931 311.01 387.939 311.045 387.94H311.049ZM169.274 386.988C169.333 386.988 169.39 386.965 169.436 386.923C169.482 386.881 169.514 386.823 169.527 386.757C169.691 385.986 169.859 385.196 170.027 384.443C170.035 384.405 170.037 384.365 170.032 384.326C170.027 384.287 170.015 384.249 169.998 384.215C169.98 384.181 169.957 384.152 169.929 384.128C169.901 384.105 169.87 384.087 169.837 384.078C169.803 384.068 169.769 384.066 169.735 384.072C169.701 384.078 169.668 384.091 169.639 384.112C169.61 384.132 169.584 384.159 169.564 384.19C169.544 384.222 169.529 384.258 169.521 384.296C169.351 385.068 169.185 385.839 169.021 386.628C169.013 386.667 169.011 386.707 169.017 386.746C169.022 386.785 169.034 386.822 169.052 386.856C169.069 386.89 169.093 386.919 169.121 386.942C169.149 386.965 169.18 386.982 169.214 386.991L169.274 386.988ZM308.997 381.797C309.062 381.794 309.123 381.764 309.169 381.712C309.215 381.661 309.243 381.591 309.248 381.517C309.252 381.444 309.233 381.37 309.193 381.312C309.154 381.254 309.097 381.214 309.033 381.201L306.962 380.869C306.893 380.858 306.824 380.879 306.769 380.927C306.714 380.974 306.678 381.045 306.668 381.124C306.659 381.202 306.677 381.282 306.718 381.345C306.76 381.408 306.822 381.45 306.89 381.46L308.959 381.795L308.997 381.797ZM302.097 380.694C302.164 380.695 302.228 380.666 302.277 380.614C302.326 380.562 302.355 380.49 302.36 380.414C302.365 380.338 302.344 380.262 302.301 380.203C302.259 380.144 302.199 380.105 302.133 380.095L300.063 379.769C299.995 379.759 299.926 379.781 299.871 379.829C299.816 379.877 299.78 379.947 299.77 380.026C299.765 380.065 299.767 380.105 299.775 380.143C299.784 380.182 299.799 380.218 299.82 380.249C299.841 380.281 299.867 380.308 299.897 380.327C299.926 380.347 299.959 380.36 299.994 380.365L302.063 380.692L302.097 380.694ZM295.198 379.602C295.263 379.598 295.324 379.568 295.37 379.516C295.416 379.465 295.444 379.396 295.449 379.322C295.453 379.248 295.434 379.175 295.394 379.116C295.355 379.058 295.298 379.018 295.234 379.005L293.163 378.681C293.094 378.671 293.025 378.692 292.97 378.74C292.915 378.788 292.879 378.86 292.869 378.938C292.864 378.977 292.867 379.017 292.875 379.055C292.884 379.093 292.899 379.129 292.92 379.16C292.941 379.191 292.967 379.218 292.997 379.237C293.026 379.257 293.059 379.27 293.093 379.275L295.163 379.602H295.198ZM171.024 379.247C171.081 379.247 171.136 379.226 171.181 379.186C171.226 379.147 171.259 379.091 171.274 379.028C171.467 378.241 171.658 377.47 171.848 376.714C171.86 376.676 171.865 376.634 171.863 376.593C171.861 376.552 171.852 376.512 171.836 376.475C171.82 376.439 171.797 376.406 171.77 376.38C171.742 376.354 171.71 376.334 171.676 376.322C171.641 376.311 171.605 376.307 171.57 376.312C171.534 376.317 171.5 376.331 171.469 376.351C171.438 376.372 171.411 376.4 171.39 376.433C171.369 376.467 171.354 376.504 171.346 376.544C171.156 377.295 170.963 378.067 170.773 378.858C170.763 378.896 170.76 378.936 170.764 378.975C170.768 379.013 170.779 379.051 170.795 379.085C170.812 379.12 170.834 379.15 170.861 379.174C170.888 379.198 170.919 379.216 170.952 379.226C170.975 379.238 170.999 379.247 171.024 379.252V379.247ZM288.298 378.522C288.362 378.519 288.423 378.488 288.47 378.437C288.516 378.385 288.544 378.316 288.548 378.242C288.553 378.168 288.533 378.095 288.494 378.036C288.454 377.978 288.397 377.938 288.334 377.925L286.262 377.604C286.226 377.595 286.19 377.594 286.154 377.602C286.118 377.61 286.084 377.626 286.055 377.65C286.025 377.674 285.999 377.705 285.981 377.74C285.962 377.776 285.949 377.816 285.944 377.857C285.94 377.899 285.942 377.941 285.952 377.981C285.963 378.021 285.98 378.058 286.003 378.09C286.026 378.122 286.055 378.148 286.088 378.167C286.121 378.185 286.156 378.196 286.193 378.198L288.262 378.519L288.298 378.522ZM281.397 377.455C281.462 377.451 281.522 377.42 281.568 377.369C281.614 377.317 281.642 377.247 281.646 377.174C281.65 377.1 281.63 377.027 281.591 376.969C281.551 376.911 281.494 376.871 281.431 376.858L279.361 376.539C279.293 376.529 279.223 376.55 279.169 376.599C279.114 376.647 279.077 376.718 279.068 376.796C279.063 376.835 279.065 376.875 279.074 376.913C279.083 376.951 279.098 376.987 279.119 377.018C279.14 377.05 279.166 377.076 279.195 377.096C279.225 377.115 279.258 377.128 279.292 377.133L281.361 377.452L281.397 377.455ZM274.494 376.4C274.559 376.397 274.62 376.366 274.665 376.314C274.711 376.263 274.739 376.193 274.743 376.119C274.747 376.046 274.728 375.973 274.688 375.915C274.648 375.856 274.591 375.817 274.528 375.804L272.456 375.49C272.422 375.485 272.388 375.487 272.354 375.497C272.321 375.506 272.29 375.524 272.262 375.548C272.235 375.572 272.212 375.602 272.195 375.636C272.178 375.67 272.167 375.708 272.163 375.747C272.155 375.826 272.173 375.905 272.215 375.968C272.257 376.031 272.319 376.073 272.387 376.084L274.459 376.398L274.494 376.4ZM267.589 375.372C267.654 375.368 267.715 375.338 267.76 375.286C267.806 375.234 267.834 375.165 267.838 375.091C267.842 375.017 267.822 374.944 267.783 374.886C267.743 374.828 267.686 374.789 267.623 374.776L265.551 374.464C265.483 374.456 265.415 374.479 265.361 374.528C265.308 374.576 265.273 374.647 265.264 374.725C265.255 374.803 265.273 374.882 265.314 374.944C265.356 375.007 265.416 375.049 265.484 375.061L267.556 375.369L267.589 375.372ZM260.684 374.344C260.751 374.343 260.815 374.314 260.863 374.262C260.912 374.21 260.941 374.138 260.945 374.062C260.949 373.986 260.928 373.911 260.886 373.852C260.844 373.793 260.784 373.754 260.718 373.745L258.651 373.441C258.58 373.44 258.511 373.471 258.459 373.526C258.407 373.582 258.375 373.658 258.371 373.739C258.369 373.777 258.374 373.815 258.385 373.851C258.396 373.887 258.414 373.92 258.436 373.948C258.459 373.975 258.486 373.998 258.516 374.013C258.547 374.029 258.579 374.037 258.613 374.038L260.655 374.341L260.684 374.344ZM253.779 373.333C253.846 373.332 253.909 373.303 253.957 373.25C254.005 373.198 254.034 373.126 254.038 373.05C254.042 372.974 254.021 372.9 253.979 372.841C253.936 372.782 253.876 372.744 253.811 372.734L251.739 372.436C251.67 372.426 251.601 372.448 251.546 372.496C251.492 372.545 251.456 372.617 251.448 372.696C251.439 372.774 251.458 372.854 251.5 372.916C251.543 372.979 251.605 373.02 251.674 373.03L253.746 373.331L253.779 373.333ZM246.872 372.338C246.906 372.34 246.94 372.335 246.973 372.322C247.005 372.309 247.035 372.29 247.06 372.264C247.086 372.237 247.107 372.206 247.122 372.171C247.137 372.135 247.145 372.097 247.147 372.058C247.149 372.019 247.145 371.979 247.134 371.942C247.122 371.905 247.105 371.871 247.082 371.842C247.06 371.812 247.032 371.788 247.002 371.771C246.971 371.754 246.937 371.744 246.903 371.742L244.832 371.446C244.763 371.437 244.695 371.459 244.641 371.507C244.586 371.555 244.55 371.625 244.54 371.703C244.531 371.781 244.55 371.861 244.592 371.923C244.634 371.986 244.696 372.027 244.764 372.037L246.838 372.333L246.872 372.338ZM173.021 371.598C173.077 371.597 173.131 371.577 173.176 371.539C173.22 371.501 173.253 371.448 173.27 371.387C173.491 370.588 173.706 369.829 173.915 369.109C173.937 369.033 173.932 368.951 173.9 368.88C173.869 368.81 173.815 368.756 173.749 368.731C173.684 368.706 173.612 368.712 173.55 368.748C173.489 368.783 173.442 368.846 173.42 368.921C173.212 369.641 172.995 370.405 172.773 371.207C172.762 371.244 172.759 371.284 172.761 371.323C172.764 371.362 172.774 371.4 172.79 371.435C172.806 371.47 172.827 371.501 172.854 371.526C172.88 371.551 172.91 371.571 172.943 371.582C172.968 371.591 172.995 371.594 173.021 371.593V371.598ZM239.962 371.361C239.997 371.363 240.031 371.358 240.063 371.345C240.095 371.332 240.125 371.312 240.151 371.286C240.176 371.26 240.197 371.229 240.212 371.194C240.227 371.158 240.236 371.12 240.238 371.081C240.24 371.042 240.235 371.002 240.224 370.965C240.213 370.928 240.196 370.894 240.173 370.865C240.15 370.835 240.123 370.811 240.092 370.794C240.061 370.777 240.028 370.767 239.994 370.765L237.92 370.477C237.886 370.472 237.851 370.475 237.818 370.485C237.785 370.496 237.755 370.514 237.728 370.538C237.701 370.562 237.678 370.592 237.661 370.627C237.645 370.661 237.634 370.699 237.63 370.738C237.626 370.777 237.628 370.816 237.637 370.854C237.647 370.892 237.662 370.927 237.683 370.958C237.704 370.989 237.731 371.015 237.76 371.034C237.79 371.053 237.823 371.066 237.857 371.071L239.931 371.359L239.962 371.361ZM233.051 370.41C233.117 370.409 233.18 370.379 233.229 370.327C233.277 370.274 233.305 370.203 233.309 370.127C233.313 370.051 233.292 369.976 233.25 369.917C233.208 369.859 233.148 369.821 233.082 369.811L231.006 369.53C230.972 369.525 230.938 369.528 230.905 369.538C230.872 369.549 230.841 369.566 230.815 369.59C230.788 369.614 230.765 369.644 230.749 369.678C230.732 369.711 230.721 369.749 230.717 369.788C230.709 369.866 230.727 369.945 230.769 370.007C230.811 370.07 230.873 370.111 230.941 370.122L233.015 370.402L233.051 370.41ZM226.137 369.479C226.205 369.483 226.273 369.456 226.325 369.404C226.376 369.351 226.407 369.277 226.411 369.198C226.415 369.118 226.391 369.041 226.345 368.982C226.299 368.923 226.235 368.887 226.166 368.883L224.089 368.607C224.022 368.6 223.954 368.622 223.901 368.67C223.847 368.718 223.811 368.787 223.8 368.865C223.793 368.942 223.812 369.021 223.854 369.083C223.896 369.145 223.957 369.185 224.024 369.196L226.098 369.469L226.137 369.479ZM219.218 368.579C219.281 368.579 219.342 368.553 219.389 368.506C219.437 368.458 219.468 368.393 219.478 368.322C219.485 368.244 219.466 368.167 219.424 368.105C219.383 368.043 219.321 368.003 219.254 367.993L217.178 367.736C217.142 367.728 217.106 367.729 217.071 367.739C217.036 367.748 217.003 367.766 216.974 367.79C216.945 367.815 216.921 367.846 216.903 367.882C216.886 367.918 216.874 367.957 216.87 367.998C216.866 368.039 216.87 368.081 216.88 368.12C216.891 368.16 216.908 368.196 216.932 368.227C216.955 368.259 216.984 368.284 217.016 368.302C217.048 368.32 217.084 368.331 217.119 368.332L219.196 368.589L219.218 368.579ZM212.297 367.713C212.366 367.717 212.434 367.689 212.485 367.636C212.536 367.583 212.567 367.509 212.571 367.43C212.574 367.351 212.55 367.273 212.504 367.214C212.458 367.156 212.393 367.12 212.324 367.116L210.248 366.859C210.18 366.852 210.113 366.874 210.059 366.922C210.005 366.97 209.97 367.039 209.959 367.116C209.952 367.194 209.971 367.271 210.013 367.333C210.055 367.394 210.116 367.434 210.183 367.445L212.259 367.702L212.297 367.713ZM205.372 366.89C205.438 366.888 205.501 366.858 205.548 366.805C205.596 366.752 205.624 366.68 205.627 366.605C205.63 366.529 205.609 366.455 205.567 366.396C205.524 366.338 205.464 366.301 205.399 366.291L203.318 366.054C203.251 366.048 203.184 366.07 203.132 366.118C203.079 366.166 203.044 366.235 203.034 366.311C203.028 366.39 203.049 366.469 203.093 366.53C203.137 366.591 203.2 366.63 203.269 366.638L205.345 366.874L205.372 366.89ZM198.442 366.119C198.508 366.116 198.571 366.085 198.618 366.032C198.665 365.979 198.693 365.908 198.696 365.832C198.699 365.757 198.677 365.682 198.635 365.624C198.592 365.567 198.532 365.529 198.467 365.52L196.386 365.301C196.318 365.296 196.25 365.321 196.198 365.372C196.146 365.423 196.114 365.496 196.107 365.574C196.101 365.652 196.122 365.73 196.165 365.791C196.209 365.852 196.271 365.891 196.339 365.9L198.418 366.116L198.442 366.119ZM191.499 365.422C191.565 365.422 191.628 365.394 191.676 365.343C191.724 365.292 191.754 365.222 191.759 365.147C191.764 365.067 191.742 364.989 191.697 364.929C191.652 364.868 191.588 364.83 191.519 364.823L189.436 364.635C189.402 364.632 189.368 364.637 189.335 364.649C189.303 364.661 189.273 364.681 189.247 364.706C189.221 364.732 189.199 364.763 189.184 364.798C189.168 364.833 189.159 364.871 189.156 364.91C189.154 364.949 189.158 364.989 189.169 365.026C189.179 365.063 189.196 365.098 189.218 365.128C189.241 365.158 189.268 365.182 189.298 365.2C189.329 365.218 189.362 365.229 189.396 365.232C190.068 365.291 190.767 365.355 191.477 365.422H191.499ZM184.556 364.836C184.625 364.838 184.692 364.809 184.742 364.755C184.792 364.7 184.822 364.625 184.824 364.546C184.826 364.467 184.8 364.39 184.753 364.333C184.706 364.275 184.641 364.241 184.572 364.239C183.852 364.184 183.156 364.136 182.484 364.095C182.45 364.093 182.416 364.098 182.384 364.111C182.352 364.124 182.322 364.145 182.296 364.171C182.271 364.197 182.25 364.228 182.235 364.264C182.22 364.299 182.212 364.337 182.21 364.377C182.208 364.416 182.213 364.455 182.224 364.492C182.235 364.529 182.253 364.563 182.276 364.592C182.299 364.622 182.326 364.646 182.357 364.663C182.388 364.68 182.421 364.689 182.455 364.692C183.127 364.736 183.821 364.784 184.538 364.836H184.556ZM177.602 364.445C177.667 364.438 177.727 364.403 177.771 364.348C177.815 364.293 177.84 364.22 177.84 364.145C177.84 364.07 177.815 363.998 177.771 363.943C177.727 363.887 177.667 363.853 177.602 363.846C176.86 363.82 176.162 363.805 175.51 363.797C175.445 363.804 175.384 363.838 175.34 363.894C175.296 363.949 175.272 364.021 175.272 364.096C175.272 364.171 175.296 364.244 175.34 364.299C175.384 364.354 175.445 364.389 175.51 364.396C176.161 364.396 176.855 364.412 177.593 364.445H177.602Z" fill="white"/>
<path d="M222.853 443.905L241.271 446.612C242.435 446.784 243.614 446.461 244.584 445.703C245.555 444.945 246.25 443.805 246.538 442.499L250.933 422.467C251.097 421.713 251.119 420.927 250.999 420.161C250.879 419.396 250.619 418.669 250.236 418.027C249.854 417.386 249.357 416.845 248.778 416.44C248.2 416.035 247.553 415.776 246.881 415.679L224.755 412.429C224.095 412.33 223.425 412.39 222.786 412.604C222.148 412.819 221.555 413.184 221.047 413.676C220.538 414.168 220.124 414.776 219.831 415.462C219.538 416.148 219.373 416.896 219.346 417.659L218.658 438.228C218.611 439.605 219.016 440.953 219.793 442.004C220.57 443.055 221.662 443.734 222.853 443.905Z" fill="url(#paint16_linear_825_3185)"/>
<path opacity="0.32" d="M225.535 440.496L239.553 442.553C240.439 442.685 241.336 442.44 242.074 441.864C242.813 441.289 243.342 440.422 243.562 439.429L246.908 424.182C247.033 423.608 247.05 423.009 246.959 422.427C246.867 421.844 246.669 421.291 246.377 420.803C246.086 420.314 245.707 419.903 245.267 419.595C244.826 419.287 244.334 419.09 243.822 419.017L226.984 416.543C226.482 416.468 225.972 416.513 225.486 416.677C225 416.84 224.549 417.118 224.162 417.492C223.774 417.866 223.459 418.329 223.236 418.851C223.014 419.373 222.888 419.943 222.867 420.523L222.343 436.184C222.309 437.231 222.618 438.254 223.209 439.052C223.8 439.85 224.629 440.365 225.535 440.496Z" fill="url(#paint17_linear_825_3185)"/>
<path d="M236.489 278.364C232.147 298.969 232.03 319.129 232.682 326.47C232.801 327.809 233.329 329.057 234.171 329.994C235.013 330.931 236.117 331.497 237.287 331.592C240.033 331.813 243.782 332.106 247.112 332.324C250.783 332.566 254.857 329.902 257.583 327.676C258.974 326.539 260.775 328.308 259.998 330.054C258.654 333.062 256.333 335.43 254.024 337.443C252.636 338.654 248.022 340.804 248.344 343.19C248.445 343.941 248.841 344.596 249.265 345.183C251.829 348.713 255.708 350.6 259.538 351.95C260.02 352.119 260.526 352.299 260.864 352.721C260.961 355.549 253.343 358.722 251.377 359.47C248.433 360.62 245.309 361.037 242.214 360.694C234.55 359.766 227.472 353.693 223.344 346.373C212.307 326.796 206.603 303.16 204.517 285.08C214.793 273.304 230.292 276.292 236.489 278.364Z" fill="url(#paint18_linear_825_3185)"/>
<path d="M204.526 286.957C196.34 215.961 243.999 161.371 243.999 161.371L272.356 199.321C250.828 230.125 240.595 258.354 235.918 280.524C229.719 278.442 214.793 275.176 204.526 286.957Z" fill="#FE5430"/>
<path d="M236.595 280.174C236.989 280.173 237.371 280.021 237.68 279.741C237.99 279.461 238.208 279.07 238.301 278.631C244.064 251.3 256.219 224.244 274.401 198.214C274.55 198.008 274.661 197.77 274.728 197.515C274.796 197.259 274.818 196.99 274.795 196.725C274.771 196.459 274.701 196.201 274.59 195.966C274.479 195.732 274.328 195.525 274.147 195.357C273.965 195.19 273.756 195.066 273.532 194.992C273.309 194.919 273.074 194.897 272.843 194.928C272.612 194.959 272.389 195.042 272.186 195.174C271.983 195.305 271.805 195.481 271.662 195.692C253.146 222.187 240.772 249.773 234.888 277.682C234.825 277.979 234.822 278.288 234.878 278.586C234.935 278.884 235.05 279.164 235.214 279.404C235.378 279.644 235.588 279.838 235.827 279.971C236.066 280.104 236.329 280.174 236.595 280.174Z" fill="url(#paint19_linear_825_3185)"/>
<path d="M620.636 701.055C620.627 700.702 620.659 700.349 620.73 700.006C625.29 679.249 647.925 666.324 647.925 666.324L656.895 667.132C662.047 685.425 661.39 696.645 660.562 701.644C660.539 701.782 660.501 701.916 660.47 702.052C653.07 702.808 637.842 703.305 620.636 701.055Z" fill="#401F00"/>
<path d="M660.469 702.046C660.068 703.714 658.995 705.013 657.622 705.345C647.095 707.885 630.369 705.841 623.354 704.787C621.804 704.555 620.667 702.91 620.644 701.051C637.841 703.301 653.069 702.804 660.469 702.046Z" fill="url(#paint20_linear_825_3185)"/>
<path d="M660.5 651.789L656.692 672.782C656.415 674.325 655.384 675.474 654.137 675.61C652.179 675.838 650.204 675.801 648.253 675.502C646.293 675.173 644.927 672.885 645.274 670.432L647.915 651.792L660.5 651.789Z" fill="url(#paint21_linear_825_3185)"/>
<path d="M581.79 701.783C591.697 701.467 596.821 700.127 599.471 698.883C599.471 700.014 599.471 701.166 599.439 702.356C599.404 703.642 598.584 704.647 597.571 704.64L543.182 704.238C541.446 704.238 540.432 701.924 541.184 700.086C548.315 700.762 566.477 702.277 581.79 701.783Z" fill="url(#paint22_linear_825_3185)"/>
<path d="M541.183 700.082C541.244 699.917 541.319 699.76 541.407 699.612C546.209 691.898 558.445 676.564 582.618 669.91L594.215 669.488C594.215 669.488 599.367 679.793 599.477 698.879C596.827 700.123 591.702 701.463 581.796 701.779C566.476 702.273 548.315 700.758 541.183 700.082Z" fill="#401F00"/>
<path d="M596.874 649.934C596.693 650.914 594.278 665.852 593.344 671.645C593.12 673.02 592.189 674.031 591.075 674.103C589.091 674.231 585.888 674.244 583.133 673.388C581.648 672.923 580.649 671.184 580.755 669.254L582.054 645.625L596.874 649.934Z" fill="url(#paint23_linear_825_3185)"/>
<path d="M605.663 374.114C605.663 374.114 589.71 499.96 578.197 649.704C577.973 652.494 579.918 654.921 582.305 655.497C585.821 656.348 590.993 657.359 595.271 657.22C596.38 657.178 597.443 656.696 598.278 655.857C599.113 655.017 599.669 653.872 599.851 652.615C603.782 626.222 631.76 484.515 639.105 453.325C639.105 453.325 647.544 585.807 644.845 654.538C644.811 655.363 645.05 656.171 645.515 656.801C645.979 657.431 646.635 657.835 647.349 657.932C650.81 658.357 654.301 658.346 657.759 657.899C658.602 657.801 659.392 657.384 660.005 656.714C660.617 656.043 661.018 655.157 661.143 654.196C663.936 631.851 680.018 498.836 679.332 403.019C679.294 397.619 673.811 353.219 673.811 353.219L605.663 374.114Z" fill="#747487"/>
<path d="M676.208 381.381C677.011 381.048 677.716 380.461 678.24 379.688C678.765 378.914 679.088 377.986 679.171 377.01C681.292 353.381 691.564 206.879 626.714 146.615C626.714 146.615 622.994 135.446 592.427 162.903C561.859 190.36 578.224 219.141 585.542 258.836C594.397 306.87 609.937 346.133 603.063 375.694C602.829 376.678 602.923 377.726 603.327 378.635C603.731 379.544 604.415 380.247 605.247 380.607C628.995 390.657 652.648 390.992 676.208 381.381Z" fill="#070D2D"/>
<path d="M601.417 102.719C601.44 104.804 627.333 147.027 627.333 147.027C627.333 147.027 622.686 157.535 600.497 166.066L581.342 120.858L601.417 102.719Z" fill="url(#paint24_linear_825_3185)"/>
<path d="M581.028 78.5195C581.028 78.5195 571.816 102.819 571.196 115.572C570.576 128.325 568.183 136.601 581.028 139.17C593.873 141.738 604.696 134.39 610.559 121.686C610.559 121.686 619.742 102.112 617.684 94.0953C615.625 86.0786 581.028 78.5195 581.028 78.5195Z" fill="url(#paint25_linear_825_3185)"/>
<path d="M606.169 112.555L605.437 112.184C605.216 112.074 605.018 111.912 604.854 111.71C604.69 111.507 604.564 111.269 604.483 111.008C604.403 110.748 604.369 110.471 604.385 110.196C604.402 109.92 604.467 109.651 604.577 109.405C606.387 105.386 609.919 96.1792 605.356 94.0323C599.477 91.2633 576.191 85.8048 571.167 76.3276C566.336 67.2105 570.616 55.4425 577.046 52.0949C577.251 51.9862 577.484 51.9703 577.699 52.0503C577.914 52.1304 578.094 52.3006 578.204 52.5268L578.739 53.6915C578.821 53.8678 578.946 54.0122 579.1 54.1061C579.253 54.2001 579.427 54.2394 579.6 54.2189C579.773 54.1985 579.937 54.1193 580.071 53.9914C580.204 53.8636 580.301 53.6929 580.35 53.5013C580.396 53.317 580.488 53.1521 580.615 53.0263C580.741 52.9004 580.896 52.8191 581.061 52.792C581.227 52.7648 581.396 52.793 581.547 52.8733C581.699 52.9535 581.828 53.0822 581.918 53.2442C583.463 56.0724 587.631 60.6824 598.783 63.0453C614.633 66.4031 625.111 73.7771 625.37 86.3344C625.374 86.5125 625.418 86.6863 625.499 86.8382C625.58 86.99 625.695 87.1144 625.832 87.1986C625.969 87.2829 626.122 87.3239 626.277 87.3175C626.432 87.3111 626.583 87.2576 626.714 87.1623C627.883 86.3421 629.756 85.959 632.258 88.3759C636.612 92.5745 634.829 103.473 625.29 112.436C625.182 112.532 625.096 112.656 625.038 112.798C624.98 112.939 624.952 113.094 624.956 113.25C624.96 113.407 624.996 113.56 625.061 113.697C625.126 113.834 625.218 113.952 625.33 114.041C627.059 115.326 629.637 118.412 622.958 122.51C616.046 126.75 610.886 126.403 608.9 126.025C608.783 126.003 608.671 125.953 608.572 125.88C608.472 125.806 608.387 125.71 608.321 125.598C608.255 125.485 608.21 125.358 608.188 125.225C608.166 125.091 608.168 124.954 608.194 124.821L610.315 113.766C610.344 113.619 610.343 113.467 610.314 113.321C610.284 113.175 610.226 113.039 610.145 112.922C610.063 112.804 609.959 112.71 609.841 112.645C609.724 112.58 609.595 112.547 609.464 112.547L606.169 112.555Z" fill="url(#paint26_linear_825_3185)"/>
<path d="M605.771 114.888C605.771 114.888 609.285 99.3664 615.348 103.719C621.411 108.072 612.212 121.11 607.327 121.689L605.771 114.888Z" fill="url(#paint27_linear_825_3185)"/>
<path d="M582.852 172.941L580.603 230.435C575.965 232.43 571.239 234.094 566.448 235.418C563.64 224.208 564.447 218.709 559.384 208.478C571.368 198.161 582.852 172.941 582.852 172.941Z" fill="#070D2D"/>
<path d="M579.682 327.003C567.756 285.029 576.608 262.894 590.256 249.083C585.402 239.162 578.558 226.461 571.873 218.404C524.454 279.78 572.486 332.124 572.486 332.124L579.682 327.003Z" fill="url(#paint28_linear_825_3185)"/>
<path d="M580.09 328.847C580.09 328.847 584.407 327.776 588.397 332.387C592.388 336.998 595.352 342.07 599.89 341.571C604.428 341.072 603.163 345.596 603.163 345.596L590.118 346.224L580.09 328.847Z" fill="url(#paint29_linear_825_3185)"/>
<path d="M571.83 329.98C571.83 329.98 578.45 323.207 582.883 328.403C587.316 333.599 594.507 350.079 598.3 351.133C602.093 352.187 607.842 352.048 609.119 354.74L602.673 356.895C602.673 356.895 615.101 358.111 614.439 362.936L593.906 360.679C593.906 360.679 573.827 340.953 571.83 329.98Z" fill="url(#paint30_linear_825_3185)"/>
<path d="M611.601 247.688C611.601 247.688 562.47 294.922 509.42 274.312C507.795 273.671 506.074 273.417 504.361 273.565C502.649 273.713 500.98 274.261 499.458 275.174L484.207 284.43C481.125 286.299 477.535 286.74 474.177 285.661C470.82 284.583 467.951 282.067 466.162 278.632C464.043 274.562 462.236 269.913 461.875 265.462L491.719 251.578L489.52 247.38C489.52 247.38 504.089 245.961 507.904 257.95C507.904 257.95 535.658 271.201 582.462 212.102C582.462 212.107 603.703 232.838 611.601 247.688Z" fill="url(#paint31_linear_825_3185)"/>
<path d="M614.246 247.195C614.414 247.195 614.578 247.137 614.716 247.028C635.402 230.984 645.134 205.085 645.23 204.826C645.308 204.592 645.303 204.333 645.218 204.103C645.132 203.873 644.972 203.69 644.771 203.592C644.571 203.495 644.345 203.49 644.142 203.58C643.938 203.669 643.773 203.846 643.68 204.072C643.589 204.33 634.036 229.712 613.776 245.429C613.627 245.545 613.514 245.712 613.455 245.907C613.395 246.102 613.391 246.314 613.443 246.511C613.496 246.708 613.602 246.881 613.747 247.005C613.891 247.128 614.066 247.194 614.246 247.195Z" fill="#070D2D"/>
<path d="M583.432 211.305C583.573 211.305 583.712 211.265 583.836 211.187C583.959 211.109 584.064 210.997 584.14 210.86C584.202 210.749 590.523 199.457 602.559 174.713C606.261 167.105 611.126 162.286 617.019 160.394C626.777 157.265 636.182 163.269 636.28 163.33C636.473 163.442 636.696 163.464 636.903 163.392C637.11 163.32 637.284 163.16 637.391 162.944C637.498 162.729 637.528 162.474 637.476 162.234C637.424 161.993 637.294 161.785 637.111 161.651C636.704 161.394 627.033 155.175 616.587 158.53C610.239 160.564 605.027 165.691 601.097 173.772C589.089 198.454 582.794 209.706 582.731 209.816C582.61 210.031 582.569 210.293 582.616 210.543C582.663 210.793 582.795 211.012 582.982 211.151C583.116 211.25 583.272 211.304 583.432 211.305Z" fill="#070D2D"/>
<g opacity="0.2">
<path fill-rule="evenodd" clip-rule="evenodd" d="M445.241 526.03C445.397 537.579 453.712 546.759 463.813 546.536L570.091 544.185C678.925 541.777 765.466 437.89 763.769 312.581C762.073 187.271 672.77 87.2745 563.936 89.6822L457.658 92.0333C447.557 92.2568 365.146 122.57 365.302 134.119C365.459 145.667 412.523 256.732 458.224 133.854L457.941 112.943L385.27 284.601C483.814 282.421 290.442 87.5148 291.985 201.494C293.528 315.473 434.891 542.672 336.347 544.852L445.229 536.015L463.246 504.716C453.146 504.939 445.084 514.482 445.241 526.03ZM462.792 471.205L452.766 471.427C442.666 471.65 434.351 462.47 434.194 450.921C434.038 439.373 442.099 429.83 452.2 429.607L416.348 504.85L462.509 450.295L462.792 471.205ZM346.966 223.277L458.678 167.364L448.652 167.586C438.551 167.809 430.49 177.352 430.646 188.901C430.803 200.449 439.118 209.63 449.218 209.406L421.606 198.772L346.966 223.277Z" fill="#FE5430" stroke="#FE5430" stroke-width="15.9776" stroke-miterlimit="10" stroke-linecap="round" stroke-linejoin="round"/>
<path fill-rule="evenodd" clip-rule="evenodd" d="M458.637 132.909L458.354 111.982C455.153 108.447 451.665 104.917 448.182 101.715C402.849 56.488 435.586 326.023 370.245 327.469C229.533 330.583 221.84 287.168 152.644 360.557C252.558 284.152 229.533 330.583 370.245 327.469C435.586 326.023 409.975 582.9 454.057 535.694C457.451 532.34 460.841 528.658 463.945 524.983L463.662 504.056C468.344 503.953 473.054 505.892 476.682 509.899C483.938 517.913 484.117 531.163 477.083 539.493C473.695 543.505 470.004 547.523 466.27 551.231C419.005 601.709 355.575 633.233 285.69 634.78C134.873 638.118 10.7281 500.999 8.393 328.502C6.05789 156.006 126.417 13.476 277.234 10.1383C347.119 8.59162 411.365 37.29 459.967 85.647C463.8 89.1872 467.597 93.0396 471.091 96.8989C478.347 104.913 478.526 118.163 471.492 126.493C467.975 130.658 463.32 132.805 458.637 132.909Z" fill="#FE5430"/>
<path d="M370.245 327.469C435.586 326.023 402.849 56.488 448.182 101.715C451.665 104.917 455.153 108.447 458.354 111.982L458.637 132.909C463.32 132.805 467.975 130.658 471.492 126.493C478.526 118.163 478.347 104.913 471.091 96.8989C467.597 93.0396 463.8 89.1872 459.967 85.647C411.365 37.29 347.119 8.59162 277.234 10.1383C126.417 13.476 6.05789 156.006 8.393 328.502C10.7281 500.999 134.873 638.118 285.69 634.78C355.575 633.233 419.005 601.709 466.27 551.231C470.004 547.523 473.695 543.505 477.083 539.493C484.117 531.163 483.938 517.913 476.682 509.899C473.054 505.892 468.344 503.953 463.662 504.056L463.945 524.983C460.841 528.658 457.451 532.34 454.057 535.694C409.975 582.9 435.586 326.023 370.245 327.469ZM370.245 327.469C229.533 330.583 221.84 287.168 152.644 360.557C252.558 284.152 229.533 330.583 370.245 327.469Z" stroke="#FE5430" stroke-width="15.9776" stroke-miterlimit="10" stroke-linecap="round" stroke-linejoin="round"/>
</g>
<defs>
<linearGradient id="paint0_linear_825_3185" x1="482.434" y1="272.057" x2="501.173" y2="275.259" gradientUnits="userSpaceOnUse">
<stop stop-color="#F9B776"/>
<stop offset="1" stop-color="#F47960"/>
</linearGradient>
<linearGradient id="paint1_linear_825_3185" x1="497.899" y1="250.612" x2="411.728" y2="250.612" gradientUnits="userSpaceOnUse">
<stop stop-color="#F9B776"/>
<stop offset="1" stop-color="#F47960"/>
</linearGradient>
<linearGradient id="paint2_linear_825_3185" x1="305.088" y1="151.666" x2="322.738" y2="105.543" gradientUnits="userSpaceOnUse">
<stop stop-color="#F9B776"/>
<stop offset="1" stop-color="#F47960"/>
</linearGradient>
<linearGradient id="paint3_linear_825_3185" x1="337.366" y1="93.2683" x2="285.72" y2="112.828" gradientUnits="userSpaceOnUse">
<stop stop-color="#F9B776"/>
<stop offset="1" stop-color="#F47960"/>
</linearGradient>
<linearGradient id="paint4_linear_825_3185" x1="308.358" y1="130.617" x2="355.269" y2="87.3828" gradientUnits="userSpaceOnUse">
<stop stop-color="#2B3582"/>
<stop offset="1" stop-color="#150E42"/>
</linearGradient>
<linearGradient id="paint5_linear_825_3185" x1="340.459" y1="101.434" x2="288.813" y2="120.994" gradientUnits="userSpaceOnUse">
<stop stop-color="#F9B776"/>
<stop offset="1" stop-color="#F47960"/>
</linearGradient>
<linearGradient id="paint6_linear_825_3185" x1="243.052" y1="703.142" x2="304.776" y2="703.142" gradientUnits="userSpaceOnUse">
<stop stop-color="#CE1567"/>
<stop offset="1" stop-color="#7A1DBC"/>
</linearGradient>
<linearGradient id="paint7_linear_825_3185" x1="248.75" y1="669.869" x2="266.137" y2="669.869" gradientUnits="userSpaceOnUse">
<stop stop-color="#F9B776"/>
<stop offset="1" stop-color="#F47960"/>
</linearGradient>
<linearGradient id="paint8_linear_825_3185" x1="138.218" y1="653.228" x2="158.996" y2="653.228" gradientUnits="userSpaceOnUse">
<stop stop-color="#F9B776"/>
<stop offset="1" stop-color="#F47960"/>
</linearGradient>
<linearGradient id="paint9_linear_825_3185" x1="214.538" y1="598.084" x2="246.676" y2="396.858" gradientUnits="userSpaceOnUse">
<stop stop-color="#CB236D"/>
<stop offset="1" stop-color="#4C246D"/>
</linearGradient>
<linearGradient id="paint10_linear_825_3185" x1="269.911" y1="382.812" x2="274.471" y2="359.485" gradientUnits="userSpaceOnUse">
<stop stop-color="#CB236D"/>
<stop offset="1" stop-color="#4C246D"/>
</linearGradient>
<linearGradient id="paint11_linear_825_3185" x1="274.95" y1="347.448" x2="259.569" y2="413.806" gradientUnits="userSpaceOnUse">
<stop stop-color="#CB236D"/>
<stop offset="1" stop-color="#4C246D"/>
</linearGradient>
<linearGradient id="paint12_linear_825_3185" x1="212.791" y1="371.654" x2="217.351" y2="348.327" gradientUnits="userSpaceOnUse">
<stop stop-color="#CB236D"/>
<stop offset="1" stop-color="#4C246D"/>
</linearGradient>
<linearGradient id="paint13_linear_825_3185" x1="218.211" y1="334.305" x2="202.83" y2="400.663" gradientUnits="userSpaceOnUse">
<stop stop-color="#CB236D"/>
<stop offset="1" stop-color="#4C246D"/>
</linearGradient>
<linearGradient id="paint14_linear_825_3185" x1="245.482" y1="304.755" x2="245.94" y2="353.887" gradientUnits="userSpaceOnUse">
<stop stop-color="#CB236D"/>
<stop offset="1" stop-color="#4C246D"/>
</linearGradient>
<linearGradient id="paint15_linear_825_3185" x1="238.961" y1="375.251" x2="233.539" y2="603.671" gradientUnits="userSpaceOnUse">
<stop stop-color="#CB236D"/>
<stop offset="1" stop-color="#4C246D"/>
</linearGradient>
<linearGradient id="paint16_linear_825_3185" x1="234.928" y1="369.698" x2="234.765" y2="446.282" gradientUnits="userSpaceOnUse">
<stop stop-color="#A737D5"/>
<stop offset="1" stop-color="#EF497A"/>
</linearGradient>
<linearGradient id="paint17_linear_825_3185" x1="246.09" y1="431.44" x2="221.9" y2="428.741" gradientUnits="userSpaceOnUse">
<stop stop-color="white"/>
<stop offset="1" stop-color="white"/>
</linearGradient>
<linearGradient id="paint18_linear_825_3185" x1="219.915" y1="289.883" x2="277.993" y2="387.175" gradientUnits="userSpaceOnUse">
<stop stop-color="#F9B776"/>
<stop offset="1" stop-color="#F47960"/>
</linearGradient>
<linearGradient id="paint19_linear_825_3185" x1="108.348" y1="47.3925" x2="453.028" y2="386.982" gradientUnits="userSpaceOnUse">
<stop stop-color="#FDF53F"/>
<stop offset="0.29" stop-color="#F2BF4A"/>
<stop offset="1" stop-color="#D93C65"/>
</linearGradient>
<linearGradient id="paint20_linear_825_3185" x1="559.759" y1="629.664" x2="721.99" y2="740.631" gradientUnits="userSpaceOnUse">
<stop stop-color="#53D8FF"/>
<stop offset="1" stop-color="#3840F7"/>
</linearGradient>
<linearGradient id="paint21_linear_825_3185" x1="649.868" y1="631.583" x2="660.018" y2="708.756" gradientUnits="userSpaceOnUse">
<stop stop-color="#C4421B"/>
<stop offset="1" stop-color="#5C0E16"/>
</linearGradient>
<linearGradient id="paint22_linear_825_3185" x1="533.591" y1="667.873" x2="695.822" y2="778.84" gradientUnits="userSpaceOnUse">
<stop stop-color="#53D8FF"/>
<stop offset="1" stop-color="#3840F7"/>
</linearGradient>
<linearGradient id="paint23_linear_825_3185" x1="587.885" y1="639.786" x2="592.451" y2="717.617" gradientUnits="userSpaceOnUse">
<stop stop-color="#C4421B"/>
<stop offset="1" stop-color="#5C0E16"/>
</linearGradient>
<linearGradient id="paint24_linear_825_3185" x1="626.408" y1="190.947" x2="574.261" y2="88.7368" gradientUnits="userSpaceOnUse">
<stop stop-color="#C4421B"/>
<stop offset="1" stop-color="#5C0E16"/>
</linearGradient>
<linearGradient id="paint25_linear_825_3185" x1="594.037" y1="127.229" x2="597.466" y2="-28.1275" gradientUnits="userSpaceOnUse">
<stop stop-color="#C4421B"/>
<stop offset="1" stop-color="#5C0E16"/>
</linearGradient>
<linearGradient id="paint26_linear_825_3185" x1="634.656" y1="40.6431" x2="583.043" y2="93.3037" gradientUnits="userSpaceOnUse">
<stop stop-color="#2B3582"/>
<stop offset="1" stop-color="#150E42"/>
</linearGradient>
<linearGradient id="paint27_linear_825_3185" x1="611.287" y1="127.615" x2="614.716" y2="-27.7417" gradientUnits="userSpaceOnUse">
<stop stop-color="#C4421B"/>
<stop offset="1" stop-color="#5C0E16"/>
</linearGradient>
<linearGradient id="paint28_linear_825_3185" x1="566.404" y1="363.849" x2="574.2" y2="219.223" gradientUnits="userSpaceOnUse">
<stop stop-color="#C4421B"/>
<stop offset="1" stop-color="#5C0E16"/>
</linearGradient>
<linearGradient id="paint29_linear_825_3185" x1="611.34" y1="332.657" x2="556.032" y2="342.376" gradientUnits="userSpaceOnUse">
<stop stop-color="#C4421B"/>
<stop offset="1" stop-color="#5C0E16"/>
</linearGradient>
<linearGradient id="paint30_linear_825_3185" x1="605.467" y1="346.753" x2="479.961" y2="330.62" gradientUnits="userSpaceOnUse">
<stop stop-color="#C4421B"/>
<stop offset="1" stop-color="#5C0E16"/>
</linearGradient>
<linearGradient id="paint31_linear_825_3185" x1="405.221" y1="278.807" x2="735.69" y2="226.751" gradientUnits="userSpaceOnUse">
<stop stop-color="#C4421B"/>
<stop offset="1" stop-color="#5C0E16"/>
</linearGradient>
</defs>
</svg>
