<svg width="83" height="67" viewBox="0 0 83 67" fill="none" xmlns="http://www.w3.org/2000/svg">
<g clip-path="url(#clip0_702_11907)">
<path d="M46.7131 9.98571C46.7131 8.6313 46.1751 7.33237 45.2174 6.37466C44.2597 5.41694 42.9607 4.87891 41.6063 4.87891C40.2519 4.87891 38.953 5.41694 37.9953 6.37466C37.0376 7.33237 36.4995 8.6313 36.4995 9.98571C36.4995 11.3401 37.0376 12.6391 37.9953 13.5968C38.953 14.5545 40.2519 15.0925 41.6063 15.0925C42.9607 15.0925 44.2597 14.5545 45.2174 13.5968C46.1751 12.6391 46.7131 11.3401 46.7131 9.98571ZM19.1364 27.3489C20.4908 27.3489 21.7898 26.8108 22.7475 25.8531C23.7052 24.8954 24.2432 23.5965 24.2432 22.2421C24.2432 20.8876 23.7052 19.5887 22.7475 18.631C21.7898 17.6733 20.4908 17.1352 19.1364 17.1352C17.782 17.1352 16.4831 17.6733 15.5254 18.631C14.5677 19.5887 14.0296 20.8876 14.0296 22.2421C14.0296 23.5965 14.5677 24.8954 15.5254 25.8531C16.4831 26.8108 17.782 27.3489 19.1364 27.3489ZM4.83739 53.9043C2.57763 53.9043 0.751953 55.7299 0.751953 57.9897C0.751953 60.2495 2.57763 62.0751 4.83739 62.0751H78.3753C80.635 62.0751 82.4607 60.2495 82.4607 57.9897C82.4607 55.7299 80.635 53.9043 78.3753 53.9043H4.83739ZM64.0763 27.3489C65.4307 27.3489 66.7296 26.8108 67.6873 25.8531C68.645 24.8954 69.1831 23.5965 69.1831 22.2421C69.1831 20.8876 68.645 19.5887 67.6873 18.631C66.7296 17.6733 65.4307 17.1352 64.0763 17.1352C62.7218 17.1352 61.4229 17.6733 60.4652 18.631C59.5075 19.5887 58.9695 20.8876 58.9695 22.2421C58.9695 23.5965 59.5075 24.8954 60.4652 25.8531C61.4229 26.8108 62.7218 27.3489 64.0763 27.3489ZM26.2859 40.8181L29.7203 47.1888C30.5246 48.6825 32.3758 49.2315 33.8695 48.44C35.3633 47.6484 35.9123 45.7844 35.1207 44.2907L30.4863 35.673C30.7033 35.4559 30.8948 35.2133 31.0353 34.9325L34.4568 28.5617V35.5197C34.4568 37.7795 36.2825 39.6052 38.5423 39.6052H44.6704C46.9302 39.6052 48.7559 37.7795 48.7559 35.5197V28.5617L52.1902 34.9325C52.3434 35.2133 52.5221 35.4559 52.7392 35.673L48.1047 44.2907C47.3004 45.7844 47.8622 47.6356 49.3559 48.44C50.8496 49.2443 52.7009 48.6825 53.5052 47.1888L56.9267 40.8181V45.7334C56.9267 47.9931 58.7524 49.8188 61.0122 49.8188H67.1403C69.4001 49.8188 71.2258 47.9931 71.2258 45.7334V40.8181L74.6601 47.1888C75.4644 48.6825 77.3156 49.2315 78.8094 48.44C80.3031 47.6484 80.8521 45.7844 80.0605 44.2907L75.2218 35.3155C73.2685 31.6769 69.4639 29.4043 65.3274 29.4043H62.8251C60.7441 29.4043 58.7524 29.9789 57.0289 31.013L52.7392 23.0591C50.7858 19.4205 46.9812 17.148 42.8447 17.148H40.3552C36.2187 17.148 32.4269 19.4205 30.4608 23.0591L26.171 31.013C24.4475 29.9789 22.4558 29.4043 20.3748 29.4043H17.8853C13.7488 29.4043 9.95696 31.6769 7.99084 35.3155L3.16492 44.2779C2.36059 45.7717 2.92234 47.6229 4.41608 48.4272C5.90982 49.2315 7.76103 48.6698 8.56535 47.176L11.9869 40.8181V45.7334C11.9869 47.9931 13.8126 49.8188 16.0723 49.8188H22.2005C24.4603 49.8188 26.2859 47.9931 26.2859 45.7334V40.8181Z" fill="#0C0932"/>
<ellipse cx="19.1985" cy="21.8196" rx="5.57739" ry="5.5774" fill="#B1D5F1"/>
<ellipse cx="41.5081" cy="9.80201" rx="5.57739" ry="5.5774" fill="#B1D5F1"/>
<ellipse cx="63.8176" cy="21.8196" rx="5.57739" ry="5.5774" fill="#B1D5F1"/>
<rect x="0.75" y="53.9941" width="81.5157" height="8.58062" rx="4.29031" fill="#B1D5F1"/>
</g>
<defs>
<clipPath id="clip0_702_11907">
<rect width="81.7131" height="65.3671" fill="white" transform="translate(0.75 0.794922)"/>
</clipPath>
</defs>
</svg>
