<svg width="67" height="58" viewBox="0 0 67 58" fill="none" xmlns="http://www.w3.org/2000/svg">
<path d="M34.368 1.65615V11.9517H32.3252V1.65615C32.3252 1.38526 32.4328 1.12547 32.6244 0.933923C32.8159 0.742376 33.0757 0.634766 33.3466 0.634766C33.6175 0.634766 33.8773 0.742376 34.0688 0.933923C34.2604 1.12547 34.368 1.38526 34.368 1.65615Z" fill="#0D174C"/>
<path d="M41.1701 15.4604C40.5091 14.1776 39.5431 13.077 38.3569 12.2552C37.1707 11.4335 35.8008 10.9158 34.3677 10.7477C33.6888 10.6726 33.0037 10.6726 32.3249 10.7477C30.8916 10.9159 29.5216 11.4337 28.3355 12.2557C27.1493 13.0776 26.1833 14.1785 25.5225 15.4614L33.3463 25.6752L41.1701 15.4604Z" fill="#0D174C"/>
<path d="M65.9063 50.2945C61.638 28.6411 62.0925 31.2967 61.1977 25.2082C59.2867 12.6871 42.4278 9.38084 36.0502 20.5405C35.7081 21.1401 35.4078 22.0981 34.2526 22.0981H32.4345C31.2814 22.0981 30.976 21.138 30.6369 20.5456C29.2434 18.1045 27.1249 16.1575 24.5751 14.9745C22.0253 13.7916 19.1706 13.4313 16.4069 13.9438C13.6431 14.4562 11.1073 15.8159 9.15108 17.8343C7.19485 19.8527 5.91514 22.4298 5.48941 25.2082C4.55689 31.4877 5.14316 28.1702 0.780829 50.2945C0.600117 51.2093 0.624284 52.1528 0.851592 53.0572C1.0789 53.9616 1.50371 54.8045 2.09549 55.5251C2.68727 56.2458 3.43134 56.8265 4.27423 57.2254C5.11711 57.6243 6.0379 57.8316 6.97042 57.8323H10.771C11.9975 57.8315 13.1974 57.4737 14.2241 56.8027C15.2508 56.1316 16.06 55.1763 16.553 54.0532L18.4222 49.8042C18.7555 49.0441 19.3029 48.3974 19.9975 47.943C20.6922 47.4887 21.504 47.2464 22.3341 47.2456H44.3449C45.1743 47.2463 45.9856 47.488 46.6801 47.9414C47.3746 48.3947 47.9224 49.0401 48.2568 49.7991L50.1259 54.0583C50.6208 55.1813 51.4318 56.1361 52.4599 56.8062C53.488 57.4763 54.6889 57.8329 55.9162 57.8323H59.7208C60.653 57.831 61.5733 57.6233 62.4157 57.2241C63.2581 56.8249 64.0016 56.2442 64.593 55.5236C65.1843 54.803 65.6087 53.9603 65.8358 53.0562C66.0629 52.1522 66.087 51.209 65.9063 50.2945Z" fill="#070D2D"/>
<path d="M36.5855 39.2441H30.0997C29.1887 39.2441 28.4502 39.9824 28.4502 40.8932C28.4502 41.8039 29.1887 42.5422 30.0997 42.5422H36.5855C37.4965 42.5422 38.2351 41.8039 38.2351 40.8932C38.2351 39.9824 37.4965 39.2441 36.5855 39.2441Z" fill="#B1D5F1"/>
<path d="M14.2853 17.8198C14.2377 17.6944 14.2152 17.5609 14.2192 17.4268C14.2232 17.2927 14.2536 17.1607 14.3086 17.0383C14.3636 16.916 14.4422 16.8057 14.5398 16.7137C14.6375 16.6217 14.7523 16.5499 14.8777 16.5023C15.1392 16.4028 15.4044 16.3133 15.6734 16.2336C15.9323 16.1587 16.2104 16.1891 16.447 16.3184C16.6836 16.4477 16.8595 16.6652 16.9364 16.9236C17.0132 17.1821 16.9848 17.4604 16.8572 17.6979C16.7297 17.9354 16.5134 18.1129 16.2556 18.1916C16.0349 18.258 15.8174 18.3305 15.6029 18.4122C15.4775 18.4599 15.3439 18.4823 15.2098 18.4783C15.0757 18.4744 14.9437 18.444 14.8214 18.389C14.699 18.334 14.5887 18.2554 14.4967 18.1577C14.4048 18.0601 14.3329 17.9453 14.2853 17.8198Z" fill="#B1D5F1"/>
<path d="M9.03674 23.5145C8.79493 23.3927 8.61134 23.18 8.5263 22.923C8.44127 22.666 8.46175 22.3857 8.58325 22.1438C9.31981 20.6912 10.3521 19.4088 11.6137 18.3789C11.8243 18.2163 12.0901 18.1423 12.3545 18.1727C12.6189 18.2031 12.861 18.3355 13.0292 18.5417C13.1975 18.7478 13.2786 19.0116 13.2554 19.2767C13.2321 19.5418 13.1063 19.7873 12.9047 19.9611C11.8669 20.8111 11.0177 21.8683 10.4115 23.0651C10.3509 23.185 10.2672 23.2917 10.1653 23.3792C10.0633 23.4667 9.94509 23.5333 9.81738 23.575C9.68967 23.6168 9.55498 23.6329 9.42103 23.6225C9.28707 23.6121 9.15648 23.5754 9.03674 23.5145Z" fill="#B1D5F1"/>
<path d="M57.2931 26.9394C57.2937 27.5956 57.0997 28.2372 56.7356 28.7831C56.3716 29.329 55.8538 29.7547 55.2478 30.0063C54.6418 30.2579 53.9747 30.3242 53.3311 30.1967C52.6874 30.0692 52.096 29.7537 51.6317 29.2901C51.1673 28.8264 50.8509 28.2355 50.7224 27.592C50.5939 26.9486 50.6592 26.2814 50.9099 25.675C51.1605 25.0686 51.5854 24.5502 52.1308 24.1853C52.6761 23.8204 53.3174 23.6254 53.9736 23.625C54.8526 23.6266 55.6952 23.9762 56.3173 24.5972C56.9393 25.2183 57.2901 26.0604 57.2931 26.9394Z" fill="#B1D5F1"/>
<path d="M51.0907 33.1437C51.0897 33.799 50.8944 34.4393 50.5296 34.9837C50.1648 35.5281 49.6469 35.9521 49.0411 36.2022C48.4354 36.4522 47.7692 36.5172 47.1266 36.3887C46.484 36.2602 45.8939 35.9442 45.4309 35.4804C44.9679 35.0167 44.6527 34.4261 44.5252 33.7833C44.3978 33.1406 44.4637 32.4744 44.7147 31.8691C44.9657 31.2637 45.3905 30.7464 45.9355 30.3824C46.4804 30.0185 47.121 29.8242 47.7763 29.8242C48.656 29.825 49.4993 30.1752 50.1208 30.7977C50.7424 31.4202 51.0912 32.264 51.0907 33.1437Z" fill="#B1D5F1"/>
<path d="M44.8976 26.9394C44.8982 27.5958 44.7041 28.2376 44.3398 28.7836C43.9755 29.3297 43.4574 29.7553 42.8511 30.0068C42.2448 30.2583 41.5775 30.3242 40.9337 30.1963C40.2899 30.0684 39.6985 29.7524 39.2344 29.2883C38.7702 28.8241 38.4542 28.2327 38.3263 27.5889C38.1984 26.9451 38.2643 26.2778 38.5158 25.6715C38.7673 25.0652 39.193 24.5471 39.739 24.1828C40.285 23.8185 40.9268 23.6244 41.5832 23.625C42.4617 23.6269 43.3036 23.9767 43.9247 24.5979C44.5459 25.219 44.8957 26.061 44.8976 26.9394Z" fill="#B1D5F1"/>
<path d="M51.0907 20.7441C51.0907 21.3996 50.8963 22.0404 50.5321 22.5855C50.1679 23.1305 49.6503 23.5553 49.0447 23.8062C48.439 24.0571 47.7726 24.1227 47.1297 23.9948C46.4868 23.8669 45.8962 23.5512 45.4327 23.0877C44.9691 22.6242 44.6535 22.0336 44.5256 21.3907C44.3977 20.7478 44.4633 20.0813 44.7142 19.4757C44.9651 18.8701 45.3899 18.3525 45.9349 17.9883C46.48 17.6241 47.1208 17.4297 47.7763 17.4297C48.6547 17.4316 49.4967 17.7814 50.1178 18.4025C50.739 19.0237 51.0888 19.8656 51.0907 20.7441Z" fill="#B1D5F1"/>
<path d="M27.6528 26.9412C27.6514 27.7497 27.3297 28.5248 26.7581 29.0966C26.1864 29.6684 25.4115 29.9904 24.6029 29.992H21.9565V32.6385C21.9565 33.4462 21.6356 34.2209 21.0644 34.7921C20.4932 35.3633 19.7185 35.6842 18.9107 35.6842C18.103 35.6842 17.3283 35.3633 16.7571 34.7921C16.1859 34.2209 15.865 33.4462 15.865 32.6385V29.992H13.2227C12.4141 29.992 11.6386 29.6708 11.0668 29.0991C10.495 28.5273 10.1738 27.7518 10.1738 26.9432C10.1738 26.1346 10.495 25.3591 11.0668 24.7874C11.6386 24.2156 12.4141 23.8944 13.2227 23.8944H15.8691V21.2469C15.8691 20.4392 16.19 19.6645 16.7612 19.0933C17.3323 18.5221 18.107 18.2012 18.9148 18.2012C19.7226 18.2012 20.4973 18.5221 21.0685 19.0933C21.6397 19.6645 21.9606 20.4392 21.9606 21.2469V23.8944H24.607C25.4145 23.896 26.1884 24.2175 26.7593 24.7886C27.3301 25.3597 27.6514 26.1337 27.6528 26.9412Z" fill="#B1D5F1"/>
<path d="M13.6357 57.1308C14.9349 56.472 15.9665 55.3845 16.5559 54.0524L18.425 49.8034C18.7583 49.0432 19.3057 48.3965 20.0004 47.9422C20.695 47.4879 21.5069 47.2456 22.3369 47.2448H44.3478C45.1771 47.2455 45.9884 47.4872 46.683 47.9406C47.3775 48.3939 47.9253 49.0393 48.2597 49.7983L50.1288 54.0575C50.6234 55.1799 51.4337 56.1342 52.4611 56.8043C53.4884 57.4744 54.6884 57.8313 55.9149 57.8315H59.7196C60.6521 57.8308 61.5729 57.6235 62.4158 57.2246C63.2587 56.8257 64.0027 56.245 64.5945 55.5243C65.1863 54.8036 65.6111 53.9608 65.8384 53.0564C66.0657 52.152 66.0899 51.2085 65.9092 50.2937C61.9003 29.9793 62.0535 31.061 61.3487 26.2441C61.6429 30.1918 59.9739 44.147 22.0336 45.6382C21.3158 45.6679 20.6184 45.8852 20.0107 46.2683C19.403 46.6515 18.9063 47.1871 18.5701 47.8219L13.6357 57.1308Z" fill="#0D174C"/>
<path d="M61.8966 51.0872L59.9917 41.4463C59.9397 41.1808 59.9951 40.9055 60.1459 40.6808C60.2967 40.4561 60.5305 40.3004 60.7959 40.2479C61.0613 40.1954 61.3368 40.2504 61.5617 40.4008C61.7867 40.5512 61.9427 40.7847 61.9957 41.05L63.8996 50.6909C63.9303 50.8242 63.934 50.9624 63.9103 51.0971C63.8866 51.2319 63.8361 51.3605 63.7618 51.4754C63.6874 51.5903 63.5908 51.689 63.4775 51.7658C63.3643 51.8426 63.2368 51.8959 63.1025 51.9224C62.9683 51.949 62.8301 51.9483 62.6962 51.9204C62.5622 51.8925 62.4352 51.838 62.3227 51.7601C62.2103 51.6822 62.1146 51.5825 62.0414 51.4669C61.9682 51.3513 61.9189 51.2222 61.8966 51.0872Z" fill="#DBDFF0"/>
<path d="M59.2776 37.8431L59.0611 36.7451C59.009 36.4796 59.0645 36.2043 59.2153 35.9796C59.366 35.7549 59.5998 35.5992 59.8652 35.5468C60.1307 35.4943 60.4061 35.5492 60.6311 35.6996C60.856 35.85 61.0121 36.0835 61.065 36.3489L61.2816 37.4468C61.3336 37.7124 61.2781 37.9877 61.1274 38.2124C60.9766 38.4371 60.7428 38.5927 60.4774 38.6452C60.2119 38.6977 59.9365 38.6427 59.7116 38.4924C59.4866 38.342 59.3305 38.1085 59.2776 37.8431Z" fill="#DBDFF0"/>
</svg>
