<svg width="66" height="66" viewBox="0 0 66 66" fill="none" xmlns="http://www.w3.org/2000/svg">
<g clip-path="url(#clip0_702_11938)">
<path d="M56.3916 9.60742H48.9014V22.6812H56.3916V9.60742Z" fill="#727796"/>
<path d="M59.25 2.93359H46.04V10.0152H59.25V2.93359Z" fill="#070D2D"/>
<path d="M5.73145 35.4813V65.5781H59.1158V35.4813C48.6296 24.9951 42.7736 19.1391 32.4235 8.78906C22.0736 19.2752 16.2176 25.1312 5.73145 35.4813Z" fill="#070D2D"/>
<path d="M59.252 35.4813C48.7658 24.9951 42.9098 19.1391 32.5598 8.78906C27.2486 13.964 23.163 18.0496 19.0775 22.1351C14.992 26.2207 10.9064 30.3062 5.73145 35.4812V41.6095C16.2176 31.1233 22.0736 25.2673 32.4237 14.9172C42.9098 25.4034 48.7658 31.2594 59.1159 41.6095V42.4266V35.4812H59.252V35.4813Z" fill="#B1D5F1"/>
<path d="M27.6537 65.5764H11.584V49.779C11.584 45.2849 15.261 41.7441 19.6188 41.7441C24.1129 41.7441 27.6537 45.4211 27.6537 49.779V65.5764Z" fill="#DBDFF0"/>
<path d="M53.3944 41.7441H32.4219V60.1291H53.3944V41.7441Z" fill="#344A5E"/>
<path d="M41.8173 43.9277H34.5996V57.9548H41.8173V43.9277Z" fill="#E3E4E8"/>
<path d="M51.2138 43.9277H43.9961V57.9548H51.2138V43.9277Z" fill="#E3E4E8"/>
<path d="M64.1517 29.8972L35.6892 1.43465C34.055 -0.19957 31.1951 -0.19957 29.5609 1.43465L1.23445 29.8972C-0.399765 31.5314 -0.399765 34.3913 1.23445 36.0255C2.86866 37.6598 5.72854 37.6598 7.36275 36.0255L32.6931 10.6952L58.0234 36.0255C59.6576 37.6598 62.5175 37.6598 64.1517 36.0255C65.7859 34.2552 65.7859 31.5314 64.1517 29.8972Z" fill="#070D2D"/>
</g>
<defs>
<clipPath id="clip0_702_11938">
<rect width="65.3686" height="65.3687" fill="white" transform="translate(0.00878906 0.212891)"/>
</clipPath>
</defs>
</svg>
